<?xml version="1.0" encoding="UTF-8" standalone="no"?>
<svg
   xmlns:dc="http://purl.org/dc/elements/1.1/"
   xmlns:cc="http://creativecommons.org/ns#"
   xmlns:rdf="http://www.w3.org/1999/02/22-rdf-syntax-ns#"
   xmlns:svg="http://www.w3.org/2000/svg"
   xmlns="http://www.w3.org/2000/svg"
   xmlns:sodipodi="http://sodipodi.sourceforge.net/DTD/sodipodi-0.dtd"
   xmlns:inkscape="http://www.inkscape.org/namespaces/inkscape"
   viewBox="0 0 721.35991 383.70883"
   height="383.70883"
   width="721.35992"
   xml:space="preserve"
   id="svg2"
   version="1.1"
   sodipodi:docname="SicilianaLogo.svg"
   inkscape:version="0.92.2 (5c3e80d, 2017-08-06)"><sodipodi:namedview
     pagecolor="#ffffff"
     bordercolor="#666666"
     borderopacity="1"
     objecttolerance="10"
     gridtolerance="10"
     guidetolerance="10"
     inkscape:pageopacity="0"
     inkscape:pageshadow="2"
     inkscape:window-width="825"
     inkscape:window-height="480"
     id="namedview121"
     showgrid="false"
     fit-margin-top="0"
     fit-margin-left="0"
     fit-margin-right="0"
     fit-margin-bottom="0"
     inkscape:zoom="0.29732601"
     inkscape:cx="379.14167"
     inkscape:cy="133.88282"
     inkscape:window-x="0"
     inkscape:window-y="31"
     inkscape:window-maximized="0"
     inkscape:current-layer="svg2" /><metadata
     id="metadata8"><rdf:RDF><cc:Work
         rdf:about=""><dc:format>image/svg+xml</dc:format><dc:type
           rdf:resource="http://purl.org/dc/dcmitype/StillImage" /><dc:title></dc:title></cc:Work></rdf:RDF></metadata><defs
     id="defs6"><clipPath
       id="clipPath20"
       clipPathUnits="userSpaceOnUse"><path
         id="path18"
         d="M 0,841.89 H 841.89 V 0 H 0 Z"
         inkscape:connector-curvature="0" /></clipPath></defs><g
     id="g2699"
     transform="matrix(1.3333333,0,0,-1.3333333,-201.03039,827.74145)"><path
       inkscape:connector-curvature="0"
       d="m 364.6045,516.0396 c -1.413,-3.748 -3.937,-7.833 2.623,-9.79 -0.956,3.569 -1.79,6.68 -2.623,9.79 m 27.207,-60.756 c -0.023,-0.954 -0.045,-1.907 -0.067,-2.861 2.733,-0.281 5.465,-0.562 8.198,-0.842 0.084,0.898 0.168,1.795 0.251,2.693 -2.794,0.337 -5.588,0.674 -8.382,1.01 m 2.932,-7.454 c 0.102,0.76 0.204,1.52 0.307,2.279 -3.665,0.729 -7.329,1.458 -10.994,2.187 -0.118,-0.724 -0.236,-1.447 -0.354,-2.171 3.68,-0.765 7.361,-1.53 11.041,-2.295 m 94.596,24.651 c -4.074,1.545 -6.893,2.614 -9.849,3.735 -0.194,-4.558 2.862,-5.942 9.849,-3.735 m -8.858,-2.23 c 1.226,-7.364 2.087,-7.901 8.264,-5.24 -1.617,0.997 -2.939,1.813 -4.21,2.596 0.667,0.235 1.413,0.498 2.797,0.985 -2.546,0.617 -4.432,1.073 -6.851,1.659 m 3.767,-54.823 c 5.23,-0.926 10.655,-2.464 14.895,4.144 -5.769,-1.605 -10.332,-2.875 -14.895,-4.144 m -181.304,97.858 c 3.912,1.387 7.075,2.508 10.237,3.63 -0.086,0.656 -0.173,1.312 -0.26,1.969 -3.227,0.292 -6.453,0.584 -9.977,0.903 z m 121.058,-40.539 c -2.846,5.498 -5.691,10.996 -8.537,16.495 0.389,-6.806 1.288,-13.338 8.537,-16.495 m -32.867,-26.956 c -5.951,2.397 -11.324,4.561 -16.696,6.725 4.087,-5.937 12.826,-9.196 16.696,-6.725 m -47.598,29.58 c -0.229,-0.566 -0.458,-1.132 -0.686,-1.698 5.112,-6.942 6.674,-7.514 13.02,-3.252 -4.725,1.896 -8.53,3.423 -12.334,4.95 m 42.511,13.157 c 0.428,0.671 0.857,1.342 1.286,2.013 -9.508,6.244 -19.015,12.488 -28.522,18.732 -0.321,-0.484 -0.642,-0.969 -0.963,-1.453 9.4,-6.431 18.799,-12.862 28.199,-19.292 m -169.6,-38.364 c -0.227,-0.649 -0.454,-1.298 -0.681,-1.947 12.334,-3.896 24.668,-7.792 37.002,-11.689 0.197,0.616 0.393,1.232 0.59,1.848 -12.304,3.929 -24.608,7.859 -36.911,11.788 m 418.35,-8.823 c -5.948,-1.884 -11.803,-4.182 -17.87,-5.534 -6.014,-1.341 -12.241,-1.728 -18.375,-2.533 0.095,-0.502 0.19,-1.004 0.285,-1.506 8.3,-2.043 29.995,3.081 35.96,9.573 m -333.821,32.14 c -0.888,-5.481 -0.874,-5.436 4.31,-6.965 1.665,-0.491 3.377,-1.068 4.833,-1.979 6.601,-4.13 13.079,-8.455 19.692,-12.563 1.589,-0.987 3.526,-1.414 5.304,-2.098 0.167,0.394 0.334,0.787 0.501,1.181 -11.526,7.461 -23.051,14.922 -34.64,22.424 m 294.361,-19.386 c 7.324,-3.031 36.437,4.061 43.666,10.657 -14.348,-3.502 -29.212,-7.129 -43.666,-10.657 m 2.35,-10.646 c -0.088,-0.76 -0.177,-1.519 -0.266,-2.279 2.067,-0.236 4.257,-1.035 6.179,-0.612 8.914,1.96 17.775,4.178 26.589,6.549 0.989,0.266 1.56,2.084 2.246,3.071 -12.015,-2.327 -23.381,-4.528 -34.748,-6.729 m -0.36,-16.164 c 0.162,-0.447 0.324,-0.893 0.486,-1.339 14.85,-1.654 27.459,4.965 41.263,11.136 -14.614,-3.429 -28.181,-6.613 -41.749,-9.797 m -269.623,22.776 c -8.334,6.701 -16.385,13.799 -29.091,15.958 1.459,-2.568 1.983,-5.01 3.316,-5.588 8.492,-3.686 17.163,-6.96 25.775,-10.37 m 260.314,12.504 c 21.745,-1.204 40.964,6.984 59.883,16.286 -19.479,-7.221 -38.583,-15.836 -59.883,-16.286 m 10.526,-25.213 c 0.141,-0.643 0.282,-1.286 0.422,-1.93 11.816,0.528 23.332,2.457 34.517,7.963 -0.872,0.796 -1.728,2.1 -2.249,1.977 -10.919,-2.573 -21.801,-5.307 -32.69,-8.01 m -331.126,109.277 c -12.142,-2.656 -19.329,6.178 -27.986,11.724 2.288,-0.517 4.378,-1.483 6.347,-2.654 2.148,-1.278 4.183,-2.744 7.142,-4.709 -5.764,10.125 -7.306,10.853 -19.684,9.394 10.146,-7.471 19.617,-14.445 28.029,-20.639 2.501,2.798 4.024,4.503 6.152,6.884 m 294.564,-100.152 c -2.314,1.703 -3.564,3.382 -4.986,3.544 -8.26,0.941 -16.58,1.357 -24.839,2.299 -4.419,0.504 -8.778,1.621 -13.127,2.619 -4.697,1.079 -9.352,2.343 -15.139,3.808 4.387,-4.79 47.765,-13.773 58.091,-12.27 m 100.784,29.526 c -0.367,-1.541 -1.103,-3.097 -1.043,-4.621 0.408,-10.339 -5.339,-17.704 -11.762,-24.74 -0.913,-1 -2.184,-2.107 -3.416,-2.286 -1.938,-0.28 -4.488,-0.472 -5.821,0.55 -1.026,0.786 -1.269,3.789 -0.634,5.285 1.128,2.657 3.129,4.961 4.87,7.336 2.156,2.942 4.42,5.806 6.638,8.703 -0.42,0.323 -0.839,0.646 -1.259,0.969 -3.928,-4.631 -8.468,-8.902 -11.509,-14.057 -1.372,-2.324 -0.823,-7.119 0.772,-9.517 2.021,-3.039 6.229,-3.12 9.409,-0.617 2.692,2.119 5.479,4.388 7.404,7.161 5.307,7.648 9.156,15.876 6.351,25.834 m -359.607,-43.392 c 1.998,-7.542 25.251,-15.782 35.72,-12.521 -11.635,4.079 -23.27,8.157 -35.72,12.521 m 252.195,25.815 c -1.717,1.58 -2.449,2.844 -3.185,2.846 -20.717,0.051 -40.67,4.578 -60.399,10.503 19.407,-10.786 40.651,-12.468 63.584,-13.349 m -253.197,49.39 c -1.991,-4.266 -2.032,-6.657 1.829,-8.569 3.037,-1.504 5.708,-3.844 8.329,-6.065 3.251,-2.754 5.958,-3.958 9.915,-0.558 2.761,2.372 6.753,3.323 10.212,4.87 1.426,0.638 2.899,1.174 4.35,1.757 -0.05,0.563 -0.099,1.127 -0.149,1.69 -12.441,-3.012 -24.406,-3.658 -34.486,6.875 m 256.08,-55.596 c 0.245,0.432 0.49,0.864 0.735,1.296 -1.297,0.97 -2.513,2.624 -3.906,2.789 -5.509,0.656 -11.103,0.599 -16.609,1.266 -8.39,1.017 -16.789,2.136 -25.079,3.755 -5.019,0.981 -9.837,2.987 -14.746,4.532 18.017,-13.048 39.272,-11.21 59.605,-13.638 m 95.298,26.36 c -19.673,-10.202 -40.409,-16.768 -62.644,-19.586 8.644,-6.242 52.104,7.341 62.644,19.586 m -17.778,-19.261 c -13.246,-3.286 -26.521,-6.58 -40.048,-9.936 0.27,-0.769 0.826,-2.347 1.518,-4.312 9.092,1.671 17.993,3.073 26.776,5.008 5.47,1.205 10.765,3.214 11.754,9.24 m -360.329,61.544 c -9.829,7.72 -18.551,16.149 -28.721,22.111 -9.854,5.776 -20.041,12.533 -33.773,11.946 6.964,-2.8 12.691,-4.972 18.299,-7.414 2.694,-1.172 5.241,-2.737 7.721,-4.331 6.524,-4.192 13.191,-8.21 19.388,-12.848 5.308,-3.973 10.046,-8.709 15.397,-13.425 0.988,2.317 1.578,3.702 1.689,3.961 m 247.579,-74.969 c -0.363,-0.686 -0.726,-1.372 -1.089,-2.059 2.039,-1.777 3.825,-4.577 6.16,-5.154 10.207,-2.522 20.574,-4.399 32.133,-6.767 h -16.222 c 5.07,-5.806 11.269,-4.969 17.702,-3.936 v 10.042 c -14.025,-2.566 -26.408,2.388 -38.684,7.874 m -222.059,53.028 c -1.777,-3.811 -1.384,-5.72 2.104,-7.32 5.039,-2.312 9.964,-5.061 14.494,-8.253 8.513,-5.999 16.597,-12.608 25.114,-18.601 2.154,-1.515 5.269,-1.664 7.942,-2.44 0.201,0.508 0.402,1.016 0.602,1.524 -8.211,6.35 -15.69,14.223 -24.838,18.623 -9.184,4.416 -15.837,12.286 -25.418,16.467 m -81.959,58.638 c 6.824,-3.074 13.665,-6.725 20.894,-9.279 11.096,-3.921 18.602,-12.602 27.571,-19.358 2.16,-1.626 4.567,-2.992 7.03,-4.099 0.586,-0.264 2.336,0.8 2.668,1.614 0.302,0.739 -0.296,2.364 -1.019,2.913 -3.588,2.728 -7.011,6.201 -11.112,7.625 -11.612,4.031 -19.684,13.012 -29.243,19.843 -5.999,4.287 -12.005,5.117 -16.789,0.741 m -10.836,-8.424 c 27.668,-4.209 45.822,-22.861 64.631,-41.088 1.177,6.752 0.744,7.994 -4.138,11.333 -2.717,1.858 -6.298,2.865 -8.328,5.246 -11.85,13.891 -27.78,20.77 -44.267,26.978 -3.831,1.443 -5.813,0.09 -7.898,-2.469 m 68.472,-120.121 c -26.503,17.032 -56.033,27.395 -86.676,33.532 3.582,-6.311 9.772,-9.629 18.479,-10.511 18.687,-1.893 36.573,-6.403 52.284,-17.372 4.938,-3.448 10.176,-6.06 15.913,-5.649 m 25.089,8.216 c 2.136,-4.384 6.077,-4.848 9.535,-5.964 5.94,-1.917 12.325,-2.919 17.801,-5.718 14.661,-7.494 30.005,-9.82 46.376,-7.453 -24.28,6.302 -48.559,12.605 -73.712,19.135 m -96.662,110.095 c -0.068,-0.463 -0.136,-0.927 -0.204,-1.39 6.963,-2.794 13.953,-5.526 20.885,-8.395 14.099,-5.833 24.573,-16.086 33.798,-27.861 3.842,-4.903 6.39,-11.035 12.437,-14.072 1.716,6.446 0.018,10.622 -4.647,15.317 -13.898,13.987 -28.961,26.135 -47.102,33.939 -4.564,1.963 -10.085,1.701 -15.167,2.462 m 75.233,-117.505 1.656,2.409 c -5.062,3.095 -10.088,6.251 -15.198,9.264 -3.731,2.2 -7.668,4.059 -11.348,6.337 -9.306,5.761 -18.694,11.238 -30.022,11.815 -2.615,0.134 -5.448,-0.456 -7.819,0.352 -11.202,3.813 -23.482,4.912 -33.394,12.838 0.899,-2.528 1.923,-5.471 3.839,-6.267 6.709,-2.788 13.588,-5.452 20.655,-7.031 13.606,-3.041 26.996,-6.559 39.469,-12.905 10.781,-5.485 21.446,-11.199 32.162,-16.812 m -98.16,103.711 c 4.952,1.835 9.322,4.609 13.864,4.93 15.894,1.123 30.333,-2.624 41.55,-15.016 10.979,-12.129 22.09,-24.139 33.18,-36.166 0.263,-0.285 0.967,-0.163 3.211,-0.467 -1.762,3.337 -2.71,5.933 -4.32,8.017 -3.186,4.123 -6.665,8.029 -10.154,11.907 -5.661,6.292 -11.04,12.909 -17.24,18.63 -9.684,8.936 -22.027,13.164 -34.22,17.407 -8.041,2.798 -20.278,-1.509 -25.871,-9.242 m 107.767,22.117 c -12.308,9.676 -25.884,3.681 -38.717,5.319 3.357,-10.911 13.157,-10.953 22.254,-13.695 -2.164,-2.595 -3.737,-4.481 -5.969,-7.157 3.377,-2.676 6.917,-5.481 11.393,-9.027 0.583,3.022 0.885,4.587 1.15,5.964 -2.45,0.845 -4.426,1.526 -7.775,2.68 4.781,2.153 10.376,-1.585 11.721,4.949 -5.492,2.522 -11.054,5.076 -16.617,7.63 0.205,0.507 0.409,1.013 0.613,1.519 5.586,-2.244 11.173,-4.489 18.033,-7.246 -1.042,4.068 -1.737,6.781 -2.432,9.494 0.297,0.117 0.594,0.233 0.891,0.35 0.876,-1.325 1.753,-2.649 2.873,-4.342 1.012,1.397 1.79,2.469 2.582,3.562 m -14.434,-109.282 c 0.556,0.632 1.113,1.264 1.669,1.896 -1.723,1.713 -3.261,3.679 -5.206,5.086 -4.073,2.946 -8.345,5.619 -12.56,8.367 -11.633,7.585 -24.006,12.882 -38.246,12.753 -5.599,-0.05 -11.296,-0.25 -16.783,0.641 -12.017,1.951 -20.431,9.423 -27.324,19.243 0.185,-2.256 0.489,-4.52 1.678,-6.133 6.649,-9.017 15.569,-14.985 26.519,-17.055 7.806,-1.475 16.149,-0.565 23.737,-2.621 11.689,-3.166 23.437,-6.737 33.622,-13.86 4.189,-2.929 8.59,-5.554 12.894,-8.317 m 204.402,5.1 c 0.459,0.148 0.918,0.296 1.377,0.444 -1.775,8.39 -3.49,16.794 -5.404,25.153 -0.228,0.998 -1.388,2.011 -2.371,2.567 -3.132,1.771 -6.384,3.329 -10.778,5.578 -0.921,-2.836 -1.771,-5.589 -2.712,-8.31 -0.836,-2.418 -2.122,-4.74 -2.558,-7.219 -0.356,-2.023 -0.148,-4.352 0.52,-6.303 1.058,-3.086 2.551,-6.058 4.164,-8.906 1.163,-2.053 2.821,-3.824 4.258,-5.721 0.378,0.307 0.757,0.614 1.135,0.92 -1.781,5.198 -3.562,10.395 -5.343,15.592 0.479,0.157 0.959,0.314 1.438,0.471 1.282,-3.467 2.192,-7.138 3.955,-10.339 1.592,-2.891 0.641,-8.073 6.284,-8.058 -7.474,16.624 -8.048,18.763 -6.007,22.285 2.455,-12.961 7.225,-22.496 12.507,-24.379 -2.023,8.846 -9.041,16.111 -8.158,26.186 2.74,-7.109 5.216,-13.535 7.693,-19.961 m -61.112,-38.405 c 0.148,0.883 0.295,1.766 0.443,2.648 -13.34,2.698 -27.119,2.516 -40.168,7.758 -12.513,5.027 -26.466,6.375 -39.649,9.861 -13.24,3.501 -26.31,7.645 -39.974,11.66 0.71,-1.436 1.028,-3.449 2.081,-3.964 4.458,-2.186 9.038,-4.23 13.763,-5.731 3.597,-1.142 7.787,-0.677 11.183,-2.15 17.449,-7.569 36.561,-8.971 54.472,-15.191 11.764,-4.086 25.176,-3.426 37.849,-4.891 m -238.086,70.375 c -0.421,-0.37 -0.841,-0.741 -1.262,-1.111 1.215,-1.723 2.185,-3.705 3.685,-5.128 11.659,-11.061 26.504,-14.593 41.67,-15.52 11.257,-0.687 20.164,-6.291 29.602,-10.724 8.671,-4.073 16.516,-9.903 25.173,-15.235 -1.579,8.668 -1.605,8.599 -8.16,11.025 -1.738,0.643 -3.328,1.763 -4.879,2.821 -8.168,5.571 -16.369,10.731 -26.176,13.485 -7.054,1.981 -13.764,4.415 -21.267,4.117 -3.903,-0.156 -7.956,0.487 -11.763,1.465 -10.094,2.592 -19.963,5.797 -26.623,14.805 m 189.916,-41.132 c 0.479,-0.285 -70.518,41.883 -70.616,41.941 -0.726,-3.935 -0.121,-7.072 3.593,-9.482 8.103,-5.261 16.109,-10.685 23.978,-16.289 13.089,-9.32 27.478,-15.038 43.045,-16.17 m 180.929,-22.939 c 0.1,0.619 0.201,1.237 0.303,1.856 -2.758,0.505 -5.504,1.088 -8.276,1.501 -7.836,1.169 -16.04,0.251 -23.366,4.307 -2.711,1.501 -5.465,3.028 -8.373,4.048 -8.1,2.84 -16.453,5.017 -24.408,8.2 -11.56,4.626 -22.983,9.643 -34.231,14.984 -9.563,4.541 -18.787,9.793 -28.177,14.699 -8.37,4.372 -16.761,8.7 -25.143,13.047 -0.226,-0.423 -0.452,-0.846 -0.678,-1.269 9.044,-5.936 17.854,-12.278 27.204,-17.684 7.907,-4.572 16.403,-8.141 24.707,-12.007 7.677,-3.574 15.314,-7.294 23.202,-10.346 14.251,-5.513 28.623,-10.728 43.047,-15.776 11.053,-3.869 22.568,-5.217 34.189,-5.56 m -250.779,71.465 c -0.5,-0.338 -1,-0.676 -1.499,-1.015 0.966,-1.215 1.774,-2.619 2.94,-3.598 1.449,-1.218 3.217,-2.051 4.808,-3.11 10.427,-6.936 20.608,-14.282 31.343,-20.703 7.907,-4.73 17.198,-7.3 24.699,-12.519 15.75,-10.959 33.761,-15.253 51.775,-19.846 2.806,-0.716 5.789,-0.738 7.341,-0.922 1.676,2.561 2.804,4.287 4.458,6.815 -1.857,-0.146 -3.504,-0.169 -5.112,-0.433 -1.678,-0.275 -3.407,-1.34 -4.959,-1.091 -7.379,1.18 -14.944,1.96 -21.994,4.257 -10.126,3.3 -19.536,8.258 -27.719,15.428 -3.259,2.856 -7.352,4.96 -11.381,6.656 -2.139,0.9 -5.024,-0.176 -7.451,0.281 -7.231,1.364 -12.953,5.547 -18.179,10.485 -8.589,8.116 -18.283,14.544 -29.07,19.315 m 213.815,-42.529 c -0.824,-2.516 -1.235,-4.564 -2.156,-6.348 -0.81,-1.571 -2.192,-2.847 -3.321,-4.253 -1.55,1.508 -3.334,2.851 -4.562,4.587 -0.733,1.036 -0.889,2.707 -0.803,4.061 0.578,9.134 -3.747,15.153 -11.789,18.979 -0.49,-2.848 -0.133,-6.37 -1.718,-8.29 -1.39,-1.685 -4.958,-1.572 -8.013,-2.371 1.4,-3.086 3.145,-6.931 5.362,-11.817 0.198,3.49 0.321,5.644 0.52,9.159 1.761,-5.089 2.989,-8.639 4.218,-12.189 0.651,0.118 1.303,0.235 1.955,0.353 v 13.792 c 4.355,-5.075 -2.883,-12.632 4.999,-15.522 4.746,-1.74 8.563,-8.277 14.53,-3.696 1.532,-1.432 2.988,-2.792 5.297,-4.949 -1.197,4.361 -2.029,7.391 -2.86,10.421 0.332,0.07 0.665,0.14 0.998,0.21 1.853,-4.268 3.706,-8.536 5.996,-13.811 1.085,2.082 1.55,2.974 2.156,4.137 1.615,-1.804 2.972,-3.32 4.563,-5.098 0.849,0.68 1.67,1.338 2.49,1.995 -0.058,-0.474 -0.116,-0.949 -0.175,-1.423 4.663,-0.629 9.327,-1.258 13.99,-1.886 0.197,0.615 0.395,1.231 0.592,1.846 -3.142,1.604 -6.265,3.248 -9.431,4.803 -7.183,3.527 -15.949,4.772 -19.256,13.824 -0.459,1.257 -2.094,2.085 -3.582,3.486 m -164.153,61.151 c 0.12,0.533 0.241,1.065 0.362,1.598 -2.623,0.109 -5.401,0.833 -7.839,0.214 -7.992,-2.029 -15.954,-2.86 -24.152,-1.045 8.365,0.852 16.73,1.704 25.094,2.556 -0.033,0.986 -0.067,1.971 -0.101,2.957 -2.379,0.056 -4.829,0.504 -7.121,0.083 -4.126,-0.757 -8.157,-2.034 -12.227,-3.094 -0.149,0.524 -0.299,1.047 -0.448,1.57 4.128,1.116 8.257,2.231 12.385,3.347 -0.069,0.54 -0.137,1.081 -0.206,1.621 h -12.603 c -0.013,0.225 -0.025,0.449 -0.038,0.674 2.343,0.595 4.685,1.19 7.028,1.785 -2.427,1.059 -4.679,0.902 -6.898,1.106 -2.021,0.185 -4.005,0.761 -6.005,1.165 0.068,0.349 0.136,0.698 0.204,1.048 h 7.284 c 0.04,0.615 0.079,1.231 0.119,1.847 -5.59,0.502 -11.18,1.005 -16.77,1.508 -0.083,0.192 -0.166,0.384 -0.249,0.575 2.631,0.625 5.263,1.249 7.894,1.874 0.028,0.308 0.055,0.617 0.083,0.926 -3.305,0.401 -6.61,0.802 -10.847,1.317 1.742,1.06 2.501,1.522 4.179,2.543 -4.873,-0.913 -6.682,-5.62 -5.961,-12.605 2.933,-0.39 5.971,-0.389 8.708,-1.294 1.959,-0.648 3.516,-2.51 5.253,-3.83 -1.542,-1.524 -2.849,-3.49 -4.682,-4.467 -2.614,-1.392 -5.614,-2.059 -8.64,-3.102 7.967,-8.274 17.286,-9.849 27.643,-6.791 6.223,1.838 12.37,3.934 18.551,5.914 m -171.233,17.301 c 0.407,-0.417 0.814,-0.834 1.221,-1.251 0.533,0.315 1.15,0.543 1.588,0.959 10.99,10.438 23.423,7.968 35.143,2.594 6.423,-2.946 11.97,-8.391 17.051,-13.555 11.122,-11.304 21.67,-23.17 32.521,-34.742 1.461,-1.559 3.315,-2.75 4.987,-4.111 0.625,0.43 1.251,0.86 1.876,1.29 -1.281,2.701 -2.061,5.83 -3.936,8.023 -5.393,6.31 -11.09,12.377 -16.921,18.291 -8.579,8.702 -16.511,18.385 -26.298,25.467 -12.457,9.013 -26.956,9.823 -41.148,2.919 -2.412,-1.173 -4.075,-3.884 -6.084,-5.884 m 285.649,-110.945 c -6.259,8.525 -8.481,9.062 -14.434,7.427 -3.945,-1.083 -8.781,-1.428 -12.53,-0.124 -5.447,1.895 -10.792,3.132 -16.473,4.201 -16.756,3.152 -33.268,7.614 -49.865,11.604 -11.036,2.653 -22.072,5.31 -33.077,8.085 -7.988,2.015 -15.998,3.994 -23.86,6.436 -4.974,1.545 -9.694,3.91 -14.867,6.048 v -6.792 c 8.581,-1.903 16.901,-3.62 25.153,-5.617 6.919,-1.674 13.725,-3.817 20.642,-5.5 9.94,-2.418 20.101,-4.064 29.87,-7.02 14.779,-4.472 29.375,-9.24 44.84,-11.175 14.657,-1.834 29.159,-4.898 44.601,-7.573 m -164.776,34.032 c -0.272,-0.498 -0.544,-0.995 -0.815,-1.492 0.635,-0.295 1.247,-0.666 1.909,-0.873 14.25,-4.455 28.441,-9.109 42.777,-13.267 13.318,-3.863 26.78,-7.23 40.199,-10.737 5.522,-1.444 11.108,-3.83 16.645,-3.774 11.585,0.117 22.179,-4.268 33.317,-5.775 11.497,-1.555 23.163,-1.851 34.756,-2.697 0.086,0.933 0.172,1.866 0.258,2.799 -11.751,1.53 -23.586,2.601 -35.234,4.701 -15.448,2.785 -30.822,6.071 -46.094,9.705 -13.924,3.314 -27.665,7.393 -41.494,11.106 -3.998,1.073 -8.018,2.064 -12.035,3.067 -10.059,2.51 -20.113,5.045 -30.197,7.453 -1.243,0.296 -2.657,-0.127 -3.992,-0.216 m 2.552,-31.838 c -2.656,9.824 -6.761,19.51 -7.604,29.472 -1.153,13.627 -0.072,27.475 0.526,41.208 0.387,8.873 2.219,17.7 2.343,26.562 0.193,13.689 4.004,26.076 11.707,39.11 -2.455,-0.592 -4.966,-0.466 -5.523,-1.449 -3.764,-6.639 -8.239,-13.189 -10.32,-20.392 -2.687,-9.303 -3.901,-19.142 -4.731,-28.837 -0.773,-9.015 0.623,-18.24 -0.41,-27.203 -2.048,-17.776 0.782,-34.757 6.328,-51.464 1.305,-3.93 3.179,-7.901 7.684,-7.007 m -11.292,2.274 c 0.53,0.279 1.061,0.558 1.591,0.838 -0.277,0.972 -0.606,1.933 -0.824,2.919 -2.544,11.484 -6.862,22.92 -7.196,34.471 -0.547,18.941 1.596,37.953 2.407,56.944 0.417,9.755 2.701,18.856 7.597,27.359 2.275,3.951 4.004,8.216 5.981,12.339 -0.385,0.472 -0.77,0.944 -1.156,1.416 -2.213,-1.392 -5.132,-2.301 -6.487,-4.28 -2.525,-3.69 -4.689,-7.829 -6.027,-12.088 -3.523,-11.212 -7.483,-22.427 -9.427,-33.951 -1.574,-9.333 -0.966,-19.147 -0.415,-28.695 0.53,-9.18 1.834,-18.367 3.535,-27.413 1.442,-7.674 3.738,-15.212 6.071,-22.68 0.81,-2.593 2.864,-4.797 4.35,-7.179 m 275.89,14.577 c 2.664,-7.57 3.235,-15.076 0.239,-22.631 5.644,6.113 5.535,13.437 4.308,21.016 0.46,-0.016 0.92,-0.032 1.379,-0.047 v -19.32 c 5.587,4.247 2.783,9.792 2.568,14.752 0.571,-0.039 1.142,-0.077 1.713,-0.116 v -13.086 c 0.583,-0.024 1.167,-0.049 1.75,-0.073 4.753,8.661 0.014,18.485 3.426,27.473 v -25.089 c 0.458,-0.056 0.916,-0.111 1.374,-0.167 0.855,8.165 1.71,16.329 2.564,24.494 0.156,-0.004 0.312,-0.009 0.468,-0.013 v -22.149 c 0.599,-0.05 1.198,-0.101 1.798,-0.151 0.731,7.083 1.462,14.167 2.193,21.251 0.209,-0.015 0.417,-0.029 0.625,-0.044 v -16.881 c 6.782,7.368 4.245,25.733 -4.102,32.915 -0.428,-1.167 -0.857,-2.334 -1.383,-3.77 -1.418,3.528 -2.638,6.566 -3.859,9.603 -0.41,-0.21 -0.821,-0.42 -1.232,-0.631 0.257,-1.704 0.515,-3.408 0.773,-5.112 -0.212,-0.04 -0.424,-0.08 -0.635,-0.121 -1.452,2.606 -2.903,5.211 -4.354,7.816 -0.263,-0.147 -0.526,-0.295 -0.789,-0.443 0.783,-2.989 1.566,-5.979 2.349,-8.968 -3.548,2.658 -1.972,8.718 -7.24,9.771 1.418,-3.688 2.769,-7.2 4.12,-10.712 -0.236,-0.09 -0.473,-0.18 -0.71,-0.27 l -7.777,12.197 c -0.453,-0.289 -0.907,-0.578 -1.36,-0.867 1.662,-4.011 3.323,-8.022 4.985,-12.033 -0.446,-0.182 -0.891,-0.363 -1.337,-0.544 -2.377,4.635 -3.828,9.939 -9.354,12.439 1.499,-3.019 2.999,-6.039 4.98,-10.03 -1.804,0.876 -2.622,1.272 -3.739,1.814 4.661,-14.12 6.863,-27.646 0.598,-41.312 -0.287,-0.627 0.392,-1.696 0.621,-2.559 0.941,0.404 2.554,0.633 2.711,1.239 0.96,3.698 1.812,7.456 2.258,11.246 0.353,2.999 0.071,6.072 0.071,9.113 m -203.818,106.441 c -0.559,-3.763 -0.646,-6.938 -1.607,-9.822 -0.551,-1.653 -2.454,-3.856 -3.87,-3.949 -1.526,-0.1 -3.46,1.747 -4.706,3.186 -0.8,0.925 -0.824,2.633 -0.948,4.013 -0.784,8.74 -4.783,12.385 -14.437,12.763 4.54,-10.22 9.02,-20.307 13.5,-30.394 0.244,0.043 0.487,0.086 0.731,0.129 -0.984,5.333 -1.968,10.666 -2.996,16.239 6.346,-5.158 1.065,-13.847 4.936,-19.545 0.55,0.149 1.1,0.298 1.649,0.448 v 8.109 c 2.673,-4.436 -1.626,-10.462 6.417,-12.348 -1.282,5.224 -2.329,9.49 -3.429,13.973 0.596,0.282 1.898,1.132 2.071,0.944 1.964,-2.138 3.756,-4.434 5.599,-6.694 0.154,0.127 0.785,0.647 1.497,1.234 2.053,-4.218 4.036,-8.289 6.018,-12.36 0.661,0.248 1.322,0.496 1.982,0.744 -2.241,7.454 -4.483,14.908 -6.741,22.418 5.743,-6.083 5.81,-14.237 7.949,-21.7 1.457,-5.085 4.392,-9.746 6.666,-14.597 0.452,0.239 0.904,0.478 1.356,0.717 -1.571,5.215 -3.142,10.429 -4.713,15.644 0.514,0.184 1.028,0.368 1.543,0.552 2.317,-7.794 4.119,-15.857 10.087,-21.747 l 1.606,0.66 c -2.112,5.66 -4.223,11.32 -6.671,17.884 6.983,-6.392 6.776,-15.28 9.962,-22.48 0.553,0.209 1.106,0.418 1.66,0.627 -1.998,6.886 -3.996,13.772 -5.994,20.657 2.251,-3.076 4.099,-6.456 5.293,-10.054 1.082,-3.261 1.153,-6.859 2.254,-10.111 0.611,-1.802 2.419,-3.198 3.688,-4.777 0.656,0.41 1.312,0.82 1.968,1.229 -2.026,5.768 -4.053,11.536 -6.079,17.304 0.575,0.189 1.15,0.377 1.724,0.566 2.442,-7.021 4.883,-14.041 7.325,-21.062 0.431,0.14 0.862,0.28 1.293,0.42 -1.816,7.004 -3.632,14.007 -5.855,22.578 1.952,-3.516 3.676,-5.674 4.397,-8.128 1.309,-4.455 1.764,-9.163 3.105,-13.606 0.561,-1.857 2.473,-3.306 3.771,-4.94 0.004,2.832 -0.996,4.809 -1.455,6.905 -2.193,10.012 -2.005,20.845 -10.168,28.754 -0.047,0.045 0.312,0.51 0.614,0.988 5.978,-3.972 8.25,-9.797 8.374,-17.044 0.978,1.175 1.637,1.967 1.711,2.056 3.502,-7.86 7.009,-15.732 10.515,-23.604 0.363,0.152 0.727,0.303 1.09,0.454 -2.002,6.02 -4.004,12.039 -6.006,18.059 0.239,0.066 0.477,0.132 0.716,0.198 4.258,-9.326 8.516,-18.653 12.774,-27.979 0.603,0.252 1.206,0.503 1.809,0.755 -3.713,6.93 -5.582,14.289 -5.933,21.969 2.975,-8.379 5.95,-16.759 8.924,-25.139 0.576,0.171 1.151,0.342 1.726,0.512 -2.582,8.88 -4.163,17.805 -2.248,26.874 0.777,-5.566 0.751,-11.242 1.893,-16.671 2.723,-12.947 2.945,-12.9 7.707,-14.215 -1.722,7.853 -3.413,15.565 -5.104,23.278 4.326,-8.215 3.756,-17.82 10.134,-25.062 -0.216,3.393 -0.431,6.786 -0.647,10.179 0.375,0.024 0.75,0.048 1.125,0.072 0.832,-4.063 1.665,-8.127 2.497,-12.19 0.429,0.084 0.858,0.168 1.286,0.253 -0.6,4.037 -1.108,8.09 -1.856,12.1 -0.226,1.21 -0.844,2.62 -1.751,3.385 -4.043,3.41 -4.992,7.652 -4.51,12.728 0.27,2.848 0.554,6.672 -0.997,8.527 -3.944,4.716 -8.918,8.571 -13.597,12.879 -0.397,-0.921 -0.666,-2.385 -1.511,-3.338 -2.176,-2.455 -4.608,-4.683 -6.938,-7.001 -1.6,2.449 -3.349,4.815 -4.766,7.366 -2.509,4.515 -3.813,10.315 -7.457,13.43 -4.697,4.014 -11.2,5.915 -17.679,9.096 0,-3.256 0.361,-6.224 -0.088,-9.065 -0.615,-3.899 -3.268,-6.304 -7.282,-6.2 -3.844,0.1 -3.935,3.184 -4.038,6.138 -0.102,2.941 -0.028,6 -0.83,8.777 -0.834,2.892 -1.939,6.438 -4.136,8.055 -4.695,3.457 -10.171,5.853 -15.899,8.997 m -26.667,-53.324 c 13.42,-5.647 23.668,3.921 35.896,6.492 -3.672,4.322 -7.321,3.264 -11.02,1.996 -5.734,-1.967 -11.449,-4.129 -17.749,-2.034 5.051,0.818 10.101,1.635 15.151,2.452 -0.071,0.473 -0.141,0.946 -0.212,1.419 -3.66,1.276 -7.38,-4.585 -10.962,-0.61 5.027,1.332 9.987,2.647 14.947,3.962 -0.045,0.455 -0.089,0.909 -0.134,1.364 h -17.431 c -0.012,0.347 -0.024,0.694 -0.036,1.041 3.719,0.591 7.438,1.182 11.157,1.773 -0.127,0.636 -0.253,1.271 -0.38,1.906 -5.52,-1.043 -11.04,-2.086 -16.533,-3.124 1.195,-7.433 0.126,-8.709 -6.231,-10.284 -3.42,-0.847 -6.646,-2.477 -10.673,-4.028 4.048,-3.323 7.042,-5.99 10.248,-8.37 7.265,-5.393 14.926,-6.681 23.498,-2.755 3.025,1.386 6.93,1.985 10.148,1.393 1.955,-0.359 3.6,-3.556 4.795,-5.794 0.203,-0.379 -2.724,-3.536 -3.957,-3.386 -5.574,0.681 -8.64,-2.534 -12.217,-6.686 3.251,-1.264 6.522,-1.829 8.911,-3.589 9.557,-7.043 19.224,-8.244 29.53,-1.836 1.004,0.624 2.451,1.242 3.477,0.989 3.022,-0.743 5.935,-1.925 8.891,-2.936 -1.476,-2.686 -2.538,-5.747 -4.538,-7.959 -2.212,-2.446 -5.284,-4.114 -7.981,-6.121 0.151,-0.469 0.302,-0.939 0.453,-1.408 6.433,-1.261 12.947,-2.217 19.265,-3.905 3.423,-0.915 5.713,-0.399 8.647,1.564 2.868,1.918 6.616,2.753 10.101,3.386 1.175,0.214 3.593,-1.43 3.889,-2.614 0.374,-1.494 -0.385,-3.803 -1.482,-5.005 -1.531,-1.679 -3.828,-2.659 -6.334,-4.287 4.168,-1.931 7.61,-4.206 11.375,-5.067 3.323,-0.759 7.269,-0.708 10.46,0.385 3.49,1.196 6.214,4.546 9.684,5.908 2.3,0.902 5.324,-0.04 8.024,-0.157 -0.269,-2.919 -0.395,-5.863 -0.897,-8.741 -0.139,-0.794 -1.398,-1.392 -2.227,-2.159 10.157,-3.756 14.608,-3.972 23.916,-1.263 1.85,0.539 3.691,1.321 5.578,1.474 2.499,0.203 5.039,-0.101 7.562,-0.188 -0.155,-2.211 -0.311,-4.423 -0.521,-7.402 12.138,0.324 24.412,-0.149 36.144,4.736 -10.24,1.767 -20.515,4.982 -30.408,-2.28 -0.132,0.582 -0.265,1.164 -0.397,1.746 3.461,1.726 6.922,3.453 10.382,5.18 l -0.425,1.012 c -2.994,-1.051 -5.988,-2.102 -10.208,-3.583 1.973,1.844 2.93,2.738 3.888,3.633 l -0.429,0.863 c -2.131,-0.65 -4.261,-1.3 -6.392,-1.95 -0.133,0.237 -0.266,0.475 -0.398,0.712 1.077,0.892 2.154,1.784 3.327,2.755 -5.198,3.822 -8.677,-2.158 -13.478,-1.733 2.321,1.628 4.641,3.256 7.42,5.205 -9.234,2.563 -15.369,-4.243 -23.15,-5.664 3.232,1.971 6.464,3.941 9.695,5.912 -0.113,0.195 -0.225,0.389 -0.338,0.584 l -8.112,-2.083 c -0.153,0.385 -0.307,0.77 -0.461,1.156 3.281,1.272 6.561,2.545 9.842,3.817 -0.202,0.692 -0.403,1.384 -0.605,2.076 -4.219,-0.989 -8.439,-1.977 -14.113,-3.306 3.264,1.985 5.288,3.216 7.311,4.446 -0.06,0.322 -0.12,0.643 -0.181,0.965 -3.642,-0.888 -7.285,-1.775 -10.927,-2.663 -0.099,0.323 -0.197,0.646 -0.296,0.968 1.46,0.806 2.919,1.612 4.819,2.661 -12.09,6.038 -20.582,-1.674 -29.708,-6.382 -0.243,0.533 -0.485,1.067 -0.727,1.601 6.272,3.33 12.545,6.66 18.817,9.99 -0.156,0.412 -0.312,0.824 -0.469,1.237 -5.908,-2.083 -11.817,-4.165 -17.725,-6.248 -0.173,0.222 -0.345,0.444 -0.517,0.665 l 11.608,6.548 c -0.165,0.424 -0.33,0.847 -0.495,1.271 -4.304,-1.243 -8.607,-2.487 -13.264,-3.832 1.225,1.308 2.38,2.541 3.535,3.775 -0.149,0.363 -0.299,0.727 -0.449,1.091 -4.155,-1.171 -8.311,-2.342 -12.467,-3.513 -0.147,0.472 -0.293,0.944 -0.44,1.416 4.66,1.449 9.32,2.898 13.646,4.243 -9.288,3.911 -10.827,3.686 -20.257,-1.558 -3.154,-1.754 -6.615,-3.241 -10.12,-3.988 -2.806,-0.598 -5.89,0.11 -8.851,0.238 0.042,0.474 0.084,0.947 0.126,1.42 8.472,-1.865 13.677,1.19 26.155,9.004 -6.134,-1.055 -11.109,-1.912 -16.085,-2.768 -0.086,0.4 -0.172,0.8 -0.258,1.2 5.19,1.169 10.379,2.338 15.914,3.584 -6.483,5.438 -12.804,1.443 -19.296,1.181 2.749,1.123 5.499,2.246 8.249,3.369 -0.049,0.42 -0.097,0.84 -0.146,1.261 -3.826,-0.561 -7.652,-1.122 -11.479,-1.683 -0.062,0.374 -0.123,0.747 -0.185,1.121 3.4,0.727 6.801,1.454 11.031,2.358 -7.756,3.902 -14.089,-1.585 -20.73,-1.558 -0.081,0.457 -0.162,0.915 -0.244,1.373 5.107,1.112 10.213,2.223 15.677,3.413 -2.53,3.064 -5.361,4.154 -9.123,2.853 -6.244,-2.159 -12.434,-4.573 -18.822,-6.18 -4.773,-1.202 -9.823,-1.303 -15.231,-1.951 11.707,3.326 22.715,6.453 33.723,9.581 -0.18,0.874 -0.36,1.749 -0.541,2.623 -2.018,-0.269 -4.414,0.064 -5.982,-0.922 -4.189,-2.632 -8.415,-2.91 -14.36,-2.033 5.935,1.588 10.503,2.81 15.071,4.032 -0.297,0.894 -0.593,1.789 -0.889,2.684 -2.528,-1.141 -4.961,-2.762 -7.611,-3.29 -2.723,-0.543 -5.658,-0.019 -9.796,0.065 5.641,1.493 9.701,2.567 13.761,3.641 -0.126,0.517 -0.252,1.034 -0.378,1.55 -4.337,-0.518 -8.674,-1.036 -13.011,-1.553 -0.044,0.408 -0.088,0.817 -0.132,1.226 3.316,0.729 6.631,1.458 9.947,2.187 -7.138,4.19 -13.499,0.05 -20.064,-1.494 -0.124,0.485 -0.248,0.969 -0.371,1.453 4.571,1.447 9.143,2.893 13.783,4.361 -5.429,3.52 -10.323,-1.099 -15.683,-0.444 3.22,1.252 6.441,2.504 10.748,4.179 -2.045,0.461 -3.069,1.036 -3.887,0.821 -5.991,-1.571 -12.179,-2.735 -17.843,-5.122 -7.239,-3.052 -13.918,-2.152 -20.753,0.943 m -103.697,13.917 c -6.051,5.7 -12.486,11.05 -18.067,17.178 -9.816,10.778 -14.791,8.624 -23.706,4.208 -8.425,-4.173 -11.87,-15.378 -7.723,-23.811 4.143,-8.422 12.472,-11.843 19.661,-16.505 2.591,-1.68 6.312,-2.559 9.415,-2.344 13.184,0.914 25.655,-2.521 37.763,-6.613 8.192,-2.769 15.56,-7.979 24.774,-12.883 -2.779,3.139 -4.698,5.5 -6.828,7.653 -2.005,2.028 -4.232,3.836 -6.362,5.74 3.36,-1.918 6.721,-3.836 10.081,-5.754 0.465,0.386 0.93,0.773 1.395,1.16 -1.02,1.904 -1.676,4.163 -3.121,5.656 -9.073,9.373 -18.331,18.566 -27.511,27.836 -6.865,6.932 -13.323,14.326 -20.646,20.733 -11.133,9.739 -26.949,9.864 -38.614,1.129 -5.954,-4.459 -9.086,-18.005 -6.108,-25.314 7.819,-19.187 25.046,-26.311 42.48,-24.442 13.226,1.417 24.18,-3.417 35.075,-9.14 6.629,-3.481 12.712,-8.001 19.639,-12.437 -0.109,1.634 -0.06,2.333 -0.23,2.975 -0.123,0.469 -0.457,0.949 -0.828,1.276 -15.638,13.802 -34.229,20.298 -54.749,20.141 -14.315,-0.11 -24.369,6.704 -33.928,15.962 -7.731,7.489 -5.233,20.274 0.505,27.058 5.631,6.656 18.812,9.458 25.51,3.837 8.152,-6.84 14.815,-15.453 22.123,-23.299 m 76.934,44.884 c 1.513,-2.554 2.99,-5.131 4.551,-7.654 1.04,-1.682 2.202,-3.288 3.309,-4.927 0.46,0.34 0.92,0.681 1.38,1.022 -0.607,2.039 -1.214,4.078 -1.821,6.117 0.349,0.136 0.699,0.272 1.049,0.409 l 4.862,-9.82 c 0.177,0.053 0.354,0.105 0.532,0.158 -0.448,2.864 -0.896,5.727 -1.344,8.591 0.32,0.014 0.64,0.028 0.96,0.042 1.115,-3.571 2.23,-7.141 3.344,-10.711 0.583,0.213 1.166,0.426 1.749,0.639 -0.321,1.825 -0.642,3.65 -1.157,6.579 3.74,-4.162 2.951,-10.173 8.414,-12.303 -1.772,4.054 -3.267,7.476 -4.762,10.897 0.338,0.149 0.675,0.297 1.013,0.445 2.634,-4.812 5.268,-9.624 8.274,-15.116 2.687,7.258 -6.493,11.147 -3.603,17.904 1.977,-4.325 3.666,-8.037 5.371,-11.742 1.553,-3.373 -0.674,-8.97 7.085,-9.62 -5.199,11.403 -10.122,22.202 -15.045,33.001 -0.505,-0.182 -1.01,-0.364 -1.514,-0.547 0,-1.898 0.362,-3.898 -0.135,-5.656 -0.304,-1.076 -2.256,-2.717 -2.905,-2.491 -3.432,1.197 -7.243,2.269 -9.88,4.576 -4.944,4.326 -5.676,4.698 -9.687,0.11 -0.879,-2.047 -1.758,-4.094 -2.745,-6.393 1.807,-0.951 3.418,-1.798 6.45,-3.394 -1.604,4.233 -2.674,7.058 -3.745,9.884 m 207.429,-95.021 c -3.531,0.402 -7.063,0.803 -10.877,1.237 -0.073,-1.355 -0.378,-2.445 -0.122,-3.381 0.365,-1.336 1.141,-2.559 1.742,-3.831 1.06,0.892 2.034,1.924 3.199,2.646 1.959,1.213 4.04,2.23 6.069,3.33 0.839,-1.225 1.411,-3.079 2.564,-3.57 6.207,-2.643 12.422,-5.45 18.903,-7.216 5.632,-1.535 11.605,-2.006 17.464,-2.403 1.569,-0.106 3.272,1.781 4.914,2.753 -1.546,0.846 -3.004,2.08 -4.657,2.453 -3.023,0.682 -6.188,0.712 -9.247,1.271 -6.94,1.268 -13.868,2.61 -20.766,4.09 -3.105,0.667 -6.125,1.734 -9.186,2.621 m 140.334,9.918 c 0.884,2.853 1.768,5.705 2.652,8.558 -0.823,0.39 -1.646,0.781 -2.469,1.171 -2.868,-4.461 -5.736,-8.922 -8.604,-13.383 -0.504,-0.415 -1.008,-0.83 -1.512,-1.245 -4.054,-2.465 -7.069,-5.445 -5.532,-11.323 9.763,1.532 12.081,9.596 15.683,16.408 z m -20.857,-6.348 c 6.226,6.636 12.453,13.271 18.679,19.906 -8.133,-4.919 -15.283,-10.724 -19.065,-19.565 -4.462,-9.394 -1.436,-17.031 8.162,-16.341 -7.771,1.47 -8.575,5.935 -7.885,11.29 0.2,1.549 0.082,3.139 0.109,4.71 m -308.479,92.95 c 1.279,7.907 1.632,8.004 7.432,4.977 2.445,-1.276 5.085,-2.234 7.721,-3.074 5.04,-1.606 9.086,-4.261 11.504,-9.192 0.495,-1.01 2.016,-1.518 3.064,-2.257 0.665,1.015 1.755,1.967 1.913,3.055 0.402,2.772 1.576,3.987 4.193,2.556 5.953,-3.254 11.918,-6.508 17.662,-10.109 1.633,-1.023 2.493,-3.257 3.757,-4.897 1.732,-2.248 3.513,-4.459 6.097,-7.728 1.079,3.06 1.171,4.733 2.042,5.423 1.01,0.799 3.05,1.428 4.044,0.931 5.438,-2.717 10.779,-5.662 15.967,-8.833 1.964,-1.201 3.396,-3.253 5.132,-4.851 3.418,-3.146 6.88,-6.247 10.382,-9.419 3.281,4.91 6.53,4.938 10.309,0.725 4.033,-4.496 8.054,-9.011 12.287,-13.314 1.148,-1.166 3.068,-2.293 4.595,-2.243 7.498,0.246 12.434,-5.447 18.814,-7.662 12.986,-4.511 25.9,-9.336 39.127,-13.01 8.692,-2.415 17.854,-3.271 26.865,-4.315 2.327,-0.269 4.88,1.373 7.322,2.162 1.772,0.572 3.586,1.821 5.287,1.675 9.521,-0.822 18.992,-2.32 28.522,-2.922 9.529,-0.603 18.995,-0.542 28.446,2.229 19.102,5.6 37.591,12.365 54.281,24.191 4.947,-4.506 2.98,-10.339 2.687,-15.327 -0.66,-11.28 -4.024,-21.84 -10.875,-31.127 -3.614,-4.899 -7.86,-8.038 -14,-9.758 -9.129,-2.56 -17.761,-6.841 -26.773,-9.891 -4.199,-1.421 -8.798,-2.31 -13.207,-2.279 -4.769,0.033 -8.351,-1.336 -11.582,-4.702 -6.809,-7.091 -15.921,-9.227 -25.099,-9.917 -3.472,-0.262 -7.195,2.823 -12.578,5.149 -5.616,-0.827 -13.496,-2.698 -21.436,-3.003 -14.282,-0.548 -28.609,0.138 -42.901,-0.25 -11.493,-0.311 -22.969,-2.145 -34.444,-2.06 -19.565,0.145 -39.134,1.056 -58.679,2.072 -8.673,0.451 -17.277,2.114 -25.942,2.894 -4.622,0.416 -9.317,-0.049 -13.964,0.178 -13.778,0.672 -27.545,1.571 -41.325,2.153 -1.811,0.076 -3.68,-1.172 -5.517,-1.819 -1.277,-0.45 -2.596,-1.426 -3.809,-1.304 -7.762,0.776 -15.597,1.046 -21.266,8.069 -1.627,2.015 -5.38,2.467 -8.258,3.288 -7.12,2.031 -14.438,3.453 -21.424,5.855 -17.09,5.876 -33.937,12.469 -51.077,18.187 -11.352,3.786 -19.236,10.644 -23.888,21.654 -4.011,9.494 -8.289,19.117 -8.011,29.441 0.327,12.125 0.105,24.793 6.441,35.71 2.237,3.854 6.852,7.338 11.13,8.798 10.478,3.576 18.002,11.23 26.819,17.099 2.279,1.518 5.44,2.337 8.214,2.381 13.671,0.214 27.389,-0.585 41.01,0.266 8.847,0.553 16.977,0.301 24.523,-4.732 0.708,-0.473 1.995,-0.423 2.907,-0.193 8.285,2.089 15.37,0.963 22.038,-5.276 3.226,-3.019 8.624,-3.715 13.521,-5.654"
       style="fill:#231f20;fill-opacity:1;fill-rule:nonzero;stroke:none"
       id="path24" /><path
       inkscape:connector-curvature="0"
       d="m 512.2327,609.9263 c -0.409,0.496 -0.817,0.991 -1.226,1.487 -4.883,-1.729 -6.348,-6.746 -8.73,-10.901 3.319,3.138 6.637,6.276 9.956,9.414 m -41.014,-12.072 c 0.361,-0.405 0.723,-0.811 1.084,-1.216 5.233,5.002 10.466,10.004 15.699,15.006 -0.414,0.435 -0.829,0.87 -1.243,1.305 -5.18,-5.032 -10.36,-10.063 -15.54,-15.095 m -82.188,-62.409 c 4.103,3.723 7.747,6.979 6.409,13.534 -3.596,-4.059 -8.741,-6.453 -6.409,-13.534 m 17.356,29.197 c -0.247,-0.73 -0.495,-1.459 -0.742,-2.189 2.771,-1.617 5.455,-3.425 8.361,-4.744 0.951,-0.431 2.479,0.408 3.743,0.666 -0.504,1.341 -0.693,3.546 -1.57,3.867 -3.138,1.145 -6.509,1.652 -9.792,2.4 m -1.966,-3.422 c -0.163,-7.628 3.266,-10.829 10.65,-10.607 -0.773,6.259 -6.881,6.644 -10.65,10.607 m -8.524,-3.795 c -4.027,-2.938 -8.054,-5.875 -12.776,-9.32 7.313,-3.184 10.25,-1.046 12.776,9.32 m 4.16,6.049 c -6.43,1.775 -10.63,-1.242 -14.837,-5.008 5.784,-3.094 12.399,-0.979 14.837,5.008 m 89.304,17.981 c 8.931,8.518 17.862,17.036 26.783,25.545 -3.559,2.139 -19.626,-12.145 -26.783,-25.545 m -109.607,-3.455 c -3.726,7.822 -6.54,14.501 -14.346,17.301 1.929,-5.311 4.112,-10.52 7.089,-15.228 0.846,-1.339 4,-1.219 7.257,-2.073 m 102.575,-6.403 c -13.032,-9.849 -16.817,-25.316 -23.938,-38.966 2.016,0.499 3.648,1.487 4.354,2.928 3.342,6.821 6.135,13.925 9.704,20.618 2.862,5.37 6.556,10.297 9.88,15.42 m -112.786,7.509 c -3.621,10.42 -9.587,14.43 -18.46,12.736 4.522,-9.09 10.784,-13.502 18.46,-12.736 m 60.112,-56.468 c 2.134,-1.857 3.147,-3.171 4.483,-3.831 8.836,-4.366 18.21,-6.191 27.794,-3.627 2.982,0.798 5.911,3.658 7.77,6.335 2.471,3.558 0.202,8.244 -4.108,8.733 -4.67,0.53 -9.448,0.12 -14.179,0.12 3.553,-1.45 7.267,-1.588 10.546,-2.854 2.11,-0.815 3.58,-3.288 5.336,-5.017 -1.98,-1.674 -3.7,-4.117 -5.985,-4.889 -9.522,-3.216 -18.175,-0.949 -25.921,5.266 1.333,1.088 2.651,2.165 3.97,3.242 -0.272,0.38 -0.545,0.76 -0.817,1.14 -2.649,-1.377 -5.298,-2.753 -8.889,-4.618 m -67.445,37.704 c 10.08,-1.719 20.264,7.456 18.241,16.1 -7.531,0.625 -16.288,-6.946 -18.241,-16.1 m 47.66,-19.446 c 0.78,0.649 1.559,1.298 2.339,1.947 -3.734,5.308 -7.467,10.616 -11.067,15.734 -6.315,-9.957 -3.886,-27.078 4.459,-29.266 5.1,8.935 -6.165,13.556 -6.21,20.485 3.441,-2.922 6.96,-5.911 10.479,-8.9 m 22.944,5.52 c 2.588,2.707 4.502,4.463 6.126,6.457 3.72,4.567 2.982,8.506 -2.456,9.934 -18.174,4.771 -29.423,20.18 -45.059,28.793 -2.409,1.327 -4.731,2.814 -7.093,4.227 -0.25,-0.402 -0.5,-0.805 -0.751,-1.208 3.394,-2.353 6.828,-4.65 10.173,-7.07 10.653,-7.706 20.971,-15.922 31.993,-23.053 9.885,-6.395 10.22,-5.877 7.067,-18.08 m 85.717,59.154 c -25.384,-18.009 -50.879,-53.505 -54.252,-72.781 0.479,-0.124 1.343,-0.443 1.394,-0.345 13.737,26.745 28.272,52.867 53.828,70.611 0.224,0.155 0.106,0.942 -0.008,1.395 -0.075,0.297 -0.431,0.524 -0.962,1.12 m -113.745,0.998 c 10.304,-6.262 21.059,-12.879 31.898,-19.357 8.693,-5.194 26.681,-1.267 32.18,6.911 -0.658,-0.238 -1.147,-0.318 -1.526,-0.565 -14.74,-9.651 -28.273,-5.196 -41.057,3.955 -7.148,5.117 -13.706,11.057 -20.774,16.824 -0.213,-2.297 -0.402,-4.324 -0.721,-7.768 m 67.78,-78.177 c 0.33,11.561 7.561,19.876 12.81,28.903 5.328,9.163 11.891,17.607 18.092,26.626 0.934,-2.59 1.754,-4.865 2.986,-8.285 0.6,1.802 0.975,2.389 0.96,2.965 -0.208,8.123 2.874,14.092 10.67,17.412 1.163,0.495 1.622,2.642 2.407,4.025 -2.239,-0.036 -3.565,-0.581 -4.496,-1.518 -5.637,-5.673 -11.197,-11.424 -16.759,-17.172 -12.639,-13.058 -21.561,-28.49 -28.987,-44.934 -1.529,-3.385 -1.593,-5.788 2.317,-8.022 m -68.39,87.927 c -3.392,0.21 -7.289,1.669 -9.517,0.337 -4.867,-2.91 -9.266,-6.89 -13.138,-11.094 -3.391,-3.682 -2.333,-6.543 2.411,-8.153 1.843,-0.626 4.341,-0.982 5.99,-0.238 7.841,3.539 13.107,9.289 14.254,19.148 m 1.317,-30.137 c -4.593,2.903 -7.805,7.995 -13.696,8.831 3.791,-4.249 7.9,-7.993 13.863,-8.725 -0.007,-0.62 -0.283,-1.564 0.018,-1.814 9.705,-8.076 18.841,-17.037 31.906,-19.773 4.763,-0.998 6.119,-4.316 4.866,-8.898 -0.313,-1.146 -0.26,-2.392 -0.377,-3.591 -7.636,-4.675 -13.945,-18.641 -11.782,-28.096 4.166,10.057 7.924,19.127 11.681,28.197 1.81,3.46 3.62,6.921 5.167,9.88 -0.265,0.689 0.03,0.139 0.159,-0.447 1.282,-5.819 -2.258,-9.824 -5.275,-14.051 -4.336,-6.077 -6.754,-14.082 -6.071,-18.185 5.266,11.003 10.902,22.777 16.831,35.163 -0.448,-13.31 -12.074,-21.706 -13.741,-34.565 4.534,0.593 8.698,0.776 12.639,1.807 1.951,0.511 4.298,2.223 5.096,4.006 8.477,18.925 20.339,35.594 33.177,51.735 6.413,8.062 11.838,16.91 17.71,25.402 -0.215,0.214 -0.431,0.427 -0.646,0.64 -7.179,-7.632 -14.358,-15.264 -21.536,-22.896 -0.352,0.304 -0.703,0.607 -1.054,0.91 6.773,7.624 13.547,15.247 20.32,22.87 l -1.199,1.459 c -1.854,-1.279 -3.934,-2.326 -5.527,-3.875 -8.459,-8.227 -16.617,-16.773 -25.272,-24.785 -3.073,-2.845 -7.252,-4.496 -10.925,-6.691 -0.286,0.503 -0.571,1.006 -0.857,1.509 3.235,1.822 7.083,3.036 9.596,5.573 9.866,9.962 19.311,20.34 28.912,30.564 -1.02,-1.051 -3.115,-1.485 -4.451,-2.732 -8.144,-7.601 -16.178,-15.321 -24.125,-23.127 -9.08,-8.918 -25.25,-12.768 -36.674,-6.155 -10.507,6.081 -20.694,12.714 -31.213,19.223 -8.544,-9.037 -8.586,-9.099 2.157,-16.315 3.574,-2.4 8.081,-3.747 10.998,-6.717 5.38,-5.477 11.29,-9.654 18.602,-11.919 1.778,-0.55 3.483,-1.341 5.222,-2.022 -0.303,-0.666 -0.605,-1.333 -0.907,-1.999 -5.041,2.378 -10.304,4.385 -15.068,7.226 -6.366,3.797 -12.346,8.242 -18.524,12.383 m 56.569,-61.197 0.182,-0.178 c -6.892,3.538 -18.398,2.586 -22.823,-1.888 7.761,-6.304 20.166,-6.602 26.52,-0.086 -1.402,0.778 -2.641,1.465 -3.879,2.152 m -102.664,55.346 c -1.434,-0.851 -2.783,-1.93 -4.321,-2.503 -3.176,-1.183 -6.452,-2.095 -10.634,-3.418 5.555,-3.878 9.372,-5.025 12.928,0.356 1.017,1.538 3.453,2.139 5.237,3.169 -3.521,-3.954 -7.043,-7.908 -10.877,-12.214 11.288,-4.204 13.103,6.023 19.077,10.43 -3.284,0.665 -5.827,1.18 -8.413,1.662 -0.998,0.836 -1.996,1.671 -2.994,2.506 -1.626,1.154 -3.339,2.203 -4.858,3.483 -3.852,3.246 -9.871,3.615 -14.287,0.75 5.649,-6.229 7.648,-6.67 19.142,-4.221 m 47.765,-7.013 c -7.072,8.336 -15.81,0.692 -24.113,4.319 1.487,-10.527 -6.272,-13.674 -11.882,-18.164 -4.051,-3.242 -7.589,-2.071 -11.15,2.363 -0.599,0.746 -2.04,1.06 -3.12,1.127 -2.548,0.16 -5.113,0.052 -8.435,0.052 1.191,2.353 1.943,3.839 2.934,5.798 -2.658,1.16 -5.262,2.295 -8.579,3.742 1.107,1.741 2.058,3.238 3.13,4.924 -3.11,2.276 -6.427,4.704 -11.108,8.13 5.829,1.303 10.344,2.312 15.313,3.423 -0.962,1.29 -2.188,2.934 -4.42,5.927 6.872,-1.192 12.327,-2.139 18.173,-3.153 -0.47,2.394 -0.971,4.95 -1.565,7.973 6.766,-2.213 11.407,-6.227 14.43,-11.917 5.159,-9.713 10.087,-11.732 22.963,-7.794 -5.844,4.48 -10.991,8.381 -16.087,12.346 -3.025,2.354 -6.592,4.564 -5.54,9.227 0.475,2.102 1.274,4.449 2.698,5.955 3.231,3.417 6.819,6.533 10.49,9.489 3.633,2.924 12.461,1.786 16.522,-1.689 7.159,-6.126 13.917,-12.872 21.696,-18.086 13.227,-8.865 29.235,-11.868 42.192,3.122 4.885,5.652 10.098,11.065 15.558,16.163 5.846,5.457 11.295,5.462 17.899,0.879 4.583,-3.181 9.401,-6.062 13.746,-9.537 5.07,-4.054 4.406,-10.927 -0.975,-14.321 -4.95,-3.121 -8.39,-7.14 -8.62,-13.415 -0.092,-2.501 -1.016,-4.972 -1.848,-8.76 -2.047,2.675 -3.41,4.457 -4.585,5.992 -10.72,-8.472 -15.64,-20.749 -22.259,-31.901 -3.297,-5.554 -5.455,-11.145 -6.366,-17.708 -1.465,-10.564 -8.456,-15.757 -19.468,-15.507 -8.173,0.185 -16.492,1.013 -23.187,6.299 -2.1,1.659 -3.647,5.041 -3.93,7.79 -0.928,9.016 1.402,17.693 5.088,25.796 1.992,4.376 0.718,6.417 -2.899,8.348 -5.525,2.95 -11.029,5.948 -16.465,9.059 -4.592,2.628 -5.084,2.503 -7.359,-2.868 3.453,-0.789 7.08,-1.15 10.314,-2.472 4.301,-1.759 4.209,-4.898 1.499,-8.578 -1.444,-1.96 -1.098,-5.238 -1.595,-8.123 -0.899,0.099 -1.959,0.214 -2.956,0.323 v -8.757 c -1.894,0.375 -3.372,0.668 -4.673,0.926 -0.345,-4.765 -0.675,-9.316 -1.013,-13.99 -8.258,1.771 -11.173,6.643 -10.662,14.476 -1.597,-1.604 -2.65,-2.902 -3.939,-3.894 -1.404,-1.081 -3.027,-1.879 -4.555,-2.801 -0.619,2.062 -1.402,4.094 -1.78,6.199 -0.166,0.919 0.498,1.988 0.915,3.442 -2.063,1.126 -4.14,2.261 -6.602,3.605 2.316,2.638 4.542,5.175 7.001,7.976 -2.361,0.724 -4.688,1.437 -8.077,2.476 6.568,4.492 11.746,9.325 19.697,8.49 1.225,-0.128 2.844,1.214 3.892,2.264 1.338,1.341 2.282,3.076 3.662,5.015"
       style="fill:#231f20;fill-opacity:1;fill-rule:nonzero;stroke:none"
       id="path28" /><path
       inkscape:connector-curvature="0"
       d="m 336.6965,487.9707 c 6.835,-3.095 13.514,-3.995 20.753,-0.943 5.664,2.387 11.852,3.551 17.843,5.122 0.818,0.215 1.842,-0.36 3.887,-0.821 -4.307,-1.675 -7.528,-2.927 -10.748,-4.179 5.36,-0.655 10.254,3.964 15.683,0.444 -4.64,-1.468 -9.212,-2.915 -13.783,-4.361 0.123,-0.484 0.247,-0.969 0.371,-1.453 6.565,1.544 12.926,5.684 20.064,1.494 -3.316,-0.729 -6.631,-1.458 -9.947,-2.187 0.044,-0.409 0.088,-0.818 0.132,-1.227 4.337,0.518 8.674,1.036 13.011,1.554 0.126,-0.517 0.252,-1.033 0.378,-1.55 -4.06,-1.074 -8.12,-2.149 -13.761,-3.642 4.138,-0.083 7.073,-0.607 9.796,-0.064 2.65,0.528 5.083,2.149 7.611,3.289 0.296,-0.894 0.592,-1.789 0.889,-2.684 -4.568,-1.221 -9.136,-2.443 -15.071,-4.031 5.945,-0.877 10.171,-0.599 14.36,2.033 1.568,0.985 3.964,0.653 5.982,0.922 0.18,-0.875 0.361,-1.749 0.541,-2.624 -11.008,-3.127 -22.016,-6.254 -33.723,-9.58 5.408,0.648 10.458,0.749 15.231,1.95 6.388,1.608 12.578,4.022 18.822,6.181 3.762,1.3 6.593,0.211 9.123,-2.853 -5.464,-1.19 -10.57,-2.302 -15.677,-3.413 0.082,-0.458 0.163,-0.916 0.244,-1.373 6.641,-0.027 12.974,5.46 20.73,1.558 -4.23,-0.904 -7.631,-1.631 -11.031,-2.358 0.062,-0.374 0.123,-0.747 0.185,-1.121 3.827,0.561 7.653,1.122 11.479,1.682 0.049,-0.42 0.097,-0.84 0.146,-1.26 -2.75,-1.123 -5.5,-2.247 -8.249,-3.37 6.492,0.263 12.813,4.258 19.296,-1.18 -5.535,-1.246 -10.725,-2.415 -15.914,-3.584 0.086,-0.4 0.172,-0.8 0.258,-1.2 4.976,0.856 9.951,1.713 16.085,2.768 -12.478,-7.815 -17.683,-10.869 -26.155,-9.004 -0.042,-0.473 -0.084,-0.947 -0.126,-1.42 2.961,-0.128 6.045,-0.836 8.851,-0.238 3.505,0.746 6.966,2.233 10.12,3.987 9.43,5.245 10.969,5.47 20.257,1.559 -4.326,-1.345 -8.986,-2.794 -13.646,-4.243 0.147,-0.472 0.293,-0.944 0.44,-1.416 4.156,1.171 8.312,2.342 12.467,3.512 0.15,-0.363 0.3,-0.727 0.449,-1.09 -1.155,-1.234 -2.31,-2.467 -3.535,-3.776 4.657,1.346 8.96,2.589 13.264,3.833 0.165,-0.424 0.33,-0.847 0.495,-1.271 l -11.608,-6.548 c 0.172,-0.222 0.344,-0.443 0.517,-0.665 5.908,2.082 11.817,4.165 17.725,6.247 0.157,-0.412 0.313,-0.824 0.469,-1.236 -6.272,-3.33 -12.545,-6.66 -18.817,-9.99 0.242,-0.534 0.484,-1.068 0.727,-1.601 9.126,4.708 17.618,12.42 29.708,6.382 -1.9,-1.049 -3.359,-1.855 -4.819,-2.661 0.099,-0.322 0.197,-0.645 0.296,-0.968 3.642,0.888 7.285,1.775 10.927,2.663 0.061,-0.322 0.121,-0.644 0.181,-0.965 -2.023,-1.231 -4.047,-2.461 -7.311,-4.446 5.674,1.329 9.894,2.317 14.113,3.305 0.202,-0.691 0.403,-1.383 0.605,-2.075 -3.281,-1.272 -6.561,-2.545 -9.842,-3.817 0.154,-0.386 0.308,-0.771 0.461,-1.156 l 8.112,2.083 c 0.113,-0.195 0.225,-0.39 0.338,-0.585 -3.232,-1.97 -6.463,-3.941 -9.695,-5.911 7.781,1.421 13.916,8.227 23.15,5.664 -2.779,-1.949 -5.099,-3.577 -7.42,-5.205 4.801,-0.425 8.28,5.555 13.478,1.733 -1.173,-0.971 -2.25,-1.863 -3.327,-2.755 0.132,-0.238 0.265,-0.475 0.398,-0.712 2.131,0.65 4.261,1.3 6.392,1.95 l 0.429,-0.863 c -0.958,-0.895 -1.915,-1.789 -3.888,-3.633 4.22,1.481 7.214,2.531 10.208,3.582 l 0.425,-1.011 c -3.46,-1.727 -6.921,-3.454 -10.382,-5.18 0.132,-0.583 0.265,-1.165 0.397,-1.747 9.893,7.263 20.168,4.048 30.408,2.281 -11.732,-4.885 -24.006,-4.412 -36.144,-4.736 0.21,2.979 0.365,5.191 0.521,7.402 -2.523,0.086 -5.063,0.391 -7.562,0.188 -1.887,-0.154 -3.728,-0.935 -5.578,-1.474 -9.308,-2.709 -13.759,-2.493 -23.916,1.263 0.829,0.766 2.088,1.365 2.227,2.158 0.502,2.879 0.628,5.823 0.897,8.742 -2.7,0.117 -5.724,1.059 -8.024,0.157 -3.47,-1.362 -6.194,-4.712 -9.684,-5.908 -3.191,-1.093 -7.137,-1.144 -10.46,-0.385 -3.765,0.861 -7.207,3.136 -11.375,5.067 2.506,1.628 4.803,2.608 6.334,4.287 1.097,1.202 1.856,3.511 1.482,5.005 -0.296,1.184 -2.714,2.828 -3.889,2.614 -3.485,-0.633 -7.233,-1.468 -10.101,-3.386 -2.934,-1.963 -5.224,-2.479 -8.647,-1.564 -6.318,1.688 -12.832,2.644 -19.265,3.905 -0.151,0.469 -0.302,0.939 -0.453,1.408 2.697,2.007 5.769,3.675 7.981,6.121 2,2.212 3.062,5.272 4.538,7.959 -2.956,1.01 -5.869,2.193 -8.891,2.936 -1.026,0.252 -2.473,-0.366 -3.477,-0.99 -10.306,-6.407 -19.973,-5.207 -29.53,1.836 -2.389,1.761 -5.66,2.326 -8.911,3.59 3.577,4.152 6.643,7.367 12.217,6.686 1.233,-0.151 4.16,3.007 3.957,3.386 -1.195,2.237 -2.84,5.435 -4.795,5.794 -3.218,0.591 -7.123,-0.007 -10.148,-1.393 -8.572,-3.926 -16.233,-2.639 -23.498,2.755 -3.206,2.38 -6.2,5.047 -10.248,8.37 4.026,1.551 7.253,3.181 10.673,4.028 6.357,1.575 7.426,2.851 6.231,10.284 5.493,1.038 11.013,2.081 16.533,3.124 0.127,-0.635 0.253,-1.271 0.38,-1.906 -3.719,-0.591 -7.438,-1.182 -11.157,-1.773 0.012,-0.347 0.024,-0.694 0.036,-1.041 h 17.431 c 0.045,-0.455 0.089,-0.91 0.134,-1.364 -4.96,-1.315 -9.92,-2.63 -14.947,-3.962 3.582,-3.975 7.302,1.885 10.962,0.61 0.071,-0.473 0.141,-0.946 0.212,-1.419 -5.05,-0.817 -10.1,-1.634 -15.151,-2.452 6.3,-2.095 12.015,0.067 17.749,2.034 3.699,1.268 7.348,2.326 11.02,-1.996 -12.228,-2.571 -22.477,-12.14 -35.896,-6.492"
       style="fill:#ffffff;fill-opacity:1;fill-rule:nonzero;stroke:none"
       id="path32" /><path
       inkscape:connector-curvature="0"
       d="m 363.3639,541.2943 c 5.727,-3.144 11.204,-5.54 15.899,-8.997 2.196,-1.617 3.301,-5.163 4.136,-8.055 0.801,-2.777 0.727,-5.835 0.83,-8.777 0.102,-2.954 0.193,-6.037 4.038,-6.137 4.014,-0.105 6.667,2.3 7.282,6.199 0.448,2.841 0.088,5.809 0.088,9.065 6.478,-3.181 12.981,-5.082 17.678,-9.096 3.644,-3.114 4.948,-8.915 7.457,-13.43 1.417,-2.551 3.167,-4.917 4.767,-7.366 2.329,2.319 4.761,4.547 6.938,7.001 0.845,0.953 1.113,2.417 1.51,3.338 4.68,-4.308 9.653,-8.163 13.597,-12.879 1.552,-1.855 1.268,-5.678 0.997,-8.527 -0.481,-5.076 0.467,-9.317 4.511,-12.728 0.906,-0.765 1.525,-2.174 1.751,-3.385 0.748,-4.009 1.256,-8.063 1.856,-12.1 -0.429,-0.084 -0.857,-0.169 -1.286,-0.253 -0.833,4.063 -1.665,8.127 -2.497,12.191 -0.375,-0.025 -0.75,-0.049 -1.125,-0.073 0.215,-3.393 0.431,-6.786 0.646,-10.178 -6.377,7.241 -5.807,16.846 -10.133,25.062 1.691,-7.713 3.382,-15.426 5.103,-23.278 -4.761,1.314 -4.984,1.268 -7.707,14.214 -1.141,5.43 -1.115,11.105 -1.893,16.672 -1.915,-9.069 -0.333,-17.995 2.248,-26.874 -0.575,-0.171 -1.15,-0.342 -1.725,-0.512 -2.975,8.379 -5.95,16.759 -8.924,25.139 0.351,-7.681 2.22,-15.04 5.933,-21.97 -0.603,-0.251 -1.206,-0.503 -1.809,-0.754 -4.259,9.326 -8.517,18.652 -12.775,27.978 -0.238,-0.066 -0.477,-0.132 -0.715,-0.198 2.002,-6.019 4.003,-12.039 6.005,-18.058 -0.363,-0.152 -0.726,-0.303 -1.089,-0.454 -3.507,7.872 -7.014,15.744 -10.515,23.603 -0.074,-0.089 -0.734,-0.881 -1.712,-2.056 -0.123,7.247 -2.396,13.073 -8.374,17.045 -0.301,-0.479 -0.661,-0.943 -0.614,-0.989 8.163,-7.909 7.975,-18.741 10.168,-28.753 0.459,-2.096 1.46,-4.074 1.455,-6.906 -1.297,1.635 -3.21,3.083 -3.77,4.94 -1.341,4.443 -1.797,9.151 -3.106,13.607 -0.721,2.453 -2.445,4.611 -4.396,8.127 2.222,-8.57 4.038,-15.574 5.854,-22.578 -0.431,-0.14 -0.862,-0.28 -1.293,-0.42 -2.441,7.021 -4.883,14.041 -7.324,21.062 -0.575,-0.189 -1.15,-0.377 -1.724,-0.565 2.026,-5.768 4.052,-11.536 6.078,-17.304 -0.656,-0.41 -1.312,-0.82 -1.968,-1.229 -1.268,1.579 -3.077,2.974 -3.687,4.776 -1.102,3.252 -1.172,6.851 -2.255,10.111 -1.194,3.598 -3.042,6.978 -5.292,10.055 1.998,-6.886 3.995,-13.772 5.993,-20.658 -0.553,-0.209 -1.106,-0.417 -1.66,-0.626 -3.185,7.2 -2.979,16.087 -9.962,22.479 2.449,-6.564 4.56,-12.224 6.671,-17.883 l -1.606,-0.661 c -5.968,5.891 -7.769,13.953 -10.087,21.747 -0.514,-0.184 -1.028,-0.368 -1.543,-0.552 1.571,-5.214 3.142,-10.429 4.713,-15.644 -0.452,-0.239 -0.903,-0.478 -1.355,-0.716 -2.274,4.85 -5.209,9.511 -6.666,14.596 -2.139,7.463 -2.207,15.617 -7.949,21.7 2.258,-7.51 4.5,-14.964 6.741,-22.418 -0.661,-0.248 -1.322,-0.496 -1.982,-0.744 -1.983,4.071 -3.965,8.142 -6.019,12.36 -0.711,-0.586 -1.343,-1.107 -1.496,-1.234 -1.844,2.261 -3.635,4.557 -5.6,6.694 -0.173,0.188 -1.475,-0.661 -2.071,-0.943 1.101,-4.484 2.148,-8.75 3.43,-13.974 -8.044,1.886 -3.745,7.912 -6.417,12.349 v -8.11 c -0.55,-0.149 -1.099,-0.299 -1.649,-0.448 -3.871,5.698 1.409,14.387 -4.937,19.546 1.028,-5.574 2.012,-10.907 2.996,-16.24 -0.243,-0.043 -0.487,-0.086 -0.73,-0.129 -4.48,10.087 -8.96,20.174 -13.5,30.395 9.654,-0.379 13.653,-4.024 14.436,-12.764 0.124,-1.379 0.148,-3.088 0.949,-4.013 1.246,-1.439 3.179,-3.285 4.706,-3.186 1.415,0.093 3.318,2.296 3.869,3.949 0.961,2.884 1.049,6.059 1.608,9.822"
       style="fill:#ffffff;fill-opacity:1;fill-rule:nonzero;stroke:none"
       id="path36" /><path
       inkscape:connector-curvature="0"
       d="m 232.0809,487.5262 c -3.693,5.109 -7.909,11.889 -13.096,17.82 -4.269,4.882 -9.305,9.335 -14.702,12.925 -5.882,3.912 -11.725,2.327 -16.314,-3 -2.893,-3.358 -2.93,-11.578 0.867,-15.497 6.385,-6.59 13.709,-11.799 23.595,-11.786 7.032,0.01 14.064,-0.32 19.65,-0.462 m 29.846,-13.015 c 2.129,-1.905 4.356,-3.713 6.362,-5.74 2.129,-2.154 4.048,-4.515 6.828,-7.654 -9.214,4.905 -16.582,10.114 -24.775,12.883 -12.108,4.092 -24.578,7.527 -37.762,6.613 -3.104,-0.215 -6.825,0.664 -9.415,2.344 -7.189,4.662 -15.519,8.083 -19.661,16.505 -4.148,8.434 -0.703,19.638 7.722,23.811 8.916,4.417 13.89,6.571 23.707,-4.208 5.58,-6.128 12.016,-11.477 18.066,-17.177 1.949,-2.648 3.898,-5.296 5.847,-7.943 2.451,-2.907 4.524,-6.285 7.435,-8.616 5.009,-4.011 10.539,-7.369 15.85,-11.001 z"
       style="fill:#ffffff;fill-opacity:1;fill-rule:nonzero;stroke:none"
       id="path40" /><path
       inkscape:connector-curvature="0"
       d="m 238.8464,493.9451 c -1.949,2.648 -3.898,5.295 -5.847,7.943 -7.308,7.846 -13.971,16.459 -22.123,23.299 -6.698,5.621 -19.879,2.819 -25.51,-3.837 -5.738,-6.784 -8.236,-19.57 -0.504,-27.058 9.558,-9.258 19.612,-16.072 33.927,-15.963 20.52,0.157 39.111,-6.339 54.749,-20.14 0.371,-0.328 0.705,-0.808 0.829,-1.277 0.169,-0.642 0.12,-1.341 0.229,-2.975 -6.927,4.436 -13.01,8.956 -19.639,12.438 -10.895,5.723 -21.849,10.557 -35.075,9.139 -17.434,-1.868 -34.661,5.255 -42.48,24.442 -2.978,7.31 0.154,20.855 6.108,25.314 11.665,8.736 27.481,8.61 38.614,-1.129 7.323,-6.406 13.781,-13.801 20.646,-20.733 9.18,-9.269 18.438,-18.463 27.511,-27.835 1.446,-1.494 2.101,-3.752 3.121,-5.657 -0.465,-0.386 -0.93,-0.773 -1.395,-1.16 -3.36,1.918 -6.72,3.837 -10.081,5.755 l 0.205,-0.183 c -1.357,1.504 -2.544,3.218 -4.099,4.476 -6.334,5.123 -12.781,10.106 -19.186,15.141"
       style="fill:#ffffff;fill-opacity:1;fill-rule:nonzero;stroke:none"
       id="path44" /><path
       inkscape:connector-curvature="0"
       d="m 567.1814,434.8532 c 0,-3.04 0.282,-6.114 -0.071,-9.113 -0.446,-3.79 -1.298,-7.547 -2.258,-11.245 -0.157,-0.607 -1.77,-0.836 -2.711,-1.239 -0.229,0.862 -0.908,1.932 -0.621,2.558 6.266,13.666 4.063,27.192 -0.598,41.312 1.118,-0.542 1.935,-0.938 3.74,-1.813 -1.982,3.991 -3.482,7.01 -4.981,10.029 5.526,-2.499 6.978,-7.803 9.354,-12.439 0.446,0.181 0.891,0.363 1.337,0.544 -1.662,4.011 -3.323,8.022 -4.985,12.034 0.453,0.289 0.907,0.577 1.36,0.866 l 7.777,-12.197 c 0.237,0.09 0.474,0.18 0.71,0.27 -1.351,3.512 -2.702,7.025 -4.12,10.713 5.269,-1.054 3.692,-7.114 7.241,-9.772 -0.784,2.99 -1.567,5.979 -2.35,8.969 0.263,0.147 0.526,0.295 0.789,0.442 1.451,-2.605 2.902,-5.21 4.354,-7.815 0.211,0.04 0.423,0.08 0.635,0.121 -0.258,1.704 -0.515,3.408 -0.773,5.112 0.411,0.21 0.822,0.42 1.232,0.63 1.221,-3.037 2.441,-6.074 3.859,-9.603 0.526,1.436 0.955,2.603 1.378,3.773 8.352,-7.185 10.889,-25.55 4.107,-32.917 v 16.88 c -0.208,0.015 -0.416,0.03 -0.625,0.044 -0.731,-7.083 -1.462,-14.167 -2.193,-21.251 -0.6,0.05 -1.199,0.101 -1.798,0.151 v 22.149 c -0.156,0.005 -0.312,0.009 -0.468,0.013 -0.854,-8.164 -1.709,-16.329 -2.564,-24.494 -0.458,0.056 -0.916,0.112 -1.374,0.168 v 25.088 c -3.412,-8.988 1.327,-18.812 -3.425,-27.473 -0.584,0.025 -1.167,0.049 -1.751,0.074 v 13.085 c -0.571,0.039 -1.142,0.078 -1.713,0.117 0.215,-4.96 3.019,-10.506 -2.568,-14.753 v 19.32 c -0.459,0.016 -0.919,0.031 -1.379,0.047 1.227,-7.579 1.336,-14.903 -4.308,-21.015 2.996,7.555 2.425,15.06 -0.239,22.63"
       style="fill:#ffffff;fill-opacity:1;fill-rule:nonzero;stroke:none"
       id="path48" /><path
       inkscape:connector-curvature="0"
       d="m 291.2914,420.2764 c -1.486,2.382 -3.54,4.586 -4.35,7.179 -2.333,7.468 -4.629,15.007 -6.071,22.681 -1.701,9.045 -3.005,18.232 -3.535,27.412 -0.551,9.548 -1.159,19.362 0.415,28.695 1.944,11.525 5.904,22.739 9.427,33.951 1.338,4.259 3.502,8.399 6.027,12.088 1.355,1.98 4.274,2.888 6.488,4.28 0.385,-0.472 0.77,-0.944 1.155,-1.416 -1.977,-4.123 -3.706,-8.388 -5.981,-12.339 -4.896,-8.503 -7.18,-17.603 -7.597,-27.359 -0.811,-18.99 -2.954,-38.002 -2.407,-56.944 0.334,-11.55 4.653,-22.987 7.196,-34.471 0.218,-0.986 0.547,-1.947 0.824,-2.919 -0.53,-0.28 -1.061,-0.559 -1.591,-0.838"
       style="fill:#ffffff;fill-opacity:1;fill-rule:nonzero;stroke:none"
       id="path52" /><path
       inkscape:connector-curvature="0"
       d="m 302.5832,418.0027 c -4.504,-0.894 -6.379,3.077 -7.684,7.007 -5.546,16.706 -8.376,33.687 -6.328,51.464 1.033,8.963 -0.363,18.188 0.41,27.203 0.83,9.695 2.044,19.534 4.732,28.836 2.081,7.204 6.555,13.753 10.319,20.393 0.557,0.983 3.068,0.857 5.523,1.449 -7.703,-13.034 -11.514,-25.421 -11.706,-39.11 -0.125,-8.862 -1.957,-17.689 -2.343,-26.562 -0.599,-13.733 -1.68,-27.581 -0.527,-41.208 0.843,-9.962 4.949,-19.648 7.604,-29.472"
       style="fill:#ffffff;fill-opacity:1;fill-rule:nonzero;stroke:none"
       id="path56" /><path
       inkscape:connector-curvature="0"
       d="m 300.0318,449.8402 c 1.335,0.09 2.749,0.512 3.992,0.216 10.084,-2.407 20.137,-4.943 30.197,-7.453 4.016,-1.002 8.036,-1.993 12.034,-3.067 13.83,-3.713 27.571,-7.792 41.495,-11.105 15.272,-3.635 30.646,-6.921 46.093,-9.705 11.649,-2.1 23.483,-3.172 35.235,-4.702 -0.086,-0.933 -0.173,-1.866 -0.259,-2.799 -11.592,0.847 -23.259,1.142 -34.755,2.698 -11.139,1.507 -21.732,5.891 -33.317,5.774 -5.537,-0.056 -11.124,2.331 -16.645,3.774 -13.419,3.507 -26.882,6.875 -40.2,10.737 -14.335,4.158 -28.527,8.813 -42.776,13.267 -0.663,0.208 -1.274,0.578 -1.91,0.873 0.272,0.497 0.544,0.995 0.816,1.492"
       style="fill:#ffffff;fill-opacity:1;fill-rule:nonzero;stroke:none"
       id="path60" /><path
       inkscape:connector-curvature="0"
       d="m 464.808,415.809 c -15.442,2.674 -29.945,5.738 -44.601,7.572 -15.465,1.936 -30.062,6.703 -44.84,11.176 -9.77,2.956 -19.93,4.602 -29.871,7.02 -6.917,1.683 -13.723,3.825 -20.642,5.5 -8.251,1.997 -16.571,3.714 -25.153,5.616 v 6.793 c 5.174,-2.138 9.893,-4.504 14.868,-6.049 7.861,-2.441 15.872,-4.42 23.86,-6.435 11.005,-2.776 22.04,-5.433 33.076,-8.085 16.598,-3.99 33.109,-8.452 49.866,-11.605 5.68,-1.068 11.026,-2.305 16.472,-4.2 3.749,-1.305 8.586,-0.96 12.531,0.124 5.952,1.634 8.174,1.098 14.434,-7.427"
       style="fill:#ffffff;fill-opacity:1;fill-rule:nonzero;stroke:none"
       id="path64" /><path
       inkscape:connector-curvature="0"
       d="m 179.1585,526.7534 c 2.009,2 3.672,4.711 6.084,5.884 14.192,6.904 28.691,6.094 41.148,-2.919 9.787,-7.081 17.719,-16.765 26.298,-25.467 5.831,-5.913 11.528,-11.981 16.921,-18.291 1.875,-2.193 2.655,-5.322 3.936,-8.023 -0.625,-0.43 -1.251,-0.86 -1.876,-1.29 -1.672,1.361 -3.526,2.552 -4.987,4.111 -10.851,11.572 -21.399,23.439 -32.521,34.742 -5.081,5.164 -10.628,10.609 -17.051,13.555 -11.72,5.374 -24.153,7.845 -35.143,-2.594 -0.438,-0.416 -1.055,-0.644 -1.588,-0.959 -0.407,0.417 -0.814,0.834 -1.221,1.251"
       style="fill:#ffffff;fill-opacity:1;fill-rule:nonzero;stroke:none"
       id="path68" /><path
       inkscape:connector-curvature="0"
       d="m 350.3911,509.4524 c -6.181,-1.98 -12.327,-4.076 -18.55,-5.913 -10.358,-3.059 -19.677,-1.484 -27.643,6.791 3.026,1.042 6.026,1.709 8.639,3.102 1.834,0.977 3.14,2.942 4.682,4.467 -1.736,1.32 -3.293,3.181 -5.252,3.829 -2.738,0.905 -5.775,0.904 -8.708,1.294 -0.722,6.985 1.087,11.692 5.96,12.606 -1.677,-1.022 -2.436,-1.484 -4.178,-2.544 4.237,-0.514 7.542,-0.916 10.847,-1.317 -0.028,-0.309 -0.056,-0.617 -0.084,-0.926 -2.631,-0.625 -5.262,-1.249 -7.893,-1.874 0.083,-0.191 0.166,-0.383 0.249,-0.575 5.59,-0.502 11.18,-1.005 16.769,-1.508 -0.039,-0.616 -0.079,-1.232 -0.119,-1.847 h -7.283 c -0.068,-0.349 -0.136,-0.699 -0.205,-1.048 2.001,-0.404 3.985,-0.98 6.005,-1.165 2.219,-0.203 4.471,-0.047 6.898,-1.106 -2.342,-0.595 -4.685,-1.19 -7.027,-1.785 0.012,-0.225 0.025,-0.449 0.037,-0.674 h 12.604 c 0.068,-0.54 0.137,-1.081 0.205,-1.621 -4.128,-1.116 -8.256,-2.231 -12.384,-3.347 0.149,-0.523 0.298,-1.046 0.447,-1.57 4.071,1.06 8.102,2.337 12.228,3.094 2.291,0.421 4.742,-0.027 7.121,-0.083 0.033,-0.986 0.067,-1.971 0.101,-2.957 -8.365,-0.852 -16.73,-1.704 -25.094,-2.556 8.197,-1.815 16.159,-0.984 24.151,1.045 2.438,0.619 5.217,-0.105 7.839,-0.214 -0.121,-0.532 -0.241,-1.065 -0.362,-1.598"
       style="fill:#ffffff;fill-opacity:1;fill-rule:nonzero;stroke:none"
       id="path72" /><path
       inkscape:connector-curvature="0"
       d="m 514.5444,448.3013 c 1.488,-1.401 3.123,-2.229 3.582,-3.486 3.307,-9.052 12.073,-10.297 19.256,-13.824 3.166,-1.554 6.289,-3.199 9.431,-4.803 -0.197,-0.615 -0.395,-1.231 -0.592,-1.846 -4.663,0.629 -9.327,1.257 -13.99,1.886 0.059,0.475 0.117,0.949 0.175,1.424 -0.82,-0.658 -1.641,-1.315 -2.49,-1.996 -1.591,1.779 -2.948,3.294 -4.563,5.099 -0.606,-1.164 -1.071,-2.056 -2.156,-4.138 -2.29,5.275 -4.143,9.543 -5.996,13.811 -0.333,-0.07 -0.666,-0.14 -0.998,-0.21 0.831,-3.03 1.663,-6.059 2.86,-10.421 -2.309,2.157 -3.765,3.517 -5.297,4.949 -5.967,-4.581 -9.784,1.957 -14.53,3.697 -7.882,2.889 -0.644,10.446 -4.999,15.522 v -13.793 c -0.652,-0.117 -1.304,-0.235 -1.955,-0.353 -1.229,3.55 -2.457,7.1 -4.218,12.189 -0.199,-3.514 -0.322,-5.669 -0.52,-9.159 -2.217,4.887 -3.962,8.731 -5.362,11.817 3.055,0.799 6.623,0.687 8.014,2.371 1.584,1.92 1.227,5.443 1.717,8.291 8.042,-3.826 12.367,-9.846 11.789,-18.98 -0.086,-1.354 0.07,-3.025 0.803,-4.061 1.229,-1.736 3.012,-3.079 4.562,-4.587 1.129,1.406 2.511,2.682 3.321,4.253 0.921,1.784 1.332,3.832 2.156,6.348"
       style="fill:#ffffff;fill-opacity:1;fill-rule:nonzero;stroke:none"
       id="path76" /><path
       inkscape:connector-curvature="0"
       d="m 300.7291,490.8306 c 10.787,-4.771 20.481,-11.199 29.07,-19.315 5.226,-4.938 10.949,-9.121 18.179,-10.485 2.427,-0.458 5.312,0.619 7.451,-0.281 4.03,-1.696 8.123,-3.8 11.382,-6.656 8.182,-7.171 17.592,-12.128 27.718,-15.428 7.05,-2.297 14.615,-3.077 21.994,-4.257 1.552,-0.249 3.282,0.816 4.959,1.091 1.608,0.263 3.255,0.286 5.112,0.433 -1.653,-2.528 -2.782,-4.254 -4.457,-6.815 -1.553,0.184 -4.535,0.206 -7.342,0.922 -18.014,4.592 -36.025,8.886 -51.775,19.846 -7.5,5.219 -16.792,7.789 -24.699,12.519 -10.734,6.421 -20.915,13.767 -31.343,20.703 -1.591,1.058 -3.358,1.892 -4.808,3.11 -1.165,0.979 -1.973,2.383 -2.94,3.598 0.5,0.339 0.999,0.677 1.499,1.015"
       style="fill:#ffffff;fill-opacity:1;fill-rule:nonzero;stroke:none"
       id="path80" /><path
       inkscape:connector-curvature="0"
       d="m 551.508,419.3656 c -11.621,0.343 -23.135,1.691 -34.188,5.559 -14.424,5.048 -28.796,10.264 -43.048,15.777 -7.888,3.052 -15.524,6.772 -23.202,10.346 -8.303,3.866 -16.799,7.435 -24.706,12.007 -9.35,5.406 -18.16,11.747 -27.205,17.684 0.226,0.423 0.452,0.846 0.678,1.269 8.382,-4.347 16.774,-8.675 25.143,-13.047 9.391,-4.906 18.615,-10.158 28.177,-14.699 11.249,-5.341 22.672,-10.358 34.232,-14.984 7.955,-3.183 16.307,-5.36 24.407,-8.2 2.908,-1.02 5.663,-2.547 8.373,-4.048 7.327,-4.056 15.53,-3.139 23.367,-4.307 2.771,-0.414 5.517,-0.996 8.275,-1.501 -0.101,-0.619 -0.202,-1.237 -0.303,-1.856"
       style="fill:#ffffff;fill-opacity:1;fill-rule:nonzero;stroke:none"
       id="path84" /><path
       inkscape:connector-curvature="0"
       d="m 370.5794,442.3042 c -15.567,1.133 -29.956,6.851 -43.044,16.171 -7.87,5.603 -15.876,11.028 -23.979,16.288 -3.714,2.411 -4.319,5.548 -3.592,9.482 0.097,-0.057 71.094,-42.225 70.615,-41.941"
       style="fill:#ffffff;fill-opacity:1;fill-rule:nonzero;stroke:none"
       id="path88" /><path
       inkscape:connector-curvature="0"
       d="m 180.663,483.4369 c 6.661,-9.009 16.53,-12.213 26.624,-14.805 3.806,-0.978 7.859,-1.621 11.762,-1.466 7.504,0.299 14.214,-2.135 21.267,-4.116 9.807,-2.755 18.009,-7.914 26.177,-13.486 1.551,-1.057 3.14,-2.177 4.878,-2.82 6.556,-2.426 6.582,-2.357 8.161,-11.025 -8.657,5.332 -16.503,11.162 -25.174,15.235 -9.438,4.433 -18.345,10.036 -29.602,10.724 -15.166,0.926 -30.011,4.458 -41.67,15.52 -1.499,1.423 -2.469,3.405 -3.685,5.127 0.421,0.371 0.842,0.741 1.262,1.112"
       style="fill:#ffffff;fill-opacity:1;fill-rule:nonzero;stroke:none"
       id="path92" /><path
       inkscape:connector-curvature="0"
       d="m 418.7497,413.0615 c -12.674,1.465 -26.085,0.805 -37.849,4.891 -17.912,6.22 -37.023,7.622 -54.473,15.191 -3.396,1.473 -7.585,1.008 -11.183,2.15 -4.724,1.501 -9.304,3.545 -13.763,5.731 -1.052,0.515 -1.37,2.528 -2.081,3.964 13.665,-4.015 26.735,-8.159 39.975,-11.66 13.183,-3.486 27.135,-4.834 39.649,-9.861 13.049,-5.242 26.827,-5.06 40.167,-7.758 -0.147,-0.882 -0.295,-1.765 -0.442,-2.648"
       style="fill:#ffffff;fill-opacity:1;fill-rule:nonzero;stroke:none"
       id="path96" /><path
       inkscape:connector-curvature="0"
       d="m 479.8614,451.4661 c -2.477,6.426 -4.953,12.853 -7.693,19.962 -0.883,-10.076 6.135,-17.341 8.158,-26.186 -5.282,1.883 -10.052,11.418 -12.507,24.378 -2.041,-3.521 -1.467,-5.66 6.007,-22.285 -5.643,-0.015 -4.692,5.168 -6.284,8.058 -1.763,3.202 -2.673,6.873 -3.955,10.339 -0.479,-0.157 -0.959,-0.313 -1.438,-0.47 1.781,-5.197 3.562,-10.395 5.343,-15.592 -0.378,-0.307 -0.757,-0.614 -1.135,-0.921 -1.437,1.897 -3.095,3.669 -4.258,5.721 -1.613,2.848 -3.106,5.821 -4.164,8.907 -0.668,1.95 -0.876,4.279 -0.52,6.303 0.436,2.479 1.722,4.801 2.558,7.219 0.941,2.721 1.791,5.474 2.712,8.31 4.395,-2.249 7.646,-3.808 10.778,-5.579 0.983,-0.555 2.143,-1.568 2.372,-2.567 1.913,-8.358 3.628,-16.762 5.403,-25.153 -0.459,-0.148 -0.918,-0.296 -1.377,-0.444"
       style="fill:#ffffff;fill-opacity:1;fill-rule:nonzero;stroke:none"
       id="path100" /><path
       inkscape:connector-curvature="0"
       d="m 275.4597,446.3665 c -4.304,2.763 -8.706,5.388 -12.894,8.317 -10.186,7.123 -21.933,10.694 -33.622,13.86 -7.588,2.056 -15.932,1.146 -23.737,2.621 -10.95,2.07 -19.87,8.038 -26.519,17.055 -1.189,1.613 -1.493,3.877 -1.678,6.134 6.893,-9.821 15.307,-17.293 27.324,-19.244 5.486,-0.891 11.184,-0.691 16.783,-0.641 14.24,0.129 26.613,-5.168 38.246,-12.753 4.214,-2.748 8.487,-5.421 12.56,-8.367 1.944,-1.407 3.483,-3.373 5.206,-5.086 -0.556,-0.632 -1.113,-1.264 -1.669,-1.896"
       style="fill:#ffffff;fill-opacity:1;fill-rule:nonzero;stroke:none"
       id="path104" /><path
       inkscape:connector-curvature="0"
       d="m 289.8935,555.6486 c -0.793,-1.093 -1.57,-2.165 -2.582,-3.562 -1.12,1.693 -1.997,3.017 -2.873,4.342 -0.297,-0.117 -0.594,-0.233 -0.891,-0.35 0.695,-2.713 1.39,-5.426 2.432,-9.494 -6.861,2.757 -12.447,5.001 -18.033,7.246 -0.204,-0.506 -0.409,-1.012 -0.613,-1.519 5.563,-2.554 11.125,-5.108 16.617,-7.631 -1.345,-6.533 -6.94,-2.795 -11.721,-4.948 3.349,-1.154 5.325,-1.835 7.775,-2.68 -0.265,-1.378 -0.567,-2.942 -1.15,-5.964 -4.476,3.546 -8.016,6.351 -11.394,9.027 2.233,2.676 3.806,4.562 5.969,7.157 -9.096,2.742 -18.896,2.784 -22.253,13.695 12.833,-1.638 26.409,4.357 38.717,-5.319"
       style="fill:#ffffff;fill-opacity:1;fill-rule:nonzero;stroke:none"
       id="path108" /><path
       inkscape:connector-curvature="0"
       d="m 182.1261,533.5311 c 5.594,7.733 17.83,12.04 25.872,9.242 12.192,-4.243 24.535,-8.47 34.22,-17.407 6.199,-5.72 11.578,-12.338 17.239,-18.63 3.489,-3.878 6.968,-7.783 10.154,-11.906 1.61,-2.085 2.559,-4.68 4.32,-8.018 -2.243,0.305 -2.948,0.182 -3.211,0.467 -11.09,12.028 -22.2,24.038 -33.179,36.166 -11.218,12.393 -25.657,16.139 -41.551,15.017 -4.542,-0.321 -8.911,-3.095 -13.864,-4.931"
       style="fill:#ffffff;fill-opacity:1;fill-rule:nonzero;stroke:none"
       id="path112" /><path
       inkscape:connector-curvature="0"
       d="m 280.2862,429.8202 c -10.716,5.613 -21.38,11.327 -32.161,16.812 -12.473,6.346 -25.864,9.865 -39.469,12.905 -7.068,1.58 -13.947,4.244 -20.656,7.031 -1.916,0.796 -2.939,3.739 -3.839,6.268 9.912,-7.926 22.193,-9.026 33.394,-12.839 2.371,-0.807 5.204,-0.218 7.82,-0.351 11.327,-0.578 20.716,-6.054 30.022,-11.816 3.679,-2.278 7.616,-4.136 11.348,-6.336 5.11,-3.013 10.135,-6.169 15.197,-9.264 z"
       style="fill:#ffffff;fill-opacity:1;fill-rule:nonzero;stroke:none"
       id="path116" /><path
       inkscape:connector-curvature="0"
       d="m 205.0535,547.3256 c 5.082,-0.761 10.603,-0.499 15.167,-2.462 18.141,-7.804 33.204,-19.952 47.102,-33.939 4.665,-4.695 6.363,-8.871 4.647,-15.317 -6.047,3.037 -8.595,9.169 -12.437,14.072 -9.225,11.775 -19.699,22.028 -33.798,27.861 -6.933,2.869 -13.922,5.601 -20.885,8.395 0.068,0.463 0.136,0.927 0.204,1.39"
       style="fill:#ffffff;fill-opacity:1;fill-rule:nonzero;stroke:none"
       id="path120" /><path
       inkscape:connector-curvature="0"
       d="m 309.9479,546.7227 c 4.036,4.54 4.769,4.168 9.712,-0.158 2.637,-2.307 6.449,-3.379 9.881,-4.576 0.649,-0.226 2.6,1.415 2.905,2.491 0.497,1.757 0.134,3.758 0.134,5.656 0.505,0.183 1.01,0.365 1.515,0.547 4.923,-10.799 9.846,-21.598 15.044,-33.001 -7.759,0.65 -5.531,6.247 -7.084,9.62 -1.705,3.705 -3.394,7.417 -5.372,11.742 -2.889,-6.758 6.291,-10.646 3.603,-17.904 -3.005,5.492 -5.639,10.304 -8.273,15.116 -0.338,-0.148 -0.676,-0.296 -1.014,-0.445 1.496,-3.421 2.991,-6.843 4.762,-10.897 -5.462,2.13 -4.673,8.141 -8.413,12.303 0.515,-2.929 0.835,-4.754 1.156,-6.579 -0.583,-0.213 -1.165,-0.426 -1.748,-0.639 -1.115,3.57 -2.229,7.14 -3.344,10.711 -0.32,-0.014 -0.64,-0.029 -0.96,-0.042 0.447,-2.864 0.895,-5.727 1.343,-8.591 -0.177,-0.053 -0.354,-0.105 -0.532,-0.158 l -4.861,9.82 c -0.35,-0.137 -0.7,-0.273 -1.05,-0.409 0.607,-2.039 1.214,-4.078 1.821,-6.118 -0.459,-0.34 -0.919,-0.681 -1.379,-1.022 -1.107,1.64 -2.269,3.246 -3.309,4.927 -1.562,2.524 -3.038,5.101 -4.551,7.655 z"
       style="fill:#ffffff;fill-opacity:1;fill-rule:nonzero;stroke:none"
       id="path124" /><path
       inkscape:connector-curvature="0"
       d="m 301.7155,437.2303 c 25.153,-6.53 49.432,-12.832 73.712,-19.135 -16.371,-2.367 -31.715,-0.041 -46.376,7.454 -5.476,2.799 -11.861,3.8 -17.801,5.717 -3.458,1.116 -7.399,1.58 -9.535,5.964"
       style="fill:#ffffff;fill-opacity:1;fill-rule:nonzero;stroke:none"
       id="path128" /><path
       inkscape:connector-curvature="0"
       d="m 276.6262,429.0149 c -5.736,-0.411 -10.975,2.201 -15.913,5.649 -15.71,10.969 -33.596,15.478 -52.284,17.372 -8.707,0.882 -14.897,4.2 -18.479,10.511 30.643,-6.138 60.173,-16.5 86.676,-33.532"
       style="fill:#ffffff;fill-opacity:1;fill-rule:nonzero;stroke:none"
       id="path132" /><path
       inkscape:connector-curvature="0"
       d="m 208.1544,549.1356 c 2.085,2.559 4.067,3.912 7.898,2.469 16.487,-6.208 32.417,-13.087 44.267,-26.978 2.031,-2.381 5.611,-3.388 8.328,-5.246 4.882,-3.339 5.315,-4.581 4.138,-11.334 -18.809,18.228 -36.963,36.88 -64.631,41.089"
       style="fill:#ffffff;fill-opacity:1;fill-rule:nonzero;stroke:none"
       id="path136" /><path
       inkscape:connector-curvature="0"
       d="m 218.9902,557.5594 c 4.785,4.376 10.79,3.546 16.789,-0.741 9.56,-6.831 17.631,-15.812 29.243,-19.843 4.102,-1.424 7.524,-4.897 11.112,-7.624 0.723,-0.55 1.321,-2.175 1.02,-2.914 -0.332,-0.814 -2.083,-1.878 -2.668,-1.614 -2.464,1.107 -4.871,2.473 -7.03,4.099 -8.97,6.756 -16.476,15.437 -27.572,19.358 -7.229,2.554 -14.07,6.205 -20.894,9.279"
       style="fill:#ffffff;fill-opacity:1;fill-rule:nonzero;stroke:none"
       id="path140" /><path
       inkscape:connector-curvature="0"
       d="m 300.9496,498.9211 c 9.581,-4.18 16.234,-12.051 25.417,-16.467 9.149,-4.399 16.628,-12.272 24.839,-18.622 -0.201,-0.508 -0.401,-1.017 -0.602,-1.525 -2.673,0.777 -5.788,0.925 -7.942,2.44 -8.517,5.993 -16.601,12.602 -25.114,18.601 -4.53,3.192 -9.455,5.941 -14.494,8.253 -3.488,1.601 -3.881,3.51 -2.104,7.32"
       style="fill:#ffffff;fill-opacity:1;fill-rule:nonzero;stroke:none"
       id="path144" /><path
       inkscape:connector-curvature="0"
       d="m 523.0087,445.894 c 12.276,-5.487 24.659,-10.44 38.684,-7.875 v -10.042 c -6.434,-1.033 -12.633,-1.87 -17.702,3.937 h 16.221 c -11.558,2.367 -21.925,4.244 -32.132,6.766 -2.335,0.577 -4.121,3.378 -6.16,5.155 0.363,0.686 0.726,1.373 1.089,2.059"
       style="fill:#ffffff;fill-opacity:1;fill-rule:nonzero;stroke:none"
       id="path148" /><path
       inkscape:connector-curvature="0"
       d="m 275.4292,520.8624 c -0.111,-0.259 -0.701,-1.644 -1.689,-3.961 -5.351,4.716 -10.088,9.452 -15.397,13.425 -6.197,4.638 -12.864,8.656 -19.388,12.849 -2.48,1.594 -5.027,3.158 -7.72,4.33 -5.609,2.442 -11.335,4.614 -18.3,7.414 13.732,0.587 23.92,-6.17 33.773,-11.946 10.17,-5.962 18.893,-14.39 28.721,-22.111"
       style="fill:#ffffff;fill-opacity:1;fill-rule:nonzero;stroke:none"
       id="path152" /><path
       inkscape:connector-curvature="0"
       d="m 635.7588,459.3189 c -0.99,-6.026 -6.284,-8.035 -11.754,-9.241 -8.783,-1.935 -17.684,-3.336 -26.777,-5.007 -0.691,1.964 -1.247,3.543 -1.518,4.312 13.528,3.356 26.803,6.65 40.049,9.936"
       style="fill:#ffffff;fill-opacity:1;fill-rule:nonzero;stroke:none"
       id="path156" /><path
       inkscape:connector-curvature="0"
       d="m 517.3647,451.7495 c 3.059,-0.886 6.078,-1.953 9.184,-2.62 6.897,-1.48 13.826,-2.822 20.766,-4.09 3.059,-0.559 6.224,-0.588 9.247,-1.271 1.653,-0.373 3.111,-1.607 4.657,-2.453 -1.642,-0.972 -3.345,-2.859 -4.914,-2.752 -5.859,0.396 -11.832,0.867 -17.465,2.402 -6.48,1.766 -12.695,4.573 -18.903,7.216 -1.152,0.491 -1.724,2.345 -2.563,3.57 z"
       style="fill:#ffffff;fill-opacity:1;fill-rule:nonzero;stroke:none"
       id="path160" /><path
       inkscape:connector-curvature="0"
       d="m 653.5363,478.5796 c -10.54,-12.245 -54,-25.828 -62.643,-19.586 22.234,2.818 42.97,9.384 62.643,19.586"
       style="fill:#ffffff;fill-opacity:1;fill-rule:nonzero;stroke:none"
       id="path164" /><path
       inkscape:connector-curvature="0"
       d="m 558.238,452.2194 c -20.333,2.428 -41.588,0.59 -59.605,13.638 4.909,-1.545 9.728,-3.551 14.747,-4.532 8.289,-1.619 16.688,-2.738 25.079,-3.755 5.506,-0.667 11.1,-0.61 16.608,-1.265 1.393,-0.166 2.609,-1.82 3.907,-2.789 -0.245,-0.433 -0.491,-0.865 -0.736,-1.297"
       style="fill:#ffffff;fill-opacity:1;fill-rule:nonzero;stroke:none"
       id="path168" /><path
       inkscape:connector-curvature="0"
       d="m 302.1581,507.8152 c 10.081,-10.533 22.045,-9.887 34.486,-6.874 0.05,-0.564 0.1,-1.127 0.149,-1.691 -1.451,-0.582 -2.923,-1.119 -4.35,-1.756 -3.459,-1.548 -7.451,-2.498 -10.212,-4.871 -3.956,-3.399 -6.663,-2.195 -9.914,0.559 -2.621,2.22 -5.293,4.56 -8.33,6.064 -3.861,1.912 -3.82,4.303 -1.829,8.569"
       style="fill:#ffffff;fill-opacity:1;fill-rule:nonzero;stroke:none"
       id="path172" /><path
       inkscape:connector-curvature="0"
       d="m 555.3558,458.4259 c -22.933,0.88 -44.178,2.563 -63.585,13.348 19.73,-5.924 39.683,-10.452 60.4,-10.503 0.735,-0.002 1.468,-1.265 3.185,-2.845"
       style="fill:#ffffff;fill-opacity:1;fill-rule:nonzero;stroke:none"
       id="path176" /><path
       inkscape:connector-curvature="0"
       d="m 303.1607,432.6109 c 12.45,-4.364 24.085,-8.443 35.72,-12.521 -10.469,-3.261 -33.722,4.979 -35.72,12.521"
       style="fill:#ffffff;fill-opacity:1;fill-rule:nonzero;stroke:none"
       id="path180" /><path
       inkscape:connector-curvature="0"
       d="m 662.7676,476.0028 c 2.805,-9.959 -1.044,-18.186 -6.352,-25.834 -1.924,-2.773 -4.711,-5.043 -7.404,-7.162 -3.18,-2.502 -7.387,-2.421 -9.408,0.618 -1.596,2.398 -2.144,7.193 -0.773,9.517 3.042,5.155 7.581,9.426 11.51,14.057 0.42,-0.323 0.839,-0.646 1.258,-0.969 -2.217,-2.897 -4.481,-5.761 -6.638,-8.703 -1.74,-2.375 -3.741,-4.679 -4.869,-7.336 -0.635,-1.497 -0.392,-4.499 0.634,-5.285 1.332,-1.022 3.883,-0.831 5.821,-0.55 1.232,0.178 2.503,1.285 3.416,2.286 6.423,7.036 12.17,14.401 11.762,24.74 -0.06,1.524 0.676,3.08 1.043,4.621"
       style="fill:#ffffff;fill-opacity:1;fill-rule:nonzero;stroke:none"
       id="path184" /><path
       inkscape:connector-curvature="0"
       d="m 561.9838,446.4761 c -10.326,-1.502 -53.705,7.48 -58.091,12.27 5.787,-1.465 10.442,-2.729 15.139,-3.807 4.349,-0.999 8.708,-2.115 13.126,-2.619 8.26,-0.942 16.58,-1.358 24.84,-2.3 1.422,-0.162 2.672,-1.841 4.986,-3.544"
       style="fill:#ffffff;fill-opacity:1;fill-rule:nonzero;stroke:none"
       id="path188" /><path
       inkscape:connector-curvature="0"
       d="m 267.4192,546.6286 c -2.128,-2.381 -3.651,-4.086 -6.151,-6.884 -8.413,6.194 -17.884,13.168 -28.03,20.639 12.378,1.459 13.92,0.731 19.685,-9.394 -2.959,1.965 -4.995,3.431 -7.143,4.709 -1.969,1.171 -4.059,2.137 -6.346,2.654 8.656,-5.546 15.844,-14.38 27.985,-11.724"
       style="fill:#ffffff;fill-opacity:1;fill-rule:nonzero;stroke:none"
       id="path192" /><path
       inkscape:connector-curvature="0"
       d="m 598.5457,437.3517 c 10.889,2.703 21.771,5.437 32.69,8.01 0.521,0.123 1.377,-1.181 2.249,-1.977 -11.185,-5.506 -22.702,-7.436 -34.517,-7.963 -0.141,0.643 -0.281,1.287 -0.422,1.93"
       style="fill:#ffffff;fill-opacity:1;fill-rule:nonzero;stroke:none"
       id="path196" /><path
       inkscape:connector-curvature="0"
       d="m 588.0199,462.5642 c 21.299,0.45 40.404,9.066 59.883,16.287 -18.919,-9.303 -38.139,-17.491 -59.883,-16.287"
       style="fill:#ffffff;fill-opacity:1;fill-rule:nonzero;stroke:none"
       id="path200" /><path
       inkscape:connector-curvature="0"
       d="m 327.705,450.0606 c -8.612,3.41 -17.283,6.684 -25.775,10.37 -1.333,0.578 -1.856,3.02 -3.315,5.587 12.705,-2.158 20.756,-9.256 29.09,-15.957"
       style="fill:#ffffff;fill-opacity:1;fill-rule:nonzero;stroke:none"
       id="path204" /><path
       inkscape:connector-curvature="0"
       d="m 597.3286,427.2844 c 13.568,3.184 27.135,6.368 41.749,9.797 -13.804,-6.171 -26.413,-12.789 -41.263,-11.136 -0.162,0.446 -0.324,0.893 -0.486,1.339"
       style="fill:#ffffff;fill-opacity:1;fill-rule:nonzero;stroke:none"
       id="path208" /><path
       inkscape:connector-curvature="0"
       d="m 597.6889,443.4484 c 11.366,2.201 22.732,4.402 34.748,6.729 -0.687,-0.986 -1.258,-2.805 -2.247,-3.071 -8.814,-2.371 -17.674,-4.589 -26.588,-6.549 -1.922,-0.422 -4.113,0.376 -6.179,0.612 0.088,0.76 0.177,1.519 0.266,2.279"
       style="fill:#ffffff;fill-opacity:1;fill-rule:nonzero;stroke:none"
       id="path212" /><path
       inkscape:connector-curvature="0"
       d="m 595.3387,454.0943 c 14.454,3.528 29.318,7.155 43.666,10.657 -7.229,-6.595 -36.342,-13.688 -43.666,-10.657"
       style="fill:#ffffff;fill-opacity:1;fill-rule:nonzero;stroke:none"
       id="path216" /><path
       inkscape:connector-curvature="0"
       d="m 300.977,473.4804 c 11.589,-7.502 23.115,-14.963 34.64,-22.424 -0.167,-0.394 -0.334,-0.787 -0.501,-1.181 -1.777,0.685 -3.715,1.111 -5.304,2.099 -6.613,4.108 -13.091,8.433 -19.691,12.562 -1.457,0.911 -3.169,1.488 -4.834,1.979 -5.184,1.529 -5.197,1.484 -4.31,6.965"
       style="fill:#ffffff;fill-opacity:1;fill-rule:nonzero;stroke:none"
       id="path220" /><path
       inkscape:connector-curvature="0"
       d="m 634.7988,441.3406 c -5.965,-6.492 -27.66,-11.616 -35.96,-9.573 -0.095,0.502 -0.19,1.004 -0.285,1.506 6.133,0.805 12.36,1.192 18.375,2.533 6.066,1.352 11.922,3.65 17.87,5.534"
       style="fill:#ffffff;fill-opacity:1;fill-rule:nonzero;stroke:none"
       id="path224" /><path
       inkscape:connector-curvature="0"
       d="m 216.448,450.1635 c 12.304,-3.929 24.608,-7.858 36.912,-11.788 -0.197,-0.616 -0.394,-1.232 -0.591,-1.848 -12.334,3.897 -24.668,7.793 -37.002,11.689 0.227,0.649 0.454,1.298 0.681,1.947"
       style="fill:#ffffff;fill-opacity:1;fill-rule:nonzero;stroke:none"
       id="path228" /><path
       inkscape:connector-curvature="0"
       d="m 386.0482,488.5271 c -9.4,6.431 -18.799,12.861 -28.199,19.292 0.321,0.484 0.642,0.969 0.963,1.454 9.507,-6.245 19.015,-12.489 28.522,-18.733 -0.429,-0.671 -0.857,-1.342 -1.286,-2.013"
       style="fill:#ffffff;fill-opacity:1;fill-rule:nonzero;stroke:none"
       id="path232" /><path
       inkscape:connector-curvature="0"
       d="m 657.9141,461.8542 c -3.601,-6.812 -5.92,-14.876 -15.682,-16.408 -1.538,5.879 1.477,8.858 5.531,11.323 -1.313,-2.349 -2.627,-4.698 -3.941,-7.047 0.869,-0.734 1.738,-1.468 2.607,-2.203 0.873,1.731 1.451,3.715 2.678,5.141 2.765,3.211 5.851,6.146 8.807,9.194"
       style="fill:#ffffff;fill-opacity:1;fill-rule:nonzero;stroke:none"
       id="path236" /><path
       inkscape:connector-curvature="0"
       d="m 657.9141,461.8542 c -2.956,-3.048 -6.042,-5.983 -8.807,-9.194 -1.227,-1.426 -1.805,-3.41 -2.678,-5.141 -0.869,0.735 -1.738,1.469 -2.607,2.203 1.314,2.349 2.628,4.698 3.941,7.047 0.504,0.415 1.008,0.83 1.512,1.246 1.674,1.452 3.217,3.123 5.088,4.246 0.73,0.438 2.2,-0.358 3.334,-0.593 z"
       style="fill:#231f20;fill-opacity:1;fill-rule:nonzero;stroke:none"
       id="path240" /><path
       inkscape:connector-curvature="0"
       d="m 636.4535,455.662 c 3.782,8.841 10.932,14.646 19.065,19.565 -6.226,-6.635 -12.453,-13.271 -18.679,-19.906 z"
       style="fill:#ffffff;fill-opacity:1;fill-rule:nonzero;stroke:none"
       id="path244" /><path
       inkscape:connector-curvature="0"
       d="m 343.537,475.3704 c 3.805,-1.527 7.609,-3.054 12.334,-4.95 -6.346,-4.262 -7.908,-3.69 -13.02,3.252 0.229,0.566 0.457,1.132 0.686,1.698"
       style="fill:#ffffff;fill-opacity:1;fill-rule:nonzero;stroke:none"
       id="path248" /><path
       inkscape:connector-curvature="0"
       d="m 657.6967,461.6687 c -1.133,0.234 -2.603,1.03 -3.333,0.592 -1.872,-1.123 -3.414,-2.794 -5.089,-4.246 2.868,4.461 5.736,8.922 8.604,13.383 0.823,-0.39 1.646,-0.781 2.469,-1.171 -0.883,-2.853 -1.767,-5.705 -2.651,-8.558"
       style="fill:#ffffff;fill-opacity:1;fill-rule:nonzero;stroke:none"
       id="path252" /><path
       inkscape:connector-curvature="0"
       d="m 391.1354,445.791 c -3.869,-2.472 -12.609,0.788 -16.696,6.725 5.373,-2.164 10.745,-4.328 16.696,-6.725"
       style="fill:#ffffff;fill-opacity:1;fill-rule:nonzero;stroke:none"
       id="path256" /><path
       inkscape:connector-curvature="0"
       d="m 424.0023,472.7461 c -7.249,3.157 -8.148,9.69 -8.537,16.495 2.846,-5.498 5.691,-10.997 8.537,-16.495"
       style="fill:#ffffff;fill-opacity:1;fill-rule:nonzero;stroke:none"
       id="path260" /><path
       inkscape:connector-curvature="0"
       d="m 302.9449,513.2856 v 6.502 c 3.523,-0.319 6.75,-0.611 9.977,-0.903 0.086,-0.657 0.173,-1.313 0.26,-1.969 -3.163,-1.122 -6.325,-2.243 -10.237,-3.63"
       style="fill:#ffffff;fill-opacity:1;fill-rule:nonzero;stroke:none"
       id="path264" /><path
       inkscape:connector-curvature="0"
       d="m 517.3733,451.7517 c -2.029,-1.1 -4.11,-2.117 -6.069,-3.331 -1.165,-0.722 -2.139,-1.753 -3.199,-2.645 -0.601,1.271 -1.377,2.495 -1.742,3.831 -0.256,0.936 0.049,2.025 0.122,3.381 3.815,-0.434 7.346,-0.836 10.878,-1.238 10e-4,0 0.01,0.002 0.01,0.002"
       style="fill:#ffffff;fill-opacity:1;fill-rule:nonzero;stroke:none"
       id="path268" /><path
       inkscape:connector-curvature="0"
       d="m 484.2482,415.4272 c 4.563,1.27 9.126,2.539 14.895,4.144 -4.239,-6.608 -9.665,-5.07 -14.895,-4.144"
       style="fill:#ffffff;fill-opacity:1;fill-rule:nonzero;stroke:none"
       id="path272" /><path
       inkscape:connector-curvature="0"
       d="m 636.8395,455.3209 c -0.027,-1.571 0.091,-3.161 -0.109,-4.71 -0.69,-5.355 0.114,-9.821 7.885,-11.291 -9.598,-0.689 -12.624,6.948 -8.162,16.342 0,0 0.386,-0.341 0.386,-0.341"
       style="fill:#ffffff;fill-opacity:1;fill-rule:nonzero;stroke:none"
       id="path276" /><path
       inkscape:connector-curvature="0"
       d="m 480.4815,470.2507 c 2.419,-0.586 4.305,-1.043 6.851,-1.659 -1.384,-0.487 -2.13,-0.75 -2.797,-0.985 1.271,-0.784 2.593,-1.599 4.21,-2.597 -6.177,-2.66 -7.038,-2.123 -8.264,5.241"
       style="fill:#ffffff;fill-opacity:1;fill-rule:nonzero;stroke:none"
       id="path280" /><path
       inkscape:connector-curvature="0"
       d="m 489.3399,472.4808 c -6.987,-2.207 -10.044,-0.824 -9.849,3.734 2.956,-1.12 5.775,-2.189 9.849,-3.734"
       style="fill:#ffffff;fill-opacity:1;fill-rule:nonzero;stroke:none"
       id="path284" /><path
       inkscape:connector-curvature="0"
       d="m 394.7437,447.8295 c -3.68,0.765 -7.361,1.53 -11.041,2.295 0.118,0.724 0.236,1.447 0.354,2.171 3.665,-0.729 7.329,-1.458 10.993,-2.187 -0.102,-0.759 -0.204,-1.519 -0.306,-2.279"
       style="fill:#ffffff;fill-opacity:1;fill-rule:nonzero;stroke:none"
       id="path288" /><path
       inkscape:connector-curvature="0"
       d="m 391.811,455.2838 c 2.794,-0.337 5.588,-0.673 8.383,-1.01 -0.084,-0.898 -0.168,-1.796 -0.251,-2.694 -2.733,0.281 -5.466,0.562 -8.199,0.842 0.022,0.954 0.045,1.908 0.067,2.862"
       style="fill:#ffffff;fill-opacity:1;fill-rule:nonzero;stroke:none"
       id="path292" /><path
       inkscape:connector-curvature="0"
       d="m 364.6045,516.0396 c 0.833,-3.11 1.667,-6.221 2.623,-9.79 -6.56,1.957 -4.036,6.042 -2.623,9.79"
       style="fill:#ffffff;fill-opacity:1;fill-rule:nonzero;stroke:none"
       id="path296" /><path
       inkscape:connector-curvature="0"
       d="m 309.9339,546.7716 c 1.07,-2.826 2.141,-5.651 3.744,-9.884 -3.032,1.596 -4.642,2.443 -6.449,3.394 0.987,2.299 1.865,4.346 2.732,6.417 -0.013,0.024 -0.027,0.073 -0.027,0.073"
       style="fill:#ffffff;fill-opacity:1;fill-rule:nonzero;stroke:none"
       id="path300" /><path
       inkscape:connector-curvature="0"
       d="m 458.047,547.4439 c 7.213,11.982 14.426,23.964 21.639,35.946 -10.375,-10.053 -16.062,-22.965 -21.639,-35.946 m -15.973,4.766 c 0.115,1.2 0.063,2.446 0.376,3.592 1.252,4.583 -0.103,7.901 -4.866,8.898 -13.065,2.736 -22.201,11.697 -31.906,19.773 -0.301,0.251 -0.025,1.194 -0.018,1.814 l -0.135,-0.08 c 6.146,-4.167 12.125,-8.611 18.492,-12.408 4.764,-2.842 10.027,-4.848 15.067,-7.226 0.303,0.666 0.605,1.332 0.907,1.998 -1.738,0.681 -3.443,1.472 -5.222,2.023 -7.311,2.264 -13.221,6.441 -18.601,11.918 -2.918,2.971 -7.425,4.317 -10.998,6.718 -10.743,7.216 -10.702,7.277 -2.157,16.314 10.519,-6.508 20.706,-13.142 31.213,-19.223 11.424,-6.612 27.594,-2.763 36.673,6.155 7.948,7.806 15.982,15.527 24.125,23.127 1.336,1.247 3.431,1.681 4.451,2.733 -9.601,-10.224 -19.046,-20.603 -28.912,-30.565 -2.512,-2.537 -6.361,-3.751 -9.595,-5.572 0.285,-0.504 0.571,-1.007 0.856,-1.51 3.674,2.196 7.852,3.846 10.925,6.691 8.655,8.012 16.814,16.558 25.273,24.785 1.592,1.549 3.672,2.596 5.527,3.875 l 1.199,-1.458 c -6.774,-7.624 -13.547,-15.247 -20.321,-22.87 0.352,-0.304 0.703,-0.607 1.054,-0.91 7.179,7.632 14.358,15.264 21.537,22.896 0.215,-0.214 0.43,-0.427 0.646,-0.64 -5.872,-8.493 -11.297,-17.341 -17.71,-25.403 -12.838,-16.141 -24.7,-32.809 -33.177,-51.735 -0.798,-1.782 -3.145,-3.495 -5.096,-4.005 -3.941,-1.032 -8.105,-1.214 -12.639,-1.808 1.666,12.859 13.292,21.255 13.74,34.566 -5.928,-12.386 -11.564,-24.161 -16.831,-35.163 -0.682,4.102 1.736,12.108 6.072,18.184 3.016,4.227 6.556,8.232 5.275,14.051 -0.129,0.587 -0.424,1.137 -0.159,0.448 -1.548,-2.96 -3.357,-6.42 -5.167,-9.881 z"
       style="fill:#ffffff;fill-opacity:1;fill-rule:nonzero;stroke:none"
       id="path304" /><path
       inkscape:connector-curvature="0"
       d="m 404.1757,616.3186 c -1.147,-9.86 -6.413,-15.609 -14.254,-19.148 -1.649,-0.744 -4.147,-0.388 -5.99,0.238 -4.744,1.61 -5.802,4.471 -2.411,8.153 3.872,4.204 8.271,8.183 13.138,11.094 2.228,1.332 6.125,-0.128 9.517,-0.337"
       style="fill:#ffffff;fill-opacity:1;fill-rule:nonzero;stroke:none"
       id="path308" /><path
       inkscape:connector-curvature="0"
       d="m 472.5652,528.3911 c -3.909,2.235 -3.845,4.637 -2.317,8.022 7.426,16.444 16.348,31.877 28.987,44.935 5.563,5.747 11.122,11.498 16.759,17.171 0.931,0.937 2.257,1.483 4.497,1.518 -0.785,-1.383 -1.245,-3.529 -2.408,-4.025 -7.795,-3.32 -10.878,-9.289 -10.669,-17.411 0.015,-0.577 -0.36,-1.164 -0.96,-2.966 -1.233,3.42 -2.053,5.695 -2.987,8.285 -6.201,-9.019 -12.764,-17.463 -18.092,-26.626 -5.249,-9.027 -12.479,-17.342 -12.81,-28.903"
       style="fill:#ffffff;fill-opacity:1;fill-rule:nonzero;stroke:none"
       id="path312" /><path
       inkscape:connector-curvature="0"
       d="m 404.7852,606.5679 c 0.32,3.444 0.508,5.471 0.721,7.769 7.068,-5.768 13.627,-11.708 20.775,-16.824 12.784,-9.152 26.316,-13.607 41.057,-3.956 0.379,0.248 0.867,0.328 1.526,0.566 -5.499,-8.178 -23.487,-12.106 -32.18,-6.911 -10.839,6.477 -21.594,13.095 -31.899,19.356"
       style="fill:#ffffff;fill-opacity:1;fill-rule:nonzero;stroke:none"
       id="path316" /><path
       inkscape:connector-curvature="0"
       d="m 518.5311,605.5704 c 0.531,-0.596 0.887,-0.823 0.962,-1.12 0.114,-0.453 0.231,-1.24 0.008,-1.395 -25.557,-17.744 -40.091,-43.866 -53.829,-70.611 -0.05,-0.098 -0.914,0.221 -1.394,0.345 3.374,19.276 28.869,54.772 54.253,72.781"
       style="fill:#ffffff;fill-opacity:1;fill-rule:nonzero;stroke:none"
       id="path320" /><path
       inkscape:connector-curvature="0"
       d="m 432.8135,546.416 c 3.154,12.203 2.818,11.685 -7.066,18.081 -11.022,7.131 -21.341,15.346 -31.994,23.052 -3.345,2.42 -6.779,4.717 -10.172,7.07 0.25,0.403 0.5,0.806 0.75,1.208 2.362,-1.413 4.684,-2.899 7.093,-4.226 15.636,-8.613 26.885,-24.023 45.059,-28.794 5.438,-1.427 6.177,-5.367 2.456,-9.934 -1.624,-1.993 -3.538,-3.75 -6.126,-6.457"
       style="fill:#ffffff;fill-opacity:1;fill-rule:nonzero;stroke:none"
       id="path324" /><path
       inkscape:connector-curvature="0"
       d="m 409.8697,540.8964 c -3.519,2.989 -7.038,5.978 -10.479,8.9 0.045,-6.929 11.31,-11.55 6.21,-20.485 -8.345,2.188 -10.774,19.309 -4.459,29.266 3.6,-5.118 7.333,-10.426 11.067,-15.734 -0.78,-0.649 -1.559,-1.298 -2.339,-1.947"
       style="fill:#ffffff;fill-opacity:1;fill-rule:nonzero;stroke:none"
       id="path328" /><path
       inkscape:connector-curvature="0"
       d="m 362.2096,560.3426 c 1.953,9.154 10.71,16.725 18.241,16.1 2.023,-8.644 -8.161,-17.819 -18.241,-16.1"
       style="fill:#ffffff;fill-opacity:1;fill-rule:nonzero;stroke:none"
       id="path332" /><path
       inkscape:connector-curvature="0"
       d="m 429.655,522.6387 c 3.59,1.865 6.239,3.241 8.889,4.617 0.272,-0.38 0.544,-0.76 0.817,-1.14 -1.319,-1.077 -2.638,-2.154 -3.97,-3.242 7.746,-6.214 16.399,-8.482 25.921,-5.265 2.284,0.772 4.005,3.214 5.985,4.888 -1.757,1.73 -3.226,4.203 -5.336,5.018 -3.279,1.266 -6.993,1.403 -10.546,2.854 4.731,0 9.508,0.41 14.179,-0.12 4.31,-0.49 6.578,-5.176 4.107,-8.734 -1.858,-2.676 -4.787,-5.536 -7.77,-6.334 -9.583,-2.564 -18.958,-0.739 -27.793,3.626 -1.336,0.66 -2.349,1.975 -4.483,3.832"
       style="fill:#ffffff;fill-opacity:1;fill-rule:nonzero;stroke:none"
       id="path336" /><path
       inkscape:connector-curvature="0"
       d="m 369.5424,579.1061 c -7.676,-0.766 -13.938,3.647 -18.46,12.736 8.874,1.694 14.839,-2.315 18.46,-12.736"
       style="fill:#ffffff;fill-opacity:1;fill-rule:nonzero;stroke:none"
       id="path340" /><path
       inkscape:connector-curvature="0"
       d="m 362.4381,577.8452 c 2.543,-0.515 5.085,-1.03 8.369,-1.695 -5.973,-4.407 -7.789,-14.634 -19.076,-10.43 3.834,4.306 7.356,8.26 10.855,12.201 -0.022,-0.013 -0.148,-0.076 -0.148,-0.076"
       style="fill:#ffffff;fill-opacity:1;fill-rule:nonzero;stroke:none"
       id="path344" /><path
       inkscape:connector-curvature="0"
       d="m 482.3288,571.5972 c -3.325,-5.123 -7.018,-10.05 -9.88,-15.419 -3.569,-6.694 -6.362,-13.797 -9.704,-20.619 -0.706,-1.441 -2.338,-2.429 -4.354,-2.927 7.121,13.65 10.906,29.116 23.938,38.965"
       style="fill:#ffffff;fill-opacity:1;fill-rule:nonzero;stroke:none"
       id="path348" /><path
       inkscape:connector-curvature="0"
       d="m 462.0616,524.9841 c 1.239,-0.687 2.477,-1.374 3.879,-2.152 -6.354,-6.515 -18.759,-6.218 -26.52,0.086 4.425,4.475 15.931,5.426 22.819,1.889 -6.114,0.199 -12.26,0.634 -17.909,-3.082 4.802,-0.868 9.612,-1.148 14.349,-0.679 1.245,0.123 2.261,2.562 3.382,3.938"
       style="fill:#ffffff;fill-opacity:1;fill-rule:nonzero;stroke:none"
       id="path352" /><path
       inkscape:connector-curvature="0"
       d="m 379.7536,578.0006 c -3.257,0.854 -6.41,0.734 -7.257,2.073 -2.976,4.707 -5.16,9.916 -7.089,15.228 7.806,-2.8 10.62,-9.48 14.346,-17.301"
       style="fill:#ffffff;fill-opacity:1;fill-rule:nonzero;stroke:none"
       id="path356" /><path
       inkscape:connector-curvature="0"
       d="m 489.3605,581.455 c 7.157,13.401 23.224,27.685 26.783,25.546 -8.921,-8.51 -17.852,-17.028 -26.783,-25.546"
       style="fill:#ffffff;fill-opacity:1;fill-rule:nonzero;stroke:none"
       id="path360" /><path
       inkscape:connector-curvature="0"
       d="m 359.3966,580.3337 c -11.493,-2.452 -13.492,-2.011 -19.141,4.218 4.416,2.865 10.435,2.496 14.287,-0.751 1.519,-1.28 3.233,-2.328 4.858,-3.482 z"
       style="fill:#ffffff;fill-opacity:1;fill-rule:nonzero;stroke:none"
       id="path364" /><path
       inkscape:connector-curvature="0"
       d="m 441.9722,552.3123 c -3.758,-9.07 -7.515,-18.14 -11.682,-28.197 -2.162,9.455 4.147,23.421 11.783,28.095 0.001,0 -0.101,0.102 -0.101,0.102"
       style="fill:#ffffff;fill-opacity:1;fill-rule:nonzero;stroke:none"
       id="path368" /><path
       inkscape:connector-curvature="0"
       d="m 400.057,563.4744 c -2.438,-5.987 -9.053,-8.102 -14.838,-5.008 4.208,3.766 8.408,6.782 14.838,5.008"
       style="fill:#ffffff;fill-opacity:1;fill-rule:nonzero;stroke:none"
       id="path372" /><path
       inkscape:connector-curvature="0"
       d="m 359.4002,580.3187 c 0.998,-0.835 1.996,-1.671 3.016,-2.49 0.022,0.016 0.148,0.08 0.17,0.093 -1.763,-1.018 -4.198,-1.618 -5.215,-3.157 -3.557,-5.381 -7.374,-4.233 -12.928,-0.356 4.181,1.323 7.458,2.236 10.634,3.419 1.538,0.572 2.886,1.652 4.32,2.504 -10e-4,0.002 0.003,-0.013 0.003,-0.013"
       style="fill:#ffffff;fill-opacity:1;fill-rule:nonzero;stroke:none"
       id="path376" /><path
       inkscape:connector-curvature="0"
       d="m 395.8965,557.4249 c -2.526,-10.366 -5.463,-12.504 -12.776,-9.32 4.723,3.445 8.749,6.383 12.776,9.32"
       style="fill:#ffffff;fill-opacity:1;fill-rule:nonzero;stroke:none"
       id="path380" /><path
       inkscape:connector-curvature="0"
       d="m 404.4202,561.22 c 3.77,-3.963 9.877,-4.348 10.651,-10.607 -7.384,-0.222 -10.814,2.979 -10.651,10.607"
       style="fill:#ffffff;fill-opacity:1;fill-rule:nonzero;stroke:none"
       id="path384" /><path
       inkscape:connector-curvature="0"
       d="m 406.3865,564.6422 c 3.283,-0.748 6.654,-1.255 9.792,-2.4 0.877,-0.321 1.066,-2.526 1.57,-3.867 -1.264,-0.258 -2.791,-1.097 -3.742,-0.666 -2.907,1.319 -5.591,3.127 -8.362,4.745 0.248,0.729 0.495,1.459 0.742,2.188"
       style="fill:#ffffff;fill-opacity:1;fill-rule:nonzero;stroke:none"
       id="path388" /><path
       inkscape:connector-curvature="0"
       d="m 389.0308,535.4457 c -2.332,7.081 2.813,9.475 6.408,13.534 1.339,-6.555 -2.305,-9.811 -6.408,-13.534"
       style="fill:#ffffff;fill-opacity:1;fill-rule:nonzero;stroke:none"
       id="path392" /><path
       inkscape:connector-curvature="0"
       d="m 471.2185,597.8541 c 5.18,5.032 10.36,10.063 15.54,15.095 0.414,-0.435 0.829,-0.87 1.243,-1.305 -5.233,-5.002 -10.466,-10.004 -15.699,-15.006 -0.361,0.406 -0.723,0.811 -1.084,1.216"
       style="fill:#ffffff;fill-opacity:1;fill-rule:nonzero;stroke:none"
       id="path396" /><path
       inkscape:connector-curvature="0"
       d="m 405.6596,586.287 c -5.963,0.733 -10.072,4.476 -13.863,8.725 5.891,-0.836 9.104,-5.928 13.712,-8.818 0.017,0.012 0.151,0.093 0.151,0.093"
       style="fill:#ffffff;fill-opacity:1;fill-rule:nonzero;stroke:none"
       id="path400" /><path
       inkscape:connector-curvature="0"
       d="m 512.2327,609.9263 c -3.319,-3.138 -6.637,-6.276 -9.956,-9.414 2.382,4.155 3.847,9.172 8.73,10.901 0.409,-0.496 0.817,-0.991 1.226,-1.487"
       style="fill:#ffffff;fill-opacity:1;fill-rule:nonzero;stroke:none"
       id="path404" /><path
       inkscape:connector-curvature="0"
       d="m 226.4875,490.2094 c -2.269,3.71 -4.019,7.559 -6.651,10.657 -4.578,5.388 -9.148,11.057 -14.75,15.224 -5.643,4.199 -12.487,2.656 -15.695,-2.333 -2.488,-3.868 -2.978,-10.145 3.533,-15.752 9.935,-8.555 21.391,-9.469 33.563,-7.796 m 5.593,-2.683 c -5.585,0.142 -12.618,0.472 -19.649,0.462 -9.887,-0.013 -17.211,5.196 -23.595,11.786 -3.797,3.918 -3.76,12.139 -0.867,15.497 4.588,5.327 10.431,6.912 16.313,2.999 5.397,-3.589 10.434,-8.042 14.703,-12.924 5.186,-5.931 9.402,-12.711 13.095,-17.82"
       style="fill:#231f20;fill-opacity:1;fill-rule:nonzero;stroke:none"
       id="path408" /><path
       inkscape:connector-curvature="0"
       d="m 238.8464,493.9451 c 6.405,-5.035 12.852,-10.018 19.186,-15.141 1.555,-1.258 2.742,-2.972 4.099,-4.476 -5.312,3.632 -10.842,6.991 -15.85,11.001 -2.911,2.331 -4.985,5.709 -7.435,8.616"
       style="fill:#231f20;fill-opacity:1;fill-rule:nonzero;stroke:none"
       id="path412" /><path
       inkscape:connector-curvature="0"
       d="m 458.047,547.4439 c 5.577,12.981 11.264,25.893 21.639,35.946 -7.213,-11.982 -14.426,-23.964 -21.639,-35.946"
       style="fill:#231f20;fill-opacity:1;fill-rule:nonzero;stroke:none"
       id="path416" /><path
       inkscape:connector-curvature="0"
       d="m 462.0616,524.9841 c -1.121,-1.376 -2.137,-3.815 -3.382,-3.938 -4.737,-0.469 -9.547,-0.189 -14.349,0.679 5.649,3.716 11.795,3.281 17.909,3.082 0.004,-10e-4 -0.178,0.177 -0.178,0.177"
       style="fill:#231f20;fill-opacity:1;fill-rule:nonzero;stroke:none"
       id="path420" /><path
       inkscape:connector-curvature="0"
       d="m 219.7267,494.1545 c -5.454,5.965 -9.909,11.011 -14.56,15.868 -3.481,3.636 -7.802,3.904 -10.576,0.974 -2.22,-2.344 -1.105,-9.374 1.933,-11.592 6.694,-4.888 14.52,-4.526 23.203,-5.25 m 6.761,-3.945 c -12.172,-1.674 -23.628,-0.76 -33.563,7.796 -6.511,5.607 -6.021,11.883 -3.533,15.752 3.208,4.989 10.052,6.532 15.695,2.333 5.602,-4.168 10.172,-9.836 14.749,-15.224 2.633,-3.099 4.383,-6.947 6.652,-10.657"
       style="fill:#ffffff;fill-opacity:1;fill-rule:nonzero;stroke:none"
       id="path424" /><path
       inkscape:connector-curvature="0"
       d="m 214.6637,496.2417 c -4.31,4.964 -7.78,9.028 -11.327,13.022 -2.223,2.503 -4.989,2.848 -7.261,0.463 -2.287,-2.402 -2.353,-5.188 0.309,-7.788 4.853,-4.738 10.873,-5.462 18.279,-5.697 m 5.063,-2.087 c -8.683,0.724 -16.509,0.362 -23.203,5.25 -3.038,2.218 -4.153,9.248 -1.933,11.592 2.774,2.93 7.095,2.662 10.576,-0.974 4.651,-4.857 9.106,-9.903 14.56,-15.868"
       style="fill:#231f20;fill-opacity:1;fill-rule:nonzero;stroke:none"
       id="path428" /><path
       inkscape:connector-curvature="0"
       d="m 214.6637,496.2417 c -7.406,0.235 -13.426,0.959 -18.279,5.697 -2.662,2.6 -2.596,5.386 -0.309,7.788 2.272,2.385 5.038,2.04 7.261,-0.463 3.547,-3.994 7.017,-8.058 11.327,-13.022"
       style="fill:#ffffff;fill-opacity:1;fill-rule:nonzero;stroke:none"
       id="path432" /></g><text
     style="font-variant:normal;font-weight:normal;font-stretch:normal;font-size:89.33332825px;font-family:Alegreya;-inkscape-font-specification:Alegreya-Regular;writing-mode:lr-tb;fill:#231f20;fill-opacity:1;fill-rule:nonzero;stroke:none;stroke-width:1.33333325"
     id="text436"
     x="-3.573333"
     y="380.88217"><tspan
       x="-3.573333"
       y="380.88217"
       id="tspan434"
       style="stroke-width:1.33333325">C</tspan></text>
<text
     style="font-variant:normal;font-weight:normal;font-stretch:normal;font-size:70.66666412px;font-family:Alegreya;-inkscape-font-specification:Alegreya-Regular;writing-mode:lr-tb;fill:#231f20;fill-opacity:1;fill-rule:nonzero;stroke:none;stroke-width:1.33333325"
     id="text440"
     x="57.083466"
     y="380.88217"><tspan
       x="57.083466 101.46213 154.67413 199.97147 263.35947 292.40347 336.7821"
       y="380.88217"
       id="tspan438"
       style="stroke-width:1.33333325">ADMIA </tspan></text>
<text
     style="font-variant:normal;font-weight:normal;font-stretch:normal;font-size:89.33332825px;font-family:Alegreya;-inkscape-font-specification:Alegreya-Regular;writing-mode:lr-tb;fill:#231f20;fill-opacity:1;fill-rule:nonzero;stroke:none;stroke-width:1.33333325"
     id="text444"
     x="354.58478"
     y="380.88217"><tspan
       x="354.58478"
       y="380.88217"
       id="tspan442"
       style="stroke-width:1.33333325">S</tspan></text>
<text
     style="font-variant:normal;font-weight:normal;font-stretch:normal;font-size:70.66666412px;font-family:Alegreya;-inkscape-font-specification:Alegreya-Regular;writing-mode:lr-tb;fill:#231f20;fill-opacity:1;fill-rule:nonzero;stroke:none;stroke-width:1.33333325"
     id="text448"
     x="406.39868"
     y="380.88217"><tspan
       x="406.39868 435.44263 483.42529 512.4693 551.83063 580.87463 625.2533 679.59595"
       y="380.88217"
       id="tspan446"
       style="stroke-width:1.33333325">ICILIANA</tspan></text>
</svg>