<?xml version="1.0" encoding="UTF-8" standalone="no"?>
<svg
   xmlns:dc="http://purl.org/dc/elements/1.1/"
   xmlns:cc="http://creativecommons.org/ns#"
   xmlns:rdf="http://www.w3.org/1999/02/22-rdf-syntax-ns#"
   xmlns:svg="http://www.w3.org/2000/svg"
   xmlns="http://www.w3.org/2000/svg"
   xmlns:xlink="http://www.w3.org/1999/xlink"
   xmlns:sodipodi="http://sodipodi.sourceforge.net/DTD/sodipodi-0.dtd"
   xmlns:inkscape="http://www.inkscape.org/namespaces/inkscape"
   height="60"
   width="160"
   version="1.0"
   viewBox="-2100 -1470 933.33334 350"
   id="svg2"
   inkscape:version="0.92.1 r15371"
   sodipodi:docname="launcher-xxxhdpi.svg">
  <metadata
     id="metadata118">
    <rdf:RDF>
      <cc:Work
         rdf:about="">
        <dc:format>image/svg+xml</dc:format>
        <dc:type
           rdf:resource="http://purl.org/dc/dcmitype/StillImage" />
        <dc:title />
      </cc:Work>
    </rdf:RDF>
  </metadata>
  <sodipodi:namedview
     pagecolor="#ffffff"
     bordercolor="#666666"
     borderopacity="1"
     objecttolerance="10"
     gridtolerance="10"
     guidetolerance="10"
     inkscape:pageopacity="0"
     inkscape:pageshadow="2"
     inkscape:window-width="960"
     inkscape:window-height="1030"
     id="namedview116"
     showgrid="false"
     fit-margin-top="0"
     fit-margin-left="0"
     fit-margin-right="0"
     fit-margin-bottom="0"
     inkscape:zoom="1.8474082"
     inkscape:cx="68.918481"
     inkscape:cy="60.441232"
     inkscape:window-x="960"
     inkscape:window-y="27"
     inkscape:window-maximized="0"
     inkscape:current-layer="svg2" />
  <defs
     id="defs4">
    <path
       id="D"
       d="m -31.5,0 33,0 a 30,30 0 0 0 30,-30 l 0,-10 a 30,30 0 0 0 -30,-30 l -33,0 z m 13,-13 19,0 a 19,19 0 0 0 19,-19 l 0,-6 a 19,19 0 0 0 -19,-19 l -19,0 z"
       inkscape:connector-curvature="0"
       style="fill-rule:evenodd" />
    <path
       id="E"
       transform="translate(-31.5,0)"
       d="m 0,0 63,0 0,-13 -51,0 0,-18 40,0 0,-12 -40,0 0,-14 48,0 0,-13 -60,0 z"
       inkscape:connector-curvature="0" />
    <path
       id="e"
       d="m -26.25,0 52.5,0 0,-12 -40.5,0 0,-16 33,0 0,-12 -33,0 0,-11 39.25,0 0,-12 -51.25,0 z"
       inkscape:connector-curvature="0" />
    <g
       id="G">
      <clipPath
         id="gcut">
        <path
           d="m -31.5,0 0,-70 63,0 0,70 z M 0,-47 l 0,12 31.5,0 0,-12 z"
           id="path11"
           inkscape:connector-curvature="0" />
      </clipPath>
      <use
         xlink:href="#O"
         clip-path="url(#gcut)"
         id="use13"
         x="0"
         y="0"
         width="100%"
         height="100%" />
      <rect
         y="-35"
         x="5"
         height="10"
         width="26.5"
         id="rect15" />
      <rect
         y="-35"
         x="21.5"
         height="35"
         width="10"
         id="rect17" />
    </g>
    <path
       id="M"
       d="m -31.5,0 12,0 0,-48 14,48 11,0 14,-48 0,48 12,0 0,-70 -17.5,0 -14,48 -14,-48 -17.5,0 z"
       inkscape:connector-curvature="0" />
    <path
       id="O"
       d="M 0,0 A 31.5,35 0 0 0 0,-70 31.5,35 0 0 0 0,0 m 0,-13 a 18.5,22 0 0 0 0,-44 18.5,22 0 0 0 0,44"
       inkscape:connector-curvature="0"
       style="fill-rule:evenodd" />
    <path
       id="P"
       d="m -31.5,0 13,0 0,-26 28,0 a 22,22 0 0 0 0,-44 l -40,0 z m 13,-39 27,0 a 9,9 0 0 0 0,-18 l -27,0 z"
       inkscape:connector-curvature="0"
       style="fill-rule:evenodd" />
    <g
       id="R">
      <use
         xlink:href="#P"
         id="use23"
         x="0"
         y="0"
         width="100%"
         height="100%" />
      <path
         d="m 28,0 c 0,-10 0,-32 -15,-32 l -19,0 c 22,0 22,22 22,32"
         id="path25"
         inkscape:connector-curvature="0" />
    </g>
    <path
       id="S"
       d="m -15.75,-22 c 0,7 6.75,10.5 16.75,10.5 10,0 14.74,-3.25 14.75,-7.75 C 15.75,-33.5 -31,-24.5 -30.75,-49.5 -30.5,-71 -6,-70 3,-70 c 9,0 26,4 25.75,21.25 l -15.25,0 c 0,-7.5 -7,-10.25 -15,-10.25 -7.75,0 -13.25,1.25 -13.25,8.5 -0.25,11.75 46.25,4 46.25,28.75 C 31.5,-3.5 13.5,0 0,0 -11.5,0 -31.55,-4.5 -31.5,-22 Z"
       inkscape:connector-curvature="0" />
    <g
       id="star"
       style="fill:#ffffff">
      <g
         id="c">
        <path
           id="t"
           transform="matrix(0.95105652,0.30901699,-0.30901699,0.95105652,-0.30901699,-0.04894348)"
           d="M 0,-1 0,0 0.5,0"
           inkscape:connector-curvature="0" />
        <use
           xlink:href="#t"
           transform="scale(-1,1)"
           id="use31"
           x="0"
           y="0"
           width="100%"
           height="100%" />
      </g>
      <use
         xlink:href="#c"
         transform="matrix(0.30901699,0.95105652,-0.95105652,0.30901699,0,0)"
         id="use33"
         x="0"
         y="0"
         width="100%"
         height="100%" />
      <use
         xlink:href="#c"
         transform="matrix(0.30901699,-0.95105652,0.95105652,0.30901699,0,0)"
         id="use35"
         x="0"
         y="0"
         width="100%"
         height="100%" />
      <use
         xlink:href="#c"
         transform="matrix(-0.80901699,0.58778525,-0.58778525,-0.80901699,0,0)"
         id="use37"
         x="0"
         y="0"
         width="100%"
         height="100%" />
      <use
         xlink:href="#c"
         transform="matrix(-0.80901699,-0.58778525,0.58778525,-0.80901699,0,0)"
         id="use39"
         x="0"
         y="0"
         width="100%"
         height="100%" />
    </g>
    <use
       id="star1"
       xlink:href="#star"
       transform="scale(31.5,31.5)"
       x="0"
       y="0"
       width="100%"
       height="100%" />
    <use
       id="star2"
       xlink:href="#star"
       transform="scale(26.25,26.25)"
       x="0"
       y="0"
       width="100%"
       height="100%" />
    <use
       id="star3"
       xlink:href="#star"
       transform="scale(21,21)"
       x="0"
       y="0"
       width="100%"
       height="100%" />
    <use
       id="star4"
       xlink:href="#star"
       transform="scale(15,15)"
       x="0"
       y="0"
       width="100%"
       height="100%" />
    <use
       id="star5"
       xlink:href="#star"
       transform="scale(10.5,10.5)"
       x="0"
       y="0"
       width="100%"
       height="100%" />
    <linearGradient
       id="linearGradient2905"
       y2="43.865002"
       gradientUnits="userSpaceOnUse"
       x2="24"
       gradientTransform="matrix(2.6445,0,0,2.6758,0.53145,-0.57)"
       y1="7.96"
       x1="24">
      <stop
         id="stop4324-9-7"
         style="stop-color:#f0f0f0"
         offset="0" />
      <stop
         id="stop2860-4-4"
         style="stop-color:#d7d7d8"
         offset=".085525" />
      <stop
         id="stop2862-5-9"
         style="stop-color:#b2b2b3"
         offset=".92166" />
      <stop
         id="stop4326-1-1"
         style="stop-color:#979798"
         offset="1" />
    </linearGradient>
    <linearGradient
       id="linearGradient2907"
       y2="2.8764999"
       gradientUnits="userSpaceOnUse"
       x2="10.014"
       gradientTransform="matrix(2.532,0,0,2.4175,3.232,10.951)"
       y1="44.959999"
       x1="10.014">
      <stop
         id="stop4334-7-6"
         style="stop-color:#595959"
         offset="0" />
      <stop
         id="stop4336-8-0"
         style="stop-color:#b3b3b3"
         offset="1" />
    </linearGradient>
    <radialGradient
       id="radialGradient2900"
       gradientUnits="userSpaceOnUse"
       cy="8.4497995"
       cx="7.4956999"
       gradientTransform="matrix(0,4.6588,-7.9722,-1.9658e-7,131.36,-4.244)"
       r="20">
      <stop
         id="stop3790-0-0"
         style="stop-color:#505050"
         offset="0" />
      <stop
         id="stop3792-0-2"
         style="stop-color:#141414"
         offset="1" />
    </radialGradient>
    <linearGradient
       id="linearGradient2902"
       y2="44"
       gradientUnits="userSpaceOnUse"
       x2="16.143"
       gradientTransform="matrix(2.5899,0,0,2.0258,1.8426,20.381)"
       y1="4"
       x1="16.143">
      <stop
         id="stop3796-3-0"
         style="stop-color:#323232"
         offset="0" />
      <stop
         id="stop3798-8-6"
         offset="1" />
    </linearGradient>
    <linearGradient
       id="linearGradient2897"
       y2="33.296001"
       gradientUnits="userSpaceOnUse"
       x2="23.070999"
       gradientTransform="matrix(2.6175,0,0,2.643,1.1955,16.249)"
       y1="36.047001"
       x1="23.070999">
      <stop
         id="stop2225-6-4-7"
         style="stop-color:#fff"
         offset="0" />
      <stop
         id="stop2229-2-5-5"
         style="stop-color:#fff;stop-opacity:0"
         offset="1" />
    </linearGradient>
    <linearGradient
       id="linearGradient2894"
       y2="47.278999"
       gradientUnits="userSpaceOnUse"
       x2="12.213"
       gradientTransform="matrix(2.5977,0,0,2.4848,1.6531,11.864)"
       y1="2.9165001"
       x1="12.579">
      <stop
         id="stop2240-1-6-7-0"
         style="stop-color:#fff"
         offset="0" />
      <stop
         id="stop2242-7-3-7-2"
         style="stop-color:#fff;stop-opacity:0"
         offset="1" />
    </linearGradient>
    <linearGradient
       id="linearGradient2890"
       y2="26"
       xlink:href="#linearGradient3680-6"
       gradientUnits="userSpaceOnUse"
       x2="20"
       gradientTransform="matrix(2.625,0,0,2.5,0.74999,7)"
       y1="28"
       x1="20" />
    <linearGradient
       id="linearGradient3680-6">
      <stop
         id="stop3682-4"
         style="stop-color:#dcdcdc"
         offset="0" />
      <stop
         id="stop3684-8"
         style="stop-color:#fff"
         offset="1" />
    </linearGradient>
    <linearGradient
       id="linearGradient2886"
       y2="16"
       xlink:href="#linearGradient3680-6"
       gradientUnits="userSpaceOnUse"
       x2="16"
       gradientTransform="matrix(2.6286,0,0,2.6364,-2.2857,0.818)"
       y1="27.045"
       x1="16" />
    <linearGradient
       id="linearGradient2883"
       y2="24.628"
       gradientUnits="userSpaceOnUse"
       x2="20.055"
       gradientTransform="matrix(2.5687,0,0,2.7869,2.351,3.366)"
       y1="15.298"
       x1="16.625999">
      <stop
         id="stop2687-1-9-0-2"
         style="stop-color:#fff"
         offset="0" />
      <stop
         id="stop2689-5-4-3-1"
         style="stop-color:#fff;stop-opacity:0"
         offset="1" />
    </linearGradient>
    <linearGradient
       id="linearGradient2880"
       y2="44"
       gradientUnits="userSpaceOnUse"
       x2="16.143"
       gradientTransform="matrix(2.5386,0,0,1.9745,3.0734,21.612)"
       y1="4"
       x1="16.143">
      <stop
         id="stop2225-6-4-7-2"
         style="stop-color:#fff"
         offset="0" />
      <stop
         id="stop2229-2-5-5-8"
         style="stop-color:#fff;stop-opacity:0"
         offset="1" />
    </linearGradient>
  </defs>
  <clipPath
     id="band">
    <circle
       r="735"
       id="circle53"
       cx="0"
       cy="0" />
  </clipPath>
  <g
     id="g5141"
     transform="matrix(3.4999965,0,0,3.4999965,-1598.2472,-1536.4998)">
    <rect
       id="rect2551-5-8"
       style="fill:url(#linearGradient2905);fill-rule:evenodd;stroke:url(#linearGradient2907);stroke-width:1.00209999;stroke-linecap:round;stroke-linejoin:round"
       rx="3"
       ry="3"
       height="98.998001"
       width="119"
       y="19.500999"
       x="4.5011001" />
    <rect
       id="rect1314-3-3"
       style="color:#000000;fill:url(#radialGradient2900);stroke:url(#linearGradient2902);stroke-linecap:round;stroke-linejoin:round"
       rx="0"
       ry="0"
       height="79"
       width="101"
       y="29.5"
       x="13.5" />
    <rect
       id="rect2221-3-8"
       style="opacity:0.4;fill:none;stroke:url(#linearGradient2897);stroke-width:1.00209999;stroke-linecap:round;stroke-linejoin:round"
       rx="0"
       ry="0"
       height="80.998001"
       width="103"
       y="28.500999"
       x="12.501" />
    <rect
       id="rect2556-8-5"
       style="opacity:0.8;fill:none;stroke:url(#linearGradient2894);stroke-width:1.00370002;stroke-linecap:round;stroke-linejoin:round"
       rx="2"
       ry="2"
       height="96.996002"
       width="117"
       y="20.501999"
       x="5.5019002" />
    <path
       id="path3651-7-2"
       style="opacity:0.4"
       d="M 69,79 V 74 H 48 v 5 z"
       inkscape:connector-curvature="0" />
    <path
       id="path3651-2"
       style="fill:url(#linearGradient2890)"
       d="M 69,77 V 72 H 48 v 5 z"
       inkscape:connector-curvature="0" />
    <path
       id="path3653-3-2"
       style="opacity:0.4"
       d="M 29.257,74 23.9999,68.7273 35.8289,59.5 23.9999,50.2727 29.257,45 47,59.5 Z"
       inkscape:connector-curvature="0" />
    <path
       id="path3653-7"
       style="fill:url(#linearGradient2886)"
       d="M 29.257,72 23.9999,66.7273 35.8289,57.5 23.9999,48.2727 29.257,43 47,57.5 Z"
       inkscape:connector-curvature="0" />
    <path
       id="path3333-3-0"
       style="opacity:0.2;fill:url(#linearGradient2883);fill-rule:evenodd"
       d="M 10.619,20 C 7.5153,20 5,22.729 5,26.096 v 44.59 c 0.00805,0.37512 0.15876,0.72986 0.41807,0.9781 0.25933,0.24823 0.6026,0.36729 0.94655,0.32824 l 115.6,-19.856 c 0.59462,-0.10173 1.0352,-0.65334 1.0436,-1.3063 v -24.734 c 0,-3.3673 -2.5153,-6.0963 -5.6191,-6.0963 h -106.76 z"
       inkscape:connector-curvature="0" />
    <rect
       id="rect1314-3-3-9"
       style="color:#000000;opacity:0.1;fill:none;stroke:url(#linearGradient2880);stroke-linecap:round;stroke-linejoin:round"
       rx="0"
       ry="0"
       height="77"
       width="99"
       y="30.5"
       x="14.5" />
  </g>
</svg>
