<?xml version="1.0" encoding="UTF-8" standalone="no"?>
<svg
   xmlns:dc="http://purl.org/dc/elements/1.1/"
   xmlns:cc="http://creativecommons.org/ns#"
   xmlns:rdf="http://www.w3.org/1999/02/22-rdf-syntax-ns#"
   xmlns:svg="http://www.w3.org/2000/svg"
   xmlns="http://www.w3.org/2000/svg"
   xmlns:xlink="http://www.w3.org/1999/xlink"
   xmlns:sodipodi="http://sodipodi.sourceforge.net/DTD/sodipodi-0.dtd"
   xmlns:inkscape="http://www.inkscape.org/namespaces/inkscape"
   height="59.792"
   width="106.289"
   version="1.0"
   viewBox="-2100 -1470 620.01918 348.78667"
   id="svg2"
   inkscape:version="0.91 r13725"
   sodipodi:docname="launcher-xxxhdpi.svg">
  <metadata
     id="metadata118">
    <rdf:RDF>
      <cc:Work
         rdf:about="">
        <dc:format>image/svg+xml</dc:format>
        <dc:type
           rdf:resource="http://purl.org/dc/dcmitype/StillImage" />
        <dc:title></dc:title>
      </cc:Work>
    </rdf:RDF>
  </metadata>
  <sodipodi:namedview
     pagecolor="#ffffff"
     bordercolor="#666666"
     borderopacity="1"
     objecttolerance="10"
     gridtolerance="10"
     guidetolerance="10"
     inkscape:pageopacity="0"
     inkscape:pageshadow="2"
     inkscape:window-width="1366"
     inkscape:window-height="717"
     id="namedview116"
     showgrid="false"
     fit-margin-top="0"
     fit-margin-left="0"
     fit-margin-right="0"
     fit-margin-bottom="0"
     inkscape:zoom="2.5769103"
     inkscape:cx="16.441181"
     inkscape:cy="9.0723111"
     inkscape:window-x="0"
     inkscape:window-y="0"
     inkscape:window-maximized="1"
     inkscape:current-layer="svg2" />
  <defs
     id="defs4">
    <path
       id="D"
       d="m -31.5,0 33,0 a 30,30 0 0 0 30,-30 l 0,-10 a 30,30 0 0 0 -30,-30 l -33,0 z m 13,-13 19,0 a 19,19 0 0 0 19,-19 l 0,-6 a 19,19 0 0 0 -19,-19 l -19,0 z"
       inkscape:connector-curvature="0"
       style="fill-rule:evenodd" />
    <path
       id="E"
       transform="translate(-31.5,0)"
       d="m 0,0 63,0 0,-13 -51,0 0,-18 40,0 0,-12 -40,0 0,-14 48,0 0,-13 -60,0 z"
       inkscape:connector-curvature="0" />
    <path
       id="e"
       d="m -26.25,0 52.5,0 0,-12 -40.5,0 0,-16 33,0 0,-12 -33,0 0,-11 39.25,0 0,-12 -51.25,0 z"
       inkscape:connector-curvature="0" />
    <g
       id="G">
      <clipPath
         id="gcut">
        <path
           d="m -31.5,0 0,-70 63,0 0,70 z M 0,-47 l 0,12 31.5,0 0,-12 z"
           id="path11"
           inkscape:connector-curvature="0" />
      </clipPath>
      <use
         xlink:href="#O"
         clip-path="url(#gcut)"
         id="use13"
         x="0"
         y="0"
         width="100%"
         height="100%" />
      <rect
         y="-35"
         x="5"
         height="10"
         width="26.5"
         id="rect15" />
      <rect
         y="-35"
         x="21.5"
         height="35"
         width="10"
         id="rect17" />
    </g>
    <path
       id="M"
       d="m -31.5,0 12,0 0,-48 14,48 11,0 14,-48 0,48 12,0 0,-70 -17.5,0 -14,48 -14,-48 -17.5,0 z"
       inkscape:connector-curvature="0" />
    <path
       id="O"
       d="M 0,0 A 31.5,35 0 0 0 0,-70 31.5,35 0 0 0 0,0 m 0,-13 a 18.5,22 0 0 0 0,-44 18.5,22 0 0 0 0,44"
       inkscape:connector-curvature="0"
       style="fill-rule:evenodd" />
    <path
       id="P"
       d="m -31.5,0 13,0 0,-26 28,0 a 22,22 0 0 0 0,-44 l -40,0 z m 13,-39 27,0 a 9,9 0 0 0 0,-18 l -27,0 z"
       inkscape:connector-curvature="0"
       style="fill-rule:evenodd" />
    <g
       id="R">
      <use
         xlink:href="#P"
         id="use23"
         x="0"
         y="0"
         width="100%"
         height="100%" />
      <path
         d="m 28,0 c 0,-10 0,-32 -15,-32 l -19,0 c 22,0 22,22 22,32"
         id="path25"
         inkscape:connector-curvature="0" />
    </g>
    <path
       id="S"
       d="m -15.75,-22 c 0,7 6.75,10.5 16.75,10.5 10,0 14.74,-3.25 14.75,-7.75 C 15.75,-33.5 -31,-24.5 -30.75,-49.5 -30.5,-71 -6,-70 3,-70 c 9,0 26,4 25.75,21.25 l -15.25,0 c 0,-7.5 -7,-10.25 -15,-10.25 -7.75,0 -13.25,1.25 -13.25,8.5 -0.25,11.75 46.25,4 46.25,28.75 C 31.5,-3.5 13.5,0 0,0 -11.5,0 -31.55,-4.5 -31.5,-22 Z"
       inkscape:connector-curvature="0" />
    <g
       id="star"
       style="fill:#ffffff">
      <g
         id="c">
        <path
           id="t"
           transform="matrix(0.95105652,0.30901699,-0.30901699,0.95105652,-0.30901699,-0.04894348)"
           d="M 0,-1 0,0 0.5,0"
           inkscape:connector-curvature="0" />
        <use
           xlink:href="#t"
           transform="scale(-1,1)"
           id="use31"
           x="0"
           y="0"
           width="100%"
           height="100%" />
      </g>
      <use
         xlink:href="#c"
         transform="matrix(0.30901699,0.95105652,-0.95105652,0.30901699,0,0)"
         id="use33"
         x="0"
         y="0"
         width="100%"
         height="100%" />
      <use
         xlink:href="#c"
         transform="matrix(0.30901699,-0.95105652,0.95105652,0.30901699,0,0)"
         id="use35"
         x="0"
         y="0"
         width="100%"
         height="100%" />
      <use
         xlink:href="#c"
         transform="matrix(-0.80901699,0.58778525,-0.58778525,-0.80901699,0,0)"
         id="use37"
         x="0"
         y="0"
         width="100%"
         height="100%" />
      <use
         xlink:href="#c"
         transform="matrix(-0.80901699,-0.58778525,0.58778525,-0.80901699,0,0)"
         id="use39"
         x="0"
         y="0"
         width="100%"
         height="100%" />
    </g>
    <use
       id="star1"
       xlink:href="#star"
       transform="scale(31.5,31.5)"
       x="0"
       y="0"
       width="100%"
       height="100%" />
    <use
       id="star2"
       xlink:href="#star"
       transform="scale(26.25,26.25)"
       x="0"
       y="0"
       width="100%"
       height="100%" />
    <use
       id="star3"
       xlink:href="#star"
       transform="scale(21,21)"
       x="0"
       y="0"
       width="100%"
       height="100%" />
    <use
       id="star4"
       xlink:href="#star"
       transform="scale(15,15)"
       x="0"
       y="0"
       width="100%"
       height="100%" />
    <use
       id="star5"
       xlink:href="#star"
       transform="scale(10.5,10.5)"
       x="0"
       y="0"
       width="100%"
       height="100%" />
    <inkscape:perspective
       id="perspective15"
       inkscape:persp3d-origin="212.38251 : 99.327667 : 1"
       inkscape:vp_z="424.76501 : 148.9915 : 1"
       inkscape:vp_y="0 : 1000 : 0"
       inkscape:vp_x="0 : 148.9915 : 1"
       sodipodi:type="inkscape:persp3d" />
    <marker
       orient="auto"
       markerHeight="3"
       markerWidth="4"
       markerUnits="strokeWidth"
       refY="5"
       refX="0"
       viewBox="0 0 10 10"
       id="ArrowEnd">
      <path
         inkscape:connector-curvature="0"
         id="path7"
         d="M 0,0 10,5 0,10 0,0 z" />
    </marker>
    <marker
       orient="auto"
       markerHeight="3"
       markerWidth="4"
       markerUnits="strokeWidth"
       refY="5"
       refX="10"
       viewBox="0 0 10 10"
       id="ArrowStart">
      <path
         inkscape:connector-curvature="0"
         id="path10"
         d="M 10,0 0,5 10,10 10,0 z" />
    </marker>
  </defs>
  <clipPath
     id="band">
    <circle
       r="735"
       id="circle53"
       cx="0"
       cy="0" />
  </clipPath>
  <g
     id="g9349"
     transform="matrix(1.4595561,0,0,1.4595562,-1954.3751,-1467.1193)"
     style="fill:#000000;stroke:#ffffff;stroke-width:3.94740677;stroke-miterlimit:4;stroke-dasharray:none;stroke-opacity:1">
    <path
       sodipodi:nodetypes="cccccssc"
       style="fill:#000000;fill-rule:evenodd;stroke:#ffffff;stroke-width:3.94740677;stroke-miterlimit:4;stroke-dasharray:none;stroke-opacity:1"
       d="m 295.39519,8.1673361 c -2.97082,4.5153129 -7.24086,12.0191519 -9.55789,16.7881549 -4.77215,9.830726 -4.48657,10.389216 11.0046,21.399183 l 7.84966,5.575608 c 8.89199,-6.78688 17.94726,-19.596852 18.32182,-29.725424 0.0492,-4.875869 -1.89965,-7.982412 -8.92397,-14.2224459 C 309.13315,3.579531 304.13087,0 302.93418,0 c -1.16846,0 -4.64244,3.7644553 -7.53899,8.1673361 z"
       id="path14"
       inkscape:connector-curvature="0" />
    <path
       sodipodi:nodetypes="ssssssssssss"
       style="fill:#000000;fill-rule:evenodd;stroke:#ffffff;stroke-width:3.94740677;stroke-miterlimit:4;stroke-dasharray:none;stroke-opacity:1"
       d="m 256.88442,19.152282 c -12.40115,29.016365 -13.94248,34.107023 -20.836,112.359998 -2.15876,24.5055 -4.80544,60.79981 27.91948,60.79981 43.09991,0 58.57911,-48.52845 59.08052,-82.52281 0.35822,-24.286356 -22.14913,-40.113845 -33.992,-24.288998 -7.00113,9.355153 -11.88445,20.734828 -12.965,30.214998 -1.21945,10.69883 3.31724,13.61098 18.325,11.758 9.47625,-1.17002 10.5948,-0.89559 11.847,2.953 0.9938,3.05441 0.10133,5.62838 -3.183,9.18 -13.41467,14.50638 -40.29846,13.82475 -47.993,-1.184 -5.19246,-10.12825 -2.79756,-62.598249 5.086,-111.370998 2.55344,-15.797252 1.33685,-18.7226349 -3.289,-7.899 z"
       id="path16"
       inkscape:connector-curvature="0" />
    <path
       style="fill:#000000;fill-rule:evenodd;stroke:#ffffff;stroke-width:3.94740677;stroke-miterlimit:4;stroke-dasharray:none;stroke-opacity:1"
       d="m 198.66853,4.7758604 c -9.08599,17.5933986 -12.84283,7.8988446 -15.51122,6.3752666 -4.04036,-0.255885 -3.01026,19.377562 -22.80178,17.390733 -12.08992,-1.213682 -18.56285,2.296147 -37.324,21.059 -14.22385,14.225147 -23.363443,31.397857 -26.487603,49.761002 -2.92284,17.179858 -0.3081,22.393248 15.233603,30.417998 14.2199,7.34225 15.76099,12.16741 8.074,25.27 -13.28201,22.63941 -33.536243,34.94106 -60.796207,36.324 -69.812648,3.54169 -41.700977,-71.53154 -27.457705,-110.413588 8.032255,-21.893598 8.248443,-24.108275 6.723306,-25.633412 -2.093849,-2.093851 -12.430735,19.745606 -25.1367,53.117 -30.751035,80.76561 -5.4142628,140.79632 52.187499,123.637 23.722004,-7.06668 43.664747,-25.49154 56.866807,-52.547 10.30994,-21.12854 16.47738,-42.26897 17.742,-60.82 0.94238,-13.82397 0.64825,-15.42934 -3.719,-20.339998 -2.63275,-2.960337 -8.68625,-7.321486 -13.625,-9.812002 -11.64725,-5.873484 -12.22526,-10.656332 -2.582,-21.387 9.58274,-10.663332 21.645,-16.266 31.215,-14.504 4.17025,0.76734 11.13879,-0.95309 18.15566,-6.42917 3.27056,-2.55241 5.33593,-5.82522 9.33839,-10.384252 25.08147,5.160812 24.05583,-38.0653226 19.90495,-31.0815776 z"
       id="path18"
       sodipodi:nodetypes="ccssssssssssssssssssc"
       inkscape:connector-curvature="0" />
    <path
       sodipodi:nodetypes="ssssssss"
       style="fill:#000000;fill-rule:evenodd;stroke:#ffffff;stroke-width:3.94740677;stroke-miterlimit:4;stroke-dasharray:none;stroke-opacity:1"
       d="m 204.68696,110.6573 c -0.54753,0.92969 -4.55178,13.13276 -8.976,27.352 -9.46178,30.40976 -15.40059,40.11172 -35.453,57.891 -30.21259,26.78772 -31.89884,29.34796 -17.774,27.07 12.63716,-2.03804 34.63731,-12.76172 41.024,-19.996 3.06231,-3.46872 8.39613,-13.62572 11.824,-22.512 7.38813,-19.15272 15.844,-65.98 12.515,-69.309 -1.187,-1.187 -2.62153,-1.41031 -3.16,-0.496 z"
       id="path20"
       inkscape:connector-curvature="0" />
  </g>
</svg>
