<?xml version="1.0" encoding="UTF-8" standalone="no"?>
<svg
   xmlns:dc="http://purl.org/dc/elements/1.1/"
   xmlns:cc="http://creativecommons.org/ns#"
   xmlns:rdf="http://www.w3.org/1999/02/22-rdf-syntax-ns#"
   xmlns:svg="http://www.w3.org/2000/svg"
   xmlns="http://www.w3.org/2000/svg"
   xmlns:xlink="http://www.w3.org/1999/xlink"
   xmlns:sodipodi="http://sodipodi.sourceforge.net/DTD/sodipodi-0.dtd"
   xmlns:inkscape="http://www.inkscape.org/namespaces/inkscape"
   height="60"
   width="160"
   version="1.0"
   viewBox="-2100 -1470 933.33334 350"
   id="svg2"
   inkscape:version="0.92.3 (2405546, 2018-03-11)"
   sodipodi:docname="launcher-xxxhdpi.svg">
  <metadata
     id="metadata118">
    <rdf:RDF>
      <cc:Work
         rdf:about="">
        <dc:format>image/svg+xml</dc:format>
        <dc:type
           rdf:resource="http://purl.org/dc/dcmitype/StillImage" />
        <dc:title></dc:title>
      </cc:Work>
    </rdf:RDF>
  </metadata>
  <sodipodi:namedview
     pagecolor="#ffffff"
     bordercolor="#666666"
     borderopacity="1"
     objecttolerance="10"
     gridtolerance="10"
     guidetolerance="10"
     inkscape:pageopacity="0"
     inkscape:pageshadow="2"
     inkscape:window-width="1292"
     inkscape:window-height="743"
     id="namedview116"
     showgrid="false"
     fit-margin-top="0"
     fit-margin-left="0"
     fit-margin-right="0"
     fit-margin-bottom="0"
     inkscape:zoom="7.389633"
     inkscape:cx="122.70887"
     inkscape:cy="31.580252"
     inkscape:window-x="77"
     inkscape:window-y="28"
     inkscape:window-maximized="0"
     inkscape:current-layer="svg2" />
  <defs
     id="defs4">
    <g
       id="G">
      <clipPath
         id="gcut">
        <path
           d="m -31.5,0 0,-70 63,0 0,70 z M 0,-47 l 0,12 31.5,0 0,-12 z"
           id="path11"
           inkscape:connector-curvature="0" />
      </clipPath>
      <use
         xlink:href="#O"
         clip-path="url(#gcut)"
         id="use13"
         x="0"
         y="0"
         width="100%"
         height="100%" />
      <rect
         y="-35"
         x="5"
         height="10"
         width="26.5"
         id="rect15" />
      <rect
         y="-35"
         x="21.5"
         height="35"
         width="10"
         id="rect17" />
    </g>
    <path
       id="O"
       d="M 0,0 A 31.5,35 0 0 0 0,-70 31.5,35 0 0 0 0,0 m 0,-13 a 18.5,22 0 0 0 0,-44 18.5,22 0 0 0 0,44"
       inkscape:connector-curvature="0"
       style="fill-rule:evenodd" />
    <g
       id="star"
       style="fill:#ffffff">
      <g
         id="c">
        <path
           id="t"
           transform="matrix(0.95105652,0.30901699,-0.30901699,0.95105652,-0.30901699,-0.04894348)"
           d="M 0,-1 0,0 0.5,0"
           inkscape:connector-curvature="0" />
        <use
           xlink:href="#t"
           transform="scale(-1,1)"
           id="use31"
           x="0"
           y="0"
           width="100%"
           height="100%" />
      </g>
      <use
         xlink:href="#c"
         transform="matrix(0.30901699,0.95105652,-0.95105652,0.30901699,0,0)"
         id="use33"
         x="0"
         y="0"
         width="100%"
         height="100%" />
      <use
         xlink:href="#c"
         transform="matrix(0.30901699,-0.95105652,0.95105652,0.30901699,0,0)"
         id="use35"
         x="0"
         y="0"
         width="100%"
         height="100%" />
      <use
         xlink:href="#c"
         transform="matrix(-0.80901699,0.58778525,-0.58778525,-0.80901699,0,0)"
         id="use37"
         x="0"
         y="0"
         width="100%"
         height="100%" />
      <use
         xlink:href="#c"
         transform="matrix(-0.80901699,-0.58778525,0.58778525,-0.80901699,0,0)"
         id="use39"
         x="0"
         y="0"
         width="100%"
         height="100%" />
    </g>
  </defs>
  <clipPath
     id="band">
    <circle
       r="735"
       id="circle53"
       cx="0"
       cy="0" />
  </clipPath>
  <g
     transform="matrix(6.3572151,0,0,6.3572151,-2079.005,-2240.1363)"
     id="g2004">
    <path
       style="fill:#fefefe;stroke-width:0.35277778"
       d="m 67.556946,148.83334 v -27.86945 h 38.276394 38.27639 v 27.86945 27.86944 H 105.83334 67.556946 Z"
       id="path2014"
       inkscape:connector-curvature="0" />
    <path
       style="fill:#fdecec;stroke-width:0.35277778"
       d="m 67.556946,166.29584 v -10.40695 h 10.406945 10.406944 v 10.40695 10.40694 H 77.963891 67.556946 Z m 24.341667,-1.76389 V 152.36111 H 79.72778 67.556946 v -3.52777 -3.52778 H 79.72778 91.898613 v -12.17084 -12.17083 h 3.527778 3.527778 v 12.17083 12.17084 h 22.577781 22.57778 v 3.52778 3.52777 H 121.53195 98.954169 v 12.17084 12.17083 h -3.527778 -3.527778 z m 10.230557,1.76389 v -10.40695 h 20.99028 20.99028 v 10.40695 10.40694 h -20.99028 -20.99028 z m -34.572224,-34.925 v -10.40695 h 10.406945 10.406944 v 10.40695 10.40694 H 77.963891 67.556946 Z m 34.572224,0 v -10.40695 h 20.99028 20.99028 v 10.40695 10.40694 h -20.99028 -20.99028 z"
       id="path2012"
       inkscape:connector-curvature="0" />
    <path
       style="fill:#ee2a2c;stroke-width:0.35277778"
       d="m 67.556946,166.29584 v -10.40695 h 10.406945 10.406944 v 10.40695 10.40694 H 77.963891 67.556946 Z m 24.341667,-1.76389 V 152.36111 H 79.72778 67.556946 v -3.52777 -3.52778 H 79.72778 91.898613 v -12.17084 -12.17083 h 3.527778 3.527778 v 12.17083 12.17084 h 22.577781 22.57778 v 3.52778 3.52777 H 121.53195 98.954169 v 12.17084 12.17083 h -3.527778 -3.527778 z m 10.583337,1.76389 v -10.40695 h 20.81389 20.81389 v 10.40695 10.40694 h -20.81389 -20.81389 z m -34.925004,-34.925 v -10.40695 h 10.406945 10.406944 v 10.40695 10.40694 H 77.963891 67.556946 Z m 34.925004,0 v -10.40695 h 20.81389 20.81389 v 10.40695 10.40694 h -20.81389 -20.81389 z"
       id="path2010"
       inkscape:connector-curvature="0" />
    <path
       style="fill:#2d4e82;stroke-width:0.35277778"
       d="M 91.898613,164.53195 V 152.36111 H 79.72778 67.556946 v -3.52777 -3.52778 H 79.72778 91.898613 v -12.17084 -12.17083 h 3.527778 3.527778 v 12.17083 12.17084 h 22.577781 22.57778 v 3.52778 3.52777 H 121.53195 98.954169 v 12.17084 12.17083 h -3.527778 -3.527778 z"
       id="path2008"
       inkscape:connector-curvature="0" />
    <path
       style="fill:#002767;stroke-width:0.35277778"
       d="M 91.898613,164.53195 V 152.36111 H 79.72778 67.556946 v -3.52777 -3.52778 H 79.72778 91.898613 v -12.17084 -12.17083 h 3.351389 3.351389 v 12.17083 12.17084 h 22.754169 22.75417 v 3.52778 3.52777 H 121.35556 98.601391 v 12.17084 12.17083 h -3.351389 -3.351389 z"
       id="path2006"
       inkscape:connector-curvature="0" />
  </g>
</svg>
