<?xml version="1.0" encoding="UTF-8"?>
<!DOCTYPE svg PUBLIC "-//W3C//DTD SVG 1.1//EN" "http://www.w3.org/Graphics/SVG/1.1/DTD/svg11.dtd">
<svg version="1.2" width="56.44mm" height="21.17mm" viewBox="0 0 5644 2117" preserveAspectRatio="xMidYMid" fill-rule="evenodd" stroke-width="28.222" stroke-linejoin="round" xmlns="http://www.w3.org/2000/svg" xmlns:ooo="http://xml.openoffice.org/svg/export" xmlns:xlink="http://www.w3.org/1999/xlink" xmlns:presentation="http://sun.com/xmlns/staroffice/presentation" xmlns:smil="http://www.w3.org/2001/SMIL20/" xmlns:anim="urn:oasis:names:tc:opendocument:xmlns:animation:1.0" xml:space="preserve">
 <defs class="ClipPathGroup">
  <clipPath id="presentation_clip_path" clipPathUnits="userSpaceOnUse">
   <rect x="0" y="0" width="5644" height="2117"/>
  </clipPath>
  <clipPath id="presentation_clip_path_shrink" clipPathUnits="userSpaceOnUse">
   <rect x="5" y="2" width="5633" height="2113"/>
  </clipPath>
 </defs>
 <defs class="TextShapeIndex">
  <g ooo:slide="id1" ooo:id-list="id3 id4 id5 id6 id7 id8 id9 id10 id11 id12 id13 id14 id15 id16 id17 id18 id19 id20 id21 id22 id23 id24 id25 id26 id27 id28 id29 id30 id31 id32 id33 id34 id35 id36 id37 id38 id39 id40 id41 id42 id43 id44 id45 id46 id47 id48 id49 id50 id51 id52 id53 id54 id55 id56 id57 id58 id59 id60 id61 id62 id63 id64 id65"/>
 </defs>
 <defs class="EmbeddedBulletChars">
  <g id="bullet-char-template-57356" transform="scale(0.00048828125,-0.00048828125)">
   <path d="M 580,1141 L 1163,571 580,0 -4,571 580,1141 Z"/>
  </g>
  <g id="bullet-char-template-57354" transform="scale(0.00048828125,-0.00048828125)">
   <path d="M 8,1128 L 1137,1128 1137,0 8,0 8,1128 Z"/>
  </g>
  <g id="bullet-char-template-10146" transform="scale(0.00048828125,-0.00048828125)">
   <path d="M 174,0 L 602,739 174,1481 1456,739 174,0 Z M 1358,739 L 309,1346 659,739 1358,739 Z"/>
  </g>
  <g id="bullet-char-template-10132" transform="scale(0.00048828125,-0.00048828125)">
   <path d="M 2015,739 L 1276,0 717,0 1260,543 174,543 174,936 1260,936 717,1481 1274,1481 2015,739 Z"/>
  </g>
  <g id="bullet-char-template-10007" transform="scale(0.00048828125,-0.00048828125)">
   <path d="M 0,-2 C -7,14 -16,27 -25,37 L 356,567 C 262,823 215,952 215,954 215,979 228,992 255,992 264,992 276,990 289,987 310,991 331,999 354,1012 L 381,999 492,748 772,1049 836,1024 860,1049 C 881,1039 901,1025 922,1006 886,937 835,863 770,784 769,783 710,716 594,584 L 774,223 C 774,196 753,168 711,139 L 727,119 C 717,90 699,76 672,76 641,76 570,178 457,381 L 164,-76 C 142,-110 111,-127 72,-127 30,-127 9,-110 8,-76 1,-67 -2,-52 -2,-32 -2,-23 -1,-13 0,-2 Z"/>
  </g>
  <g id="bullet-char-template-10004" transform="scale(0.00048828125,-0.00048828125)">
   <path d="M 285,-33 C 182,-33 111,30 74,156 52,228 41,333 41,471 41,549 55,616 82,672 116,743 169,778 240,778 293,778 328,747 346,684 L 369,508 C 377,444 397,411 428,410 L 1163,1116 C 1174,1127 1196,1133 1229,1133 1271,1133 1292,1118 1292,1087 L 1292,965 C 1292,929 1282,901 1262,881 L 442,47 C 390,-6 338,-33 285,-33 Z"/>
  </g>
  <g id="bullet-char-template-9679" transform="scale(0.00048828125,-0.00048828125)">
   <path d="M 813,0 C 632,0 489,54 383,161 276,268 223,411 223,592 223,773 276,916 383,1023 489,1130 632,1184 813,1184 992,1184 1136,1130 1245,1023 1353,916 1407,772 1407,592 1407,412 1353,268 1245,161 1136,54 992,0 813,0 Z"/>
  </g>
  <g id="bullet-char-template-8226" transform="scale(0.00048828125,-0.00048828125)">
   <path d="M 346,457 C 273,457 209,483 155,535 101,586 74,649 74,723 74,796 101,859 155,911 209,963 273,989 346,989 419,989 480,963 531,910 582,859 608,796 608,723 608,648 583,586 532,535 482,483 420,457 346,457 Z"/>
  </g>
  <g id="bullet-char-template-8211" transform="scale(0.00048828125,-0.00048828125)">
   <path d="M -4,459 L 1135,459 1135,606 -4,606 -4,459 Z"/>
  </g>
  <g id="bullet-char-template-61548" transform="scale(0.00048828125,-0.00048828125)">
   <path d="M 173,740 C 173,903 231,1043 346,1159 462,1274 601,1332 765,1332 928,1332 1067,1274 1183,1159 1299,1043 1357,903 1357,740 1357,577 1299,437 1183,322 1067,206 928,148 765,148 601,148 462,206 346,322 231,437 173,577 173,740 Z"/>
  </g>
 </defs>
 <defs class="TextEmbeddedBitmaps"/>
 <g>
  <g id="id2" class="Master_Slide">
   <g id="bg-id2" class="Background"/>
   <g id="bo-id2" class="BackgroundObjects"/>
  </g>
 </g>
 <g class="SlideGroup">
  <g>
   <g id="container-id1">
    <g id="id1" class="Slide" clip-path="url(#presentation_clip_path)">
     <g class="Page">
      <g class="com.sun.star.drawing.ClosedBezierShape">
       <g id="id3">
        <rect class="BoundingBox" stroke="none" fill="none" x="8255" y="4445" width="8892" height="8892"/>
        <path fill="rgb(0,0,0)" stroke="none" d="M 17146,8890 C 17146,9709 16960,10405 16550,11113 16141,11822 15632,12331 14923,12740 14215,13150 13519,13336 12700,13336 11882,13336 11186,13150 10478,12740 9769,12331 9260,11822 8851,11113 8441,10405 8255,9709 8255,8890 8255,8072 8441,7376 8851,6668 9260,5959 9769,5450 10478,5041 11186,4631 11882,4445 12700,4445 13519,4445 14215,4631 14923,5041 15632,5450 16141,5959 16550,6668 16960,7376 17146,8072 17146,8890 Z"/>
       </g>
      </g>
      <g class="com.sun.star.drawing.PolyPolygonShape">
       <g id="id4">
        <rect class="BoundingBox" stroke="none" fill="none" x="1426" y="0" width="4235" height="2119"/>
        <path fill="rgb(255,192,0)" stroke="none" d="M 3543,2118 L 1426,2118 1426,0 5660,0 5660,2118 3543,2118 Z"/>
       </g>
      </g>
      <g class="com.sun.star.drawing.ClosedBezierShape">
       <g id="id5">
        <rect class="BoundingBox" stroke="none" fill="none" x="12509" y="8467" width="384" height="425"/>
        <path fill="rgb(0,0,0)" stroke="none" d="M 12509,8891 L 12588,8891 12588,8734 12758,8734 C 12782,8734 12803,8728 12824,8716 12846,8704 12861,8688 12873,8667 12885,8646 12891,8625 12891,8600 12891,8576 12885,8555 12873,8534 12861,8512 12846,8497 12824,8485 12803,8473 12782,8467 12758,8467 L 12515,8467 12509,8891 Z M 12588,8655 L 12752,8655 C 12762,8655 12770,8653 12779,8648 12788,8643 12794,8636 12799,8628 12804,8619 12806,8610 12806,8600 12806,8590 12804,8582 12799,8573 12794,8564 12788,8558 12779,8553 12770,8548 12762,8546 12752,8546 L 12588,8546 12588,8655 Z"/>
       </g>
      </g>
      <g class="com.sun.star.drawing.PolyPolygonShape">
       <g id="id6">
        <rect class="BoundingBox" stroke="none" fill="none" x="12694" y="8884" width="8" height="8"/>
        <path fill="rgb(255,255,255)" stroke="none" d="M 12701,8884 L 12698,8891 12695,8890 12701,8884 Z"/>
       </g>
      </g>
      <g class="com.sun.star.drawing.PolyPolygonShape">
       <g id="id7">
        <rect class="BoundingBox" stroke="none" fill="none" x="12700" y="8888" width="8" height="5"/>
        <path fill="rgb(255,255,255)" stroke="none" d="M 12707,8888 L 12700,8888 12700,8892 12707,8888 Z"/>
       </g>
      </g>
      <g class="com.sun.star.drawing.PolyPolygonShape">
       <g id="id8">
        <rect class="BoundingBox" stroke="none" fill="none" x="12700" y="8885" width="8" height="5"/>
        <path fill="rgb(255,255,255)" stroke="none" d="M 12707,8889 L 12700,8889 12700,8885 12707,8889 Z"/>
       </g>
      </g>
      <g class="com.sun.star.drawing.PolyPolygonShape">
       <g id="id9">
        <rect class="BoundingBox" stroke="none" fill="none" x="12694" y="8888" width="9" height="5"/>
        <path fill="rgb(255,255,255)" stroke="none" d="M 12694,8888 L 12700,8892 12702,8889 12694,8888 Z"/>
       </g>
      </g>
      <g class="com.sun.star.drawing.PolyPolygonShape">
       <g id="id10">
        <rect class="BoundingBox" stroke="none" fill="none" x="12694" y="8887" width="7" height="9"/>
        <path fill="rgb(255,255,255)" stroke="none" d="M 12694,8888 L 12700,8892 12698,8895 12694,8888 Z"/>
       </g>
      </g>
      <g class="com.sun.star.drawing.PolyPolygonShape">
       <g id="id11">
        <rect class="BoundingBox" stroke="none" fill="none" x="12699" y="8889" width="7" height="8"/>
        <path fill="rgb(255,255,255)" stroke="none" d="M 12705,8896 L 12702,8889 12699,8890 12705,8896 Z"/>
       </g>
      </g>
      <g class="com.sun.star.drawing.PolyPolygonShape">
       <g id="id12">
        <rect class="BoundingBox" stroke="none" fill="none" x="12702" y="8888" width="5" height="9"/>
        <path fill="rgb(255,255,255)" stroke="none" d="M 12704,8896 L 12702,8889 12706,8888 12704,8896 Z"/>
       </g>
      </g>
      <g class="com.sun.star.drawing.PolyPolygonShape">
       <g id="id13">
        <rect class="BoundingBox" stroke="none" fill="none" x="12696" y="8889" width="7" height="8"/>
        <path fill="rgb(255,255,255)" stroke="none" d="M 12696,8896 L 12702,8892 12700,8889 12696,8896 Z"/>
       </g>
      </g>
      <g class="com.sun.star.drawing.PolyPolygonShape">
       <g id="id14">
        <rect class="BoundingBox" stroke="none" fill="none" x="12696" y="8891" width="9" height="5"/>
        <path fill="rgb(255,255,255)" stroke="none" d="M 12696,8895 L 12702,8891 12704,8894 12696,8895 Z"/>
       </g>
      </g>
      <g class="com.sun.star.drawing.PolyPolygonShape">
       <g id="id15">
        <rect class="BoundingBox" stroke="none" fill="none" x="12641" y="8699" width="93" height="213"/>
        <path fill="rgb(255,255,255)" stroke="none" d="M 12701,8699 L 12641,8881 12733,8911 12701,8699 Z"/>
       </g>
      </g>
      <g class="com.sun.star.drawing.PolyPolygonShape">
       <g id="id16">
        <rect class="BoundingBox" stroke="none" fill="none" x="12551" y="8699" width="151" height="183"/>
        <path fill="rgb(255,255,255)" stroke="none" d="M 12701,8699 L 12642,8881 12551,8852 12701,8699 Z"/>
       </g>
      </g>
      <g class="com.sun.star.drawing.PolyPolygonShape">
       <g id="id17">
        <rect class="BoundingBox" stroke="none" fill="none" x="12691" y="8831" width="193" height="97"/>
        <path fill="rgb(255,255,255)" stroke="none" d="M 12883,8831 L 12691,8831 12691,8927 12883,8831 Z"/>
       </g>
      </g>
      <g class="com.sun.star.drawing.PolyPolygonShape">
       <g id="id18">
        <rect class="BoundingBox" stroke="none" fill="none" x="12691" y="8736" width="193" height="97"/>
        <path fill="rgb(255,255,255)" stroke="none" d="M 12883,8832 L 12691,8832 12691,8736 12883,8832 Z"/>
       </g>
      </g>
      <g class="com.sun.star.drawing.PolyPolygonShape">
       <g id="id19">
        <rect class="BoundingBox" stroke="none" fill="none" x="12519" y="8831" width="213" height="114"/>
        <path fill="rgb(255,255,255)" stroke="none" d="M 12519,8831 L 12674,8944 12730,8866 12519,8831 Z"/>
       </g>
      </g>
      <g class="com.sun.star.drawing.PolyPolygonShape">
       <g id="id20">
        <rect class="BoundingBox" stroke="none" fill="none" x="12519" y="8831" width="156" height="191"/>
        <path fill="rgb(255,255,255)" stroke="none" d="M 12519,8831 L 12674,8944 12618,9021 12519,8831 Z"/>
       </g>
      </g>
      <g class="com.sun.star.drawing.PolyPolygonShape">
       <g id="id21">
        <rect class="BoundingBox" stroke="none" fill="none" x="12663" y="8863" width="151" height="184"/>
        <path fill="rgb(255,255,255)" stroke="none" d="M 12813,9045 L 12754,8863 12663,8893 12813,9045 Z"/>
       </g>
      </g>
      <g class="com.sun.star.drawing.PolyPolygonShape">
       <g id="id22">
        <rect class="BoundingBox" stroke="none" fill="none" x="12753" y="8834" width="93" height="213"/>
        <path fill="rgb(255,255,255)" stroke="none" d="M 12813,9046 L 12753,8864 12845,8834 12813,9046 Z"/>
       </g>
      </g>
      <g class="com.sun.star.drawing.PolyPolygonShape">
       <g id="id23">
        <rect class="BoundingBox" stroke="none" fill="none" x="12588" y="8854" width="156" height="192"/>
        <path fill="rgb(255,255,255)" stroke="none" d="M 12588,9045 L 12743,8932 12687,8855 12588,9045 Z"/>
       </g>
      </g>
      <g class="com.sun.star.drawing.PolyPolygonShape">
       <g id="id24">
        <rect class="BoundingBox" stroke="none" fill="none" x="12588" y="8932" width="212" height="114"/>
        <path fill="rgb(255,255,255)" stroke="none" d="M 12588,9045 L 12743,8932 12799,9010 12588,9045 Z"/>
       </g>
      </g>
      <g class="com.sun.star.drawing.PolyPolygonShape">
       <g id="id25">
        <rect class="BoundingBox" stroke="none" fill="none" x="12650" y="8731" width="78" height="178"/>
        <path fill="rgb(255,255,255)" stroke="none" d="M 12701,8731 L 12651,8883 12727,8908 12701,8731 Z"/>
       </g>
      </g>
      <g class="com.sun.star.drawing.PolyPolygonShape">
       <g id="id26">
        <rect class="BoundingBox" stroke="none" fill="none" x="12574" y="8730" width="128" height="154"/>
        <path fill="rgb(255,255,255)" stroke="none" d="M 12701,8731 L 12651,8883 12575,8858 12701,8731 Z"/>
       </g>
      </g>
      <g class="com.sun.star.drawing.PolyPolygonShape">
       <g id="id27">
        <rect class="BoundingBox" stroke="none" fill="none" x="12692" y="8841" width="161" height="81"/>
        <path fill="rgb(255,255,255)" stroke="none" d="M 12852,8841 L 12692,8841 12692,8921 12852,8841 Z"/>
       </g>
      </g>
      <g class="com.sun.star.drawing.PolyPolygonShape">
       <g id="id28">
        <rect class="BoundingBox" stroke="none" fill="none" x="12692" y="8762" width="161" height="81"/>
        <path fill="rgb(255,255,255)" stroke="none" d="M 12852,8842 L 12692,8842 12692,8762 12852,8842 Z"/>
       </g>
      </g>
      <g class="com.sun.star.drawing.PolyPolygonShape">
       <g id="id29">
        <rect class="BoundingBox" stroke="none" fill="none" x="12549" y="8840" width="177" height="96"/>
        <path fill="rgb(255,255,255)" stroke="none" d="M 12549,8841 L 12678,8935 12725,8870 12549,8841 Z"/>
       </g>
      </g>
      <g class="com.sun.star.drawing.PolyPolygonShape">
       <g id="id30">
        <rect class="BoundingBox" stroke="none" fill="none" x="12549" y="8841" width="130" height="160"/>
        <path fill="rgb(255,255,255)" stroke="none" d="M 12549,8841 L 12678,8935 12631,9000 12549,8841 Z"/>
       </g>
      </g>
      <g class="com.sun.star.drawing.PolyPolygonShape">
       <g id="id31">
        <rect class="BoundingBox" stroke="none" fill="none" x="12668" y="8867" width="128" height="153"/>
        <path fill="rgb(255,255,255)" stroke="none" d="M 12795,9019 L 12745,8867 12669,8892 12795,9019 Z"/>
       </g>
      </g>
      <g class="com.sun.star.drawing.PolyPolygonShape">
       <g id="id32">
        <rect class="BoundingBox" stroke="none" fill="none" x="12744" y="8843" width="77" height="178"/>
        <path fill="rgb(255,255,255)" stroke="none" d="M 12794,9020 L 12744,8868 12820,8843 12794,9020 Z"/>
       </g>
      </g>
      <g class="com.sun.star.drawing.PolyPolygonShape">
       <g id="id33">
        <rect class="BoundingBox" stroke="none" fill="none" x="12607" y="8861" width="130" height="160"/>
        <path fill="rgb(255,255,255)" stroke="none" d="M 12607,9020 L 12736,8926 12689,8861 12607,9020 Z"/>
       </g>
      </g>
      <g class="com.sun.star.drawing.PolyPolygonShape">
       <g id="id34">
        <rect class="BoundingBox" stroke="none" fill="none" x="12607" y="8925" width="178" height="95"/>
        <path fill="rgb(255,255,255)" stroke="none" d="M 12607,9019 L 12736,8925 12783,8990 12607,9019 Z"/>
       </g>
      </g>
      <g class="com.sun.star.drawing.PolyPolygonShape">
       <g id="id35">
        <rect class="BoundingBox" stroke="none" fill="none" x="12661" y="8763" width="62" height="142"/>
        <path fill="rgb(255,255,255)" stroke="none" d="M 12701,8763 L 12661,8885 12722,8904 12701,8763 Z"/>
       </g>
      </g>
      <g class="com.sun.star.drawing.PolyPolygonShape">
       <g id="id36">
        <rect class="BoundingBox" stroke="none" fill="none" x="12600" y="8763" width="102" height="123"/>
        <path fill="rgb(255,255,255)" stroke="none" d="M 12701,8763 L 12661,8885 12600,8865 12701,8763 Z"/>
       </g>
      </g>
      <g class="com.sun.star.drawing.PolyPolygonShape">
       <g id="id37">
        <rect class="BoundingBox" stroke="none" fill="none" x="12694" y="8851" width="129" height="66"/>
        <path fill="rgb(255,255,255)" stroke="none" d="M 12822,8851 L 12694,8851 12694,8916 12822,8851 Z"/>
       </g>
      </g>
      <g class="com.sun.star.drawing.PolyPolygonShape">
       <g id="id38">
        <rect class="BoundingBox" stroke="none" fill="none" x="12694" y="8787" width="129" height="66"/>
        <path fill="rgb(255,255,255)" stroke="none" d="M 12822,8852 L 12694,8852 12694,8787 12822,8852 Z"/>
       </g>
      </g>
      <g class="com.sun.star.drawing.PolyPolygonShape">
       <g id="id39">
        <rect class="BoundingBox" stroke="none" fill="none" x="12579" y="8850" width="142" height="78"/>
        <path fill="rgb(255,255,255)" stroke="none" d="M 12579,8851 L 12682,8927 12720,8875 12579,8851 Z"/>
       </g>
      </g>
      <g class="com.sun.star.drawing.PolyPolygonShape">
       <g id="id40">
        <rect class="BoundingBox" stroke="none" fill="none" x="12579" y="8851" width="105" height="128"/>
        <path fill="rgb(255,255,255)" stroke="none" d="M 12579,8851 L 12683,8926 12645,8978 12579,8851 Z"/>
       </g>
      </g>
      <g class="com.sun.star.drawing.PolyPolygonShape">
       <g id="id41">
        <rect class="BoundingBox" stroke="none" fill="none" x="12675" y="8872" width="102" height="123"/>
        <path fill="rgb(255,255,255)" stroke="none" d="M 12776,8994 L 12736,8872 12675,8892 12776,8994 Z"/>
       </g>
      </g>
      <g class="com.sun.star.drawing.PolyPolygonShape">
       <g id="id42">
        <rect class="BoundingBox" stroke="none" fill="none" x="12735" y="8851" width="62" height="143"/>
        <path fill="rgb(255,255,255)" stroke="none" d="M 12775,8993 L 12735,8872 12796,8852 12775,8993 Z"/>
       </g>
      </g>
      <g class="com.sun.star.drawing.PolyPolygonShape">
       <g id="id43">
        <rect class="BoundingBox" stroke="none" fill="none" x="12625" y="8867" width="105" height="128"/>
        <path fill="rgb(255,255,255)" stroke="none" d="M 12625,8994 L 12729,8919 12691,8867 12625,8994 Z"/>
       </g>
      </g>
      <g class="com.sun.star.drawing.PolyPolygonShape">
       <g id="id44">
        <rect class="BoundingBox" stroke="none" fill="none" x="12624" y="8918" width="143" height="77"/>
        <path fill="rgb(255,255,255)" stroke="none" d="M 12625,8994 L 12728,8918 12766,8970 12625,8994 Z"/>
       </g>
      </g>
      <g class="com.sun.star.drawing.PolyPolygonShape">
       <g id="id45">
        <rect class="BoundingBox" stroke="none" fill="none" x="12672" y="8799" width="45" height="102"/>
        <path fill="rgb(255,255,255)" stroke="none" d="M 12701,8799 L 12672,8886 12716,8900 12701,8799 Z"/>
       </g>
      </g>
      <g class="com.sun.star.drawing.PolyPolygonShape">
       <g id="id46">
        <rect class="BoundingBox" stroke="none" fill="none" x="12629" y="8799" width="73" height="88"/>
        <path fill="rgb(255,255,255)" stroke="none" d="M 12701,8799 L 12673,8886 12629,8872 12701,8799 Z"/>
       </g>
      </g>
      <g class="com.sun.star.drawing.PolyPolygonShape">
       <g id="id47">
        <rect class="BoundingBox" stroke="none" fill="none" x="12696" y="8862" width="93" height="47"/>
        <path fill="rgb(255,255,255)" stroke="none" d="M 12788,8862 L 12696,8862 12696,8908 12788,8862 Z"/>
       </g>
      </g>
      <g class="com.sun.star.drawing.PolyPolygonShape">
       <g id="id48">
        <rect class="BoundingBox" stroke="none" fill="none" x="12696" y="8817" width="93" height="47"/>
        <path fill="rgb(255,255,255)" stroke="none" d="M 12788,8863 L 12696,8863 12696,8817 12788,8863 Z"/>
       </g>
      </g>
      <g class="com.sun.star.drawing.PolyPolygonShape">
       <g id="id49">
        <rect class="BoundingBox" stroke="none" fill="none" x="12614" y="8862" width="102" height="55"/>
        <path fill="rgb(255,255,255)" stroke="none" d="M 12614,8862 L 12688,8916 12715,8879 12614,8862 Z"/>
       </g>
      </g>
      <g class="com.sun.star.drawing.PolyPolygonShape">
       <g id="id50">
        <rect class="BoundingBox" stroke="none" fill="none" x="12614" y="8862" width="76" height="92"/>
        <path fill="rgb(255,255,255)" stroke="none" d="M 12614,8862 L 12688,8916 12661,8953 12614,8862 Z"/>
       </g>
      </g>
      <g class="com.sun.star.drawing.PolyPolygonShape">
       <g id="id51">
        <rect class="BoundingBox" stroke="none" fill="none" x="12682" y="8877" width="73" height="88"/>
        <path fill="rgb(255,255,255)" stroke="none" d="M 12754,8964 L 12726,8877 12682,8891 12754,8964 Z"/>
       </g>
      </g>
      <g class="com.sun.star.drawing.PolyPolygonShape">
       <g id="id52">
        <rect class="BoundingBox" stroke="none" fill="none" x="12725" y="8863" width="45" height="102"/>
        <path fill="rgb(255,255,255)" stroke="none" d="M 12754,8964 L 12725,8877 12769,8863 12754,8964 Z"/>
       </g>
      </g>
      <g class="com.sun.star.drawing.PolyPolygonShape">
       <g id="id53">
        <rect class="BoundingBox" stroke="none" fill="none" x="12647" y="8873" width="75" height="92"/>
        <path fill="rgb(255,255,255)" stroke="none" d="M 12647,8964 L 12721,8910 12694,8873 12647,8964 Z"/>
       </g>
      </g>
      <g class="com.sun.star.drawing.PolyPolygonShape">
       <g id="id54">
        <rect class="BoundingBox" stroke="none" fill="none" x="12647" y="8910" width="102" height="55"/>
        <path fill="rgb(255,255,255)" stroke="none" d="M 12647,8964 L 12721,8910 12748,8947 12647,8964 Z"/>
       </g>
      </g>
      <g class="com.sun.star.drawing.PolyPolygonShape">
       <g id="id55">
        <rect class="BoundingBox" stroke="none" fill="none" x="12679" y="8826" width="33" height="72"/>
        <path fill="rgb(255,255,255)" stroke="none" d="M 12700,8826 L 12680,8887 12711,8897 12700,8826 Z"/>
       </g>
      </g>
      <g class="com.sun.star.drawing.PolyPolygonShape">
       <g id="id56">
        <rect class="BoundingBox" stroke="none" fill="none" x="12650" y="8826" width="52" height="63"/>
        <path fill="rgb(255,255,255)" stroke="none" d="M 12701,8826 L 12681,8887 12650,8877 12701,8826 Z"/>
       </g>
      </g>
      <g class="com.sun.star.drawing.PolyPolygonShape">
       <g id="id57">
        <rect class="BoundingBox" stroke="none" fill="none" x="12697" y="8870" width="67" height="34"/>
        <path fill="rgb(255,255,255)" stroke="none" d="M 12762,8870 L 12697,8870 12697,8903 12762,8870 Z"/>
       </g>
      </g>
      <g class="com.sun.star.drawing.PolyPolygonShape">
       <g id="id58">
        <rect class="BoundingBox" stroke="none" fill="none" x="12697" y="8839" width="67" height="34"/>
        <path fill="rgb(255,255,255)" stroke="none" d="M 12762,8872 L 12697,8872 12697,8839 12762,8872 Z"/>
       </g>
      </g>
      <g class="com.sun.star.drawing.PolyPolygonShape">
       <g id="id59">
        <rect class="BoundingBox" stroke="none" fill="none" x="12640" y="8869" width="72" height="40"/>
        <path fill="rgb(255,255,255)" stroke="none" d="M 12640,8870 L 12692,8908 12711,8882 12640,8870 Z"/>
       </g>
      </g>
      <g class="com.sun.star.drawing.PolyPolygonShape">
       <g id="id60">
        <rect class="BoundingBox" stroke="none" fill="none" x="12640" y="8870" width="54" height="65"/>
        <path fill="rgb(255,255,255)" stroke="none" d="M 12640,8870 L 12692,8908 12673,8934 12640,8870 Z"/>
       </g>
      </g>
      <g class="com.sun.star.drawing.PolyPolygonShape">
       <g id="id61">
        <rect class="BoundingBox" stroke="none" fill="none" x="12688" y="8881" width="52" height="62"/>
        <path fill="rgb(255,255,255)" stroke="none" d="M 12739,8942 L 12719,8881 12688,8891 12739,8942 Z"/>
       </g>
      </g>
      <g class="com.sun.star.drawing.PolyPolygonShape">
       <g id="id62">
        <rect class="BoundingBox" stroke="none" fill="none" x="12718" y="8871" width="32" height="72"/>
        <path fill="rgb(255,255,255)" stroke="none" d="M 12738,8942 L 12718,8881 12749,8871 12738,8942 Z"/>
       </g>
      </g>
      <g class="com.sun.star.drawing.PolyPolygonShape">
       <g id="id63">
        <rect class="BoundingBox" stroke="none" fill="none" x="12663" y="8878" width="53" height="65"/>
        <path fill="rgb(255,255,255)" stroke="none" d="M 12663,8942 L 12715,8904 12696,8878 12663,8942 Z"/>
       </g>
      </g>
      <g class="com.sun.star.drawing.PolyPolygonShape">
       <g id="id64">
        <rect class="BoundingBox" stroke="none" fill="none" x="12663" y="8903" width="72" height="40"/>
        <path fill="rgb(255,255,255)" stroke="none" d="M 12663,8942 L 12715,8904 12734,8930 12663,8942 Z"/>
       </g>
      </g>
      <g class="com.sun.star.drawing.PolyPolygonShape">
       <g id="id65">
        <rect class="BoundingBox" stroke="none" fill="none" x="1430" y="1060" width="4231" height="1061"/>
        <path fill="rgb(0,45,110)" stroke="none" d="M 3545,2120 L 1430,2120 1430,1060 5660,1060 5660,2120 3545,2120 Z"/>
       </g>
      </g>
     </g>
    </g>
   </g>
  </g>
 </g>
</svg>